<?xml version="1.0" encoding="utf-8"?>
<!-- Generator: Adobe Illustrator 23.0.1, SVG Export Plug-In . SVG Version: 6.00 Build 0)  -->
<svg version="1.1" id="Layer_1" xmlns="http://www.w3.org/2000/svg" xmlns:xlink="http://www.w3.org/1999/xlink" x="0px" y="0px"
	 viewBox="0 0 2500 2500" style="enable-background:new 0 0 2500 2500;" xml:space="preserve">
<style type="text/css">
	.st0{display:none;}
	.st1{display:inline;fill:#999999;}
	.st2{display:inline;}
	.st3{display:inline;fill:#FFFFFF;}
	.st4{fill:#FFFFFF;}
</style>
<g class="st0">
	<rect x="-436.3" y="-55.7" class="st1" width="3319.1" height="2854.3"/>
</g>
<g class="st0">
	<g>
		<path class="st2" d="M637.7,1015.6c23.4,17.8,51.3,21.7,79.2,25.5c7.2,1,14.4,3,21.6,3.4c4.2,0.3,9.5-0.3,12.6-2.7
			c59.8-45.5,140.1-31.5,180.8,18.2c0.1,0.2,0.5,0.1,1.7,0.3c0-5.4,0-10.7,0-15.7c17-3.2,33.5-5.4,49.3-9.6
			c15.8-4.2,31-10.3,46.6-15.7c6.5,16.5-0.1,42.4-17.6,48.6c-19.7,7-39.6,13.1-59.5,19.7c-2.1,0.7-4,1.8-6,2.7
			c0.6,3.6,1.2,6.7,2,11.4c5.7,0,11.6-0.1,17.5,0c22.6,0.6,40.7,19,41.2,41.6c0.3,17.1,0.3,34.3,0,51.4c-0.4,26.9-14.5,41-41.4,42.8
			c-3.1,0.2-24.1,2.3-27.6,2.1c0,0,0,0,0,0c-2.1-0.1-3.8-1.5-4.4-3.4c-1.7-5.6-3.8-11.2-3.8-16.8c-0.4-34.7,0-69.5-0.1-104.2
			c-0.1-39.4-32.9-74.4-75.1-78.2c19.4,12,36.9,22.8,55.5,34.3c-27.2,16.4-52.6,31.7-79.3,47.8v-25.8c-3.8,0-7.3,0.2-10.6,0
			c-24.6-1.8-49.2-4-73.8-5.4c-2.7-0.2-7.5,2.8-8.1,5.2c-1.8,6.8-2.8,14-2.8,21.1c-0.3,35.1-0.1,70.1-0.1,105.2
			c0,16.8-1.3,18.1-18.5,18.1c-6.8,0-13.6,0.1-20.5-0.2c-22-1-37.3-15.4-38.2-37.5c-0.8-20.1-0.9-40.3,0-60.3
			c1-22.4,16.7-36.7,39.2-37.7c1.3-0.1,2.6,0,3.9,0c16.6-0.1,16.6-0.1,18.3-17.1c-23.1-5.3-47.6-6.9-67.1-22.3
			c-5.9-4.6-9.9-11.6-14.8-17.5V1015.6z M716.5,1120.8c-8.4,0-16-0.5-23.5,0.2c-9,0.8-16.1,8.2-16.2,17.2c-0.3,20.8-0.4,41.6,0,62.4
			c0.2,9,5.3,15.6,14.3,17.2c8.1,1.4,16.5,1.2,25.4,1.7L716.5,1120.8L716.5,1120.8z M949.6,1218.3c7,0,13.1,0.3,19.1-0.1
			c11-0.7,18.6-7.4,18.9-18.4c0.6-20.4,0.5-40.8-0.1-61.2c-0.2-8.4-5.2-15-14-16.4c-7.8-1.3-15.8-0.9-24-1.3L949.6,1218.3
			L949.6,1218.3z M781.9,1048h48v-13.8C812.2,1034.6,796.2,1037.7,781.9,1048z"/>
		<path class="st2" d="M637.7,1448.2c1.9-6.5,3.7-13,5.6-19.4c9.3-31.4,27-55,59.9-64.7c12.4-3.6,24.5-8.3,36.8-12.7
			c25-8.9,34.9-37,21.1-59.5c-4.2-6.9-8.2-14-11.8-21.2c-8.7-17.5-8.6-17.6,5.7-33c1.2,2.8,2.3,5.3,3.5,7.7
			c6.1,12.1,11.1,25,18.6,36.2c19.1,28.7,7.4,71.3-24.4,84.4c-14.1,5.8-28.3,11.4-42.9,15.8c-24.8,7.4-39.4,24-46.3,48.1
			c-2.1,7.5-2.8,15.3-5,22.8c-3.1,10.4,1,18,10,21.3c16.6,6.2,33.5,12.6,50.8,15.7c80,14.3,160.2,13.9,239.9-2.7
			c12.3-2.6,24.2-7.4,36-11.8c9.9-3.7,13.8-11.6,11.8-21.9c-2-10.1-3.6-20.5-7.2-30.1c-6.9-18.4-19.7-31.9-38.5-38.8
			c-15.8-5.8-31.9-11-47.5-17.2c-24.4-9.7-39.4-37.5-34.2-63.3c0.6-3,5-6.2,8.4-7.4c3.4-1.3,7.6-0.3,8.9-0.3
			c1.8,12.4,1.8,24.6,5.8,35.4c2.6,6.9,10.1,13.6,17.1,17c12.4,6.1,26,10.1,39.3,14.1c33.5,10.1,53.5,32.8,62.5,66
			c1.9,7.2,3,14.6,4.6,21.9c3.9,17-3.4,29-17,38c-17.4,11.5-37.3,16.6-57.5,19.8c-21.1,3.3-42.4,5.6-63.6,8.4
			c-2.9,0.4-5.7,1.1-8.5,1.7c-30.5,0-61,0-91.6,0c-5.4-0.7-10.8-1.6-16.2-2.1c-33.6-3.1-67-7.2-98.9-19.4
			c-15.6-6-29.1-14.2-34.9-31.1C637.7,1459.9,637.7,1454,637.7,1448.2z"/>
		<path class="st2" d="M822.8,953.3c0,5.5,0,11,0,17.2c3.6,0.2,6.8,0.3,9.9,0.4c30.3,1.3,60.7,1.2,90.8,4.3
			c24.2,2.5,48.9,4.6,71.6,15.1c2.9,1.3,5.7,2.8,8.4,4.3c5.6,3.3,11.8,6.9,9.3,14.6c-2.3,7-15.8,10.9-23.1,7.9
			c-22-9-45-13.4-68.6-15.5c-29.7-2.6-59.4-5.2-89-7.7c-2.5-0.2-5.1,0-8.8,0c-0.3,5.9-0.5,11.5-0.8,18.7
			c-16.9-10.2-32.5-19.7-49.2-29.7c15.9-10.3,30.8-20.1,45.8-29.8C820.2,953.3,821.5,953.3,822.8,953.3z"/>
		<path class="st2" d="M1599.1,1432.8c1.4,13.4,8.3,16.6,19,15.4c7.4-0.8,14.9-0.3,22.4-0.1c9.7,0.3,16.1,6.1,16.5,14.4
			c0.4,8.8-5.7,15.2-15.9,15.9c-6.8,0.5-13.6,0.2-20.4,0.2c-44.2,0-88.3,0-132.5,0c-2.9,0-5.9,0.1-8.8-0.2
			c-9.6-1.1-15.8-7.3-15.6-15.5c0.2-8.2,6.7-14.3,16.2-14.8c5.8-0.3,11.8-0.7,17.5,0.1c10.8,1.5,15.5-3.5,16.6-14.6
			c-99.5,0-198.9,0-299,0c0-136.4,0-271.6,0-407.7c229.8,0,459.8,0,690.4,0c0,135.2,0,270.4,0,406.9
			C1803.6,1432.8,1701.6,1432.8,1599.1,1432.8z M1560.2,1415c103.9,0,207.8,0,311.8,0c14,0,14.5-0.5,14.5-14.1
			c0-114.3,0-228.6,0-342.9c0-14.6-0.2-14.8-14.7-14.8c-207.5,0-415,0-622.5,0c-14.1,0-14.6,0.6-14.6,15.1c0,114,0,228,0,342
			c0,14.3,0.6,14.9,14.8,14.9C1353,1415,1456.6,1415,1560.2,1415z"/>
		<path class="st2" d="M746.3,973.5c0,9.5,0,16.5,0,21.1c-24.8,6.5-48.8,12-72.3,19.4c-7.1,2.2-11.4,1.7-16.3-2.8
			c-6.8-6.3-6.6-13.2,1.8-16.8c11.9-5,24.2-9.7,36.7-12.6C712.3,978.1,728.8,976.3,746.3,973.5z"/>
		<path class="st2" d="M1487.2,1262.4c-9.7,1.2-17.3,2.2-26.1,3.3c5.1,11.6,9.9,22.4,15,33.9c-3.2,1.6-5.9,3-9.1,4.6
			c-5.2-11.6-10.1-22.7-15.5-34.7c-6.4,5.9-11.8,10.9-18.3,16.9c0-25.2,0-49.1,0-74.5C1451.2,1228.8,1468.6,1245.1,1487.2,1262.4z"
			/>
		<path class="st2" d="M1450.2,1157.2c4.5,5.9,8.3,11,12.7,16.9c-2.9,0.9-5.3,1.7-8,2.5c-0.2,5.2-0.5,10.3-0.7,15.3
			c-8.3,0.8-8.3,0.8-9.3-15.7c-2.1-0.5-4.4-1.1-7.5-1.8C1441.8,1168.5,1445.8,1163.2,1450.2,1157.2z"/>
		<path class="st2" d="M1379.1,1240.4c0.8,3.4,1.3,5.7,1.9,8.2c5.5,0.3,10.6,0.5,15.6,0.7c0.8,8.3,0.8,8.3-15.7,9.3
			c-0.5,2.1-1.1,4.4-1.8,7.4c-5.8-4.2-10.9-8-17.4-12.7C1367.5,1249.1,1372.7,1245.2,1379.1,1240.4z"/>
		<path class="st2" d="M1517.1,1240.2c6.4,4.8,11.6,8.6,17.5,13c-5.8,4.4-11.1,8.4-17.2,12.9c-0.7-3.1-1.3-5.3-1.6-6.7
			c-5.3-4.4-17.1,4.7-16.9-8.6C1504.7,1245.6,1516.5,1255.2,1517.1,1240.2z"/>
		<path class="st2" d="M1452.9,1315.8c4.3,6.8-4.1,17.7,10.4,18c-4.5,6.1-8.4,11.4-13,17.6c-4.4-5.9-8.4-11.2-12.9-17.3
			c3.1-0.7,5.3-1.2,6.3-1.5C1448.8,1327.4,1438.9,1315.1,1452.9,1315.8z"/>
	</g>
	<g>
		<path class="st2" d="M462.3,947.9c18.1,7.7,37.9,12.9,54,23.6c26.8,17.7,38.7,45.4,39,77.4c0.4,50.5,0.2,101,0.1,151.4
			c-0.2,56.3-41.8,99.8-96.4,101.1c-53.7,1.2-98.6-42-99.6-97.8c-1-51.8-0.9-103.6,0-155.4c0.8-48.1,32-84.9,78.7-95.5
			c4.7-1.1,9.1-3.1,13.6-4.7C455.2,947.9,458.7,947.9,462.3,947.9z"/>
		<path class="st2" d="M281.4,1160.7c5.2-11.7,13.4-19.4,26.9-15.6c13.7,3.8,15.3,15.3,15.3,27.6c-0.1,17.3-1.1,34.8,1.3,51.8
			c9.4,65.4,69.4,114.7,135.5,112.7c68.5-2.1,123.7-52.9,129.9-120.1c1.5-16.3,1-32.7,1.5-49.1c0.4-15.8,7.5-23.8,20.7-23.5
			c12.2,0.3,19.8,8.7,20.1,23.1c0.8,37.3,1.2,74.6-16,109.2c-25.5,51.3-65.3,85-122,97.5c-5.1,1.1-10.2,2.3-15.9,3.5
			c0,11.8,0,23.1,0,36.5c19.9,0,39.6,0,59.4,0c5.3,0,10.7-0.4,15.9,0.2c10.7,1.3,18.4,6.7,19.9,18c1.5,11.3-4.3,18.7-14.3,22.7
			c-3.6,1.4-7.7,1.9-11.6,2c-60.7,0.1-121.4,0.1-182.1,0c-3.1,0-6.4-0.1-9.1-1.2c-10.3-4.1-17.9-10.9-16.4-22.9
			c1.6-12.4,10.1-18.5,22.1-18.7c19.5-0.4,39-0.1,58.5-0.1c4.7,0,9.5,0,15.5,0c0-11.2,0.9-20.9-0.5-30.4c-0.5-3.2-6.4-7.2-10.4-8
			c-53.1-10.6-94-39-120.1-86c-10.3-18.5-14.5-40.4-21.6-60.7c-0.8-2.4-1.7-4.8-2.6-7.2C281.4,1201.5,281.4,1181.1,281.4,1160.7z"/>
		<path class="st2" d="M1843.9,1234.1c0-28.2,0-53.7,0-80.6c-8.7,0-16.9,0-27.5,0c2.6-11.9-6.2-23.9,8.3-32.5
			c-2.2-5.2-4.6-10.8-6.9-16.5c-8.2-20.7-6.6-40.2,9.2-56.8c14.4-15.2,40-20.7,60.2-9.4c16.6,9.3,31.5,22.6,44.7,36.5
			c11.5,12,19.2,27.6,29.4,40.9c2.9,3.8,8.9,7.1,13.6,7.4c18,0.8,36.1,0.3,55,0.3c0,9.9,0,18.6,0,29.3c-9,0-18.1,0-27.2,0
			c-9.2,0-18.4,0-29.2,0c0,73.8,0,146.3,0,219.7c-11.1,0-20.6,0-31.7,0c0-72.4,0-144.9,0-218.5c-22.4,0-43.3,0-65.7,0
			c0,72.9,0,145.3,0,218.6c-11,0-20.4,0-31.7,0c0-33.4,0-66.3,0-103.1c-33.1,26.5-63.3,50.7-94.2,75.5c-6.4-9.6-12.3-18.3-19.1-28.5
			c26.9-20.6,53.4-40.9,81.8-62.7c-22-9.7-41.5-18.8-61.5-26.7c-3.2-1.3-9.1,1.9-12.6,4.6c-20.6,15.4-40.8,31.2-61.3,46.8
			c-3.8,2.9-7.7,5.6-12.4,8.9c-6.6-9.7-12.4-18.4-19-28.2c22.3-15.9,43.7-31.1,65.2-46.4c-25.9-33.5-27.7-55.4-7-75.6
			c21.1-20.5,54-22.4,76.4-4.3c20.4,16.5,21.5,41.5,2.1,73.6C1802.7,1215.5,1822.1,1224.3,1843.9,1234.1z M1930.9,1123.4
			c-6.8-9.9-10.9-17.3-16.5-23.4c-10.6-11.7-21-23.8-33.3-33.5c-9.7-7.7-22.2-6.2-31.8,2.1c-9.4,8.1-8.5,18.8-3.7,29.2
			c3.2,6.8,6.7,13.5,10.7,19.7c1.7,2.6,5.2,5.7,7.9,5.7C1885.3,1123.6,1906.3,1123.4,1930.9,1123.4z M1742.8,1150.1
			c-12.2,0.2-22.3,10.1-22,21.7c0.2,11.7,10.4,21.1,22.7,21c12.7-0.1,21.7-9.2,21.6-21.6C1764.9,1159,1755.3,1149.9,1742.8,1150.1z"
			/>
		<path class="st2" d="M1486.6,1230c9.2-48-28.3-99.8-68.6-97.4c17,26.7,17.5,41.9,2,60.9c-15.4,18.9-43.4,26.9-64.8,18.7
			c-22.5-8.7-38.9-35-36.8-59.3c1.9-22.3,20.7-44.8,44.2-49.1c74.3-13.8,138.3,20.3,153.5,90.8c2.4,11,1.5,22.7,2.1,34.7
			c9.1,0,17.7,0,28,0c0-21.7,0-42.9,0-64c0-20.7,0-41.4,0-63.2c9.6,0,17.8,0,26.8,0c0,85.4,0,170.2,0,254.9
			c-1.1,0.7-1.8,1.4-2.6,1.5c-24.2,2.4-24.2,2.4-24.2-21.8c0-25.6,0-51.2,0-78c-11.4,0-21.2-0.7-30.7,0.4c-3.1,0.3-6.9,4.5-8.4,7.9
			c-23.1,49.5-59.5,81.2-115.1,89.4c-37.6,5.5-74.7,3.5-110-9.5c-17.7-6.5-34.2-18.4-48.9-30.7c-16.5-13.9-17.7-34.4-12.8-54.1
			c5.2-21,22.7-32.1,47.8-32.1c67.8-0.1,135.6,0,203.4,0C1476.4,1230,1481.3,1230,1486.6,1230z M1478.8,1260c-3.9-0.6-5.9-1.2-8-1.2
			c-68.6-0.1-137.2-0.2-205.8,0c-13.3,0-19,7.3-17.3,20.7c3.1,23.9,18.8,38.6,40.5,41.7c33.5,4.7,67.6,6.4,101.4,6.1
			c14.2-0.1,29.6-6.5,42.2-13.8C1452.7,1301.5,1468.8,1284,1478.8,1260z M1347.1,1159.9c0.2,15,13.1,27.5,28.3,27.2
			c14.6-0.2,27.9-13.5,28-28.1c0.2-14.7-14.4-28.7-29.3-28.1C1359.7,1131.5,1346.9,1145.2,1347.1,1159.9z"/>
		<path class="st2" d="M2078.1,1371.9c10.6-29.6,20.6-57.3,30.6-85c21.2-58.5,42.6-116.9,63.5-175.6c3.1-8.8,6.9-12.9,16.8-12.1
			c13.6,1.1,30.6-4,40.1,2.4c9.3,6.4,11.3,23.8,15.9,36.5c26.5,73,52.8,146.1,79.2,219.2c1.5,4.1,2.9,8.2,5.1,14.5
			c-15.6,0-29.9,0.4-44.2-0.4c-2.5-0.1-5.7-4.7-6.9-7.9c-4.8-12.3-9.1-24.9-13.2-37.5c-2-6.2-5.1-9-12.2-8.9
			c-32.8,0.4-65.5-0.1-98.3,0.5c-3.8,0.1-9.4,4.2-10.9,7.9c-5.4,12.5-9,25.8-14.1,38.5c-1.3,3.3-5.6,7.4-8.7,7.6
			C2107.2,1372.3,2093.6,1371.9,2078.1,1371.9z M2161.4,1274.1c29.2,0,56.4,0,85.1,0c-14.1-39.9-27.7-78.6-41.3-117.3
			c-0.9,0.1-1.9,0.3-2.8,0.4C2188.9,1195.8,2175.3,1234.4,2161.4,1274.1z"/>
		<path class="st2" d="M942.8,1225.7c0,39,0,78.1-0.1,117.1c0,3.4,0,7.8-2,10.1c-2.4,2.9-6.8,5.5-10.5,5.5c-3.3,0.1-7.2-2.8-9.8-5.5
			c-1.6-1.7-1.9-5.2-1.9-7.9c-0.1-79.3-0.1-158.7,0-238c0-8.8,3.7-13.8,10.2-14.5c8.6-1,13.9,4,13.9,13.8c0.1,15.7,0,31.4,0,47.2
			C942.8,1177.6,942.8,1201.6,942.8,1225.7z"/>
		<path class="st2" d="M988.6,1225.7c0,23.8,0,47.7,0,71.5c0,2.5,0.2,5.2-0.4,7.6c-1.3,5.8-5.2,9.4-11.2,9.6
			c-5.6,0.2-9.8-2.7-11.4-8.3c-0.9-3.1-1.2-6.5-1.3-9.7c-0.1-47.2,0-94.3,0-141.5c0-1,0-2,0-3c0.5-9.4,5.4-15.3,12.7-15
			c7.2,0.3,11.5,5.6,11.5,15C988.7,1176.5,988.6,1201.1,988.6,1225.7z"/>
		<path class="st2" d="M872.8,1225.8c0-23.1,0-46.1,0-69.2c0-2.7-0.3-6.3,1.3-8c2.7-3.1,6.8-7.1,10.2-7c3.8,0.1,8.2,3.8,11.1,6.9
			c1.7,1.8,1.4,5.8,1.4,8.8c0.1,45.6,0,91.2,0,136.8c0,0.8,0,1.5,0,2.3c-0.4,9.2-4.7,14.1-12.5,14c-7.1,0-11.5-5-11.5-14
			C872.7,1272.9,872.8,1249.3,872.8,1225.8z"/>
		<path class="st2" d="M1056.9,1225.7c0-19.3,0-38.6,0-57.9c0-5.7,1.4-10.5,7.2-13c6.2-2.7,13.3,0.1,15.6,6.4
			c0.8,2.1,1.2,4.5,1.2,6.7c0.1,38.3,0.1,76.6,0.1,115c0,1.3-0.2,2.5-0.4,3.8c-1.3,7.2-5.9,11.5-12.2,11.2
			c-6.7-0.3-11.3-5.1-11.3-12.7C1056.9,1265.3,1057,1245.5,1056.9,1225.7C1057,1225.7,1056.9,1225.7,1056.9,1225.7z"/>
		<path class="st2" d="M804.3,1225.6c0,17.5,0.1,35,0,52.5c0,9.3-4.3,14.6-11.7,14.8c-6.8,0.2-11.8-4.9-11.9-13.9
			c-0.3-35.8-0.4-71.6-0.2-107.3c0-8.3,5.7-13.6,12.7-13.2c6.7,0.4,11.1,5.6,11.1,13.8C804.4,1190.1,804.3,1207.9,804.3,1225.6z"/>
		<path class="st2" d="M826.8,1225c0-8.3-0.3-16.7,0.1-25.1c0.3-7.9,4.7-12.3,11.5-12.5c7-0.2,11.8,4.6,12,12.8
			c0.3,17,0.3,33.9,0,50.9c-0.1,8.1-5,13.1-11.9,12.9c-6.9-0.1-11.4-4.9-11.6-13.2C826.5,1242.3,826.7,1233.7,826.8,1225
			C826.7,1225,826.7,1225,826.8,1225z"/>
		<path class="st2" d="M1011,1225.5c0-6.1-0.3-12.1,0.1-18.2c0.4-7.2,4.9-11.3,11.7-11.3c6.6,0,11.4,4.2,11.6,11.4
			c0.4,12.4,0.4,24.8-0.1,37.1c-0.2,6.7-4.4,10.6-11.3,10.8c-6.8,0.3-11.5-3.8-11.9-10.9C1010.7,1238.2,1011,1231.8,1011,1225.5
			C1011,1225.5,1011,1225.5,1011,1225.5z"/>
		<path class="st2" d="M1126.7,1225.9c0,4.3,0.3,8.7-0.1,12.9c-0.7,7-5.6,11.3-12.2,10.9c-6.9-0.4-10.9-4.3-11.3-11
			c-0.4-8.8-0.5-17.8,0.1-26.6c0.4-6.8,4.8-10.5,11.6-10.5c6.9,0,10.9,4,11.7,10.6C1127.1,1216.7,1126.7,1221.4,1126.7,1225.9
			C1126.7,1225.9,1126.7,1225.9,1126.7,1225.9z"/>
		<path class="st2" d="M734.4,1226c0-3.3-0.3-6.6,0.1-9.9c0.7-6.2,4.2-10.3,10.5-11.1c6.8-0.8,11.9,2.5,12.8,9.1
			c1,7.5,1,15.2,0.1,22.7c-0.8,6.6-5.6,9.9-12.5,9.6c-6.2-0.3-10.6-4.8-11-11.3C734.3,1232.1,734.4,1229,734.4,1226z"/>
	</g>
	<g>
		<path class="st2" d="M1714.4,1545.9c-13.8-2.3-27.8-3.4-41.3-6.9c-101.3-26.6-166.8-90.6-190-192.5
			c-31.5-138.2,55.2-271.2,193.4-302.3c11.6-2.6,23.6-3.4,35.4-5.1c2.2-0.3,4.4-0.8,6.7-1.2c7.4,0,14.7,0,22.1,0
			c2.2,0.4,4.5,0.8,6.7,1.1c16.3,2.7,32.9,4,48.8,8.2c124.7,33,207.7,157.4,183.6,290.8c-17.6,97.9-94.7,179.4-191.7,201
			c-13.8,3.1-28,4.7-41.9,6.9C1735.6,1545.9,1725,1545.9,1714.4,1545.9z M1959,1292.1c0.1-126.4-102.2-229-228.4-229.1
			c-126.3-0.1-228.9,102.3-229,228.6c-0.1,126.7,102,229.3,228.1,229.4C1856.7,1521.1,1958.9,1419,1959,1292.1z"/>
		<path class="st2" d="M489.9,1203.5c25.5-13.6,51-27,76.5-40.7c39.6-21.3,79.2-42.6,118.8-63.9c1.8-1,3.7-1.8,5.9-2.9
			c4,6.8,8.1,13.4,12,20.1c14.4,25.1,28.7,50.2,43.2,75.2c2.7,4.8,3.3,8-2.2,11.8c-9.4,6.4-13.2,16.9-15.2,27.7
			c-2.3,12.6-8.2,22.9-17.8,31c-20.8,17.4-41.9,34.7-66.4,46.6c-14.8,7.2-30.3,13.1-45.8,18.4c-6.7,2.3-14.5,2.3-21.6,1.8
			c-2.8-0.2-5.8-4.1-7.8-7c-25.2-37-50.3-74.1-75.4-111.2c-1.3-1.9-2.7-3.6-4.1-5.4C489.9,1204.4,489.9,1204,489.9,1203.5z"/>
		<path class="st2" d="M646.6,1476.9c-13.7-14.6-27.3-28.3-40-42.7c-20.1-22.8-31.5-49.8-36.5-79.7c-1.7-10.3,0.5-13.7,9.9-13.5
			c17.1,0.4,33-4.7,47.3-13c27.9-16.3,55.2-33.8,82-51.8c9-6,17.4-14.2,23.5-23.1c5.5-8,8.4-18.2,10.9-27.8
			c5.1-19.6,17.6-28.4,37.5-24.8c53,9.4,106.4,11.6,160,10.5c18.2-0.4,36.3-0.9,54.5-1.5c35.2-1.1,69-9.6,102.2-20.6
			c18.7-6.2,37.3-12.7,55.7-19.6c28.9-10.7,57.8-3.5,78.3,19.6c2.5,2.8,6.1,4.5,9.2,6.8c2.4,1.7,5.2,3.1,7.1,5.3
			c6.1,7.2,4.8,13.4-3.5,17.9c-28.5,15.3-56.9,30.8-85.5,45.9c-63.7,33.7-127.1,67.8-191.3,100.5c-44.3,22.5-91.9,35.2-141,42.5
			c-1.1,0.2-2.3,0.4-3.4,0.7c-0.6,0.2-1.2,0.6-2.2,1.2c3.3,5.8,6.8,11.4,9.8,17.2c4.1,7.8,2.6,13.1-5,17.2
			c-49.6,26.9-99.4,53.6-149,80.5c-5.6,3-9.3,2-12.5-3.5c-6.2-10.5-12.3-21.1-19.1-31.1C641.3,1484.3,640,1479.9,646.6,1476.9z"/>
		<path class="st2" d="M1225.9,1298.7c0,8.6-5.7,13.1-12.4,16.7c-31.3,16.9-62.6,33.7-93.9,50.5c-15.3,8.3-30.7,16.6-46.1,24.8
			c-4.4,2.3-9,4.6-13.7,6.2c-9.6,3.4-19-0.4-23.3-9.1c-4.6-9.2-2-18.7,7.2-24.4c6.4-4,13.2-7.3,19.9-10.9
			c38.8-20.9,77.5-41.8,116.3-62.6c6.5-3.5,13-6.9,19.8-9.6C1213.2,1274.8,1226.1,1284,1225.9,1298.7z"/>
		<path class="st2" d="M1130.8,1366.5c8.7-4.6,16.9-9,25.5-13.6c3.7,4.8,7,9.1,10.3,13.5c19.2,25.9,44.2,43.8,74.6,54.3
			c10.6,3.7,10.8,4,10.6,15.2c-0.1,2.8,0,5.5,0,8.3c0,2.5,0,5,0,7.5C1215.8,1454.1,1155,1411.4,1130.8,1366.5z"/>
		<path class="st2" d="M1567.7,1292.4c13.2,0,24.9,0,37.3,0c1.9,43.3,19.7,78.3,55.5,103.1c22.8,15.7,48.4,22.5,76.2,21.3
			c58.9-2.5,116.4-50.1,119-124.6c6,0,12.1,0,18.2,0c5.9,0,11.9,0,18.9,0c-2,56.7-24.3,102.3-71,133.5
			c-57.5,38.4-118,39.8-177.1,3.9C1594.4,1398.9,1570.2,1351.8,1567.7,1292.4z"/>
		<path class="st2" d="M1806.4,1253.4c-14,0-24.8-10.8-24.8-24.9c0-13.9,10.9-25,24.7-25.1c14.1-0.1,25.6,11.4,25.3,25.3
			C1831.5,1242.6,1820.3,1253.4,1806.4,1253.4z"/>
		<path class="st2" d="M1654.2,1253.4c-13.9,0-25.1-10.8-25.3-24.6c-0.2-13.7,11.5-25.4,25.4-25.3c13.8,0.1,24.8,11.2,24.8,25.1
			C1679,1242.5,1668.2,1253.3,1654.2,1253.4z"/>
	</g>
	<g>
		<path class="st2" d="M1252.3,2001.2c-15.6-2.3-31.3-4-46.7-7c-114.1-22.2-202.3-110.7-222.7-224.8c-4.6-25.8-6.2-52.4-6.8-78.7
			c-2.6-111.2-4.3-222.4-6.2-333.6c-0.5-31.1-0.7-62.2-1.2-93.3c-1-73.4,27-134.6,79.2-185.1c51.8-50.2,114-79.7,185.6-87.9
			c68.3-7.8,132.7,5,192.7,39.7c47.7,27.6,87.5,63,114.7,111.3c21.9,38.8,32.6,80.6,30.7,125.4c-3.9,93.2-7.4,186.5-11.5,279.7
			c-2.5,57.7-5.1,115.5-8.7,173.2c-5,78.9-32.5,148.4-90.6,203.7c-44,41.9-96.7,66.2-157,74c-9,1.2-18,2.2-26.9,3.3
			C1268.7,2001.2,1260.5,2001.2,1252.3,2001.2z M1519.5,1318.6c0.5,0,1.1,0,1.6,0c0-19.9,0-39.9,0-59.8c0-49-14.6-92.7-46.5-130.3
			c-28-33.1-63.9-55.5-103.4-70.9c-87.2-34-172.1-23.3-251.4,23.4c-63.9,37.7-98.6,96-100.4,171c-1.2,51.3,0.8,102.7,1.7,154
			c1.8,95.1,3.8,190.1,5.9,285.2c0.8,37.8,1.4,75.5,15.7,111.6c26.5,67,72.7,113.5,141.4,135.7c34.3,11.1,70,13.3,106.1,10.3
			c79.1-6.7,141-39.5,178.1-112.7c15.3-30.1,27.9-61.1,30.3-94.7c4.6-63.5,7.6-127.1,10.7-190.6
			C1512.9,1473.3,1516.1,1395.9,1519.5,1318.6z"/>
		<path class="st2" d="M967,498.8c15.2,5.4,19.7,16.7,18.5,31.8c-2.7,35.1-4.5,70.2-7.6,105.3c-4.3,48.5,24.2,93.4,72.6,113.1
			c24.3,9.8,49.7,12.8,75.6,14.2c24.6,1.3,49.4,1.3,73.6,5.3c47.4,7.8,80.1,34.9,93.2,81.9c5.2,18.7,7,38.5,8.6,57.9
			c1.2,13.8-9.5,24.5-22.4,25.6c-13.3,1.1-23.8-7.2-26.4-21.7c-2.2-12.7-3.1-25.6-5.7-38.2c-5-23.9-15.3-45-39.9-53.8
			c-11.3-4-24-4.9-36.2-5.9c-32.4-2.8-65.3-2.3-97.2-7.7c-50.2-8.5-92.8-32.3-122-75.7c-15.4-22.8-24.5-48.3-23.2-76.1
			c2.1-43.6,5.2-87.2,8.3-130.7c0.8-11.7,7.5-20,18-25.1C958.7,498.8,962.8,498.8,967,498.8z"/>
		<path class="st2" d="M1247.1,1251.8c0-28.7-0.3-57.4,0.1-86.2c0.2-14.6,8.7-23.8,21.7-25.5c11.1-1.4,23,6.4,26.3,17.6
			c0.9,3,1,6.3,1,9.5c-0.5,54.5-1.1,109-1.8,163.6c-0.1,3.8-0.8,7.6-1.5,11.3c-2.8,15.2-12.8,22.6-28.9,21.6
			c-10.2-0.7-18.3-10.2-18.6-23.9c-0.5-25.2-0.2-50.4-0.3-75.6c0-4.1,0-8.2,0-12.3C1245.8,1251.8,1246.5,1251.8,1247.1,1251.8z"/>
	</g>
	<g>
		<path class="st2" d="M759.5,1310.3c0-251,1.2-502-0.8-753c-0.6-72.2,52.2-133.7,133.7-133.1c225.6,1.6,451.2,0.5,676.7,0.6
			c80.5,0,131.7,51,131.7,131.2c0,503.5,0,1006.9,0,1510.4c0,80.1-51.3,131-131.8,131c-226.5,0-453.1,0-679.6,0
			c-78.5,0-130-51.3-130-129.6C759.5,1815.3,759.5,1562.8,759.5,1310.3z M1616.9,1941.1c0-421,0-840.2,0-1259.9
			c-258.3,0-515.7,0-773.2,0c0,420.5,0,839.8,0,1259.9C1101.7,1941.1,1358.7,1941.1,1616.9,1941.1z M1229.8,1995.4
			c-42.2,0.1-75.7,33.7-75.5,75.9c0.1,42,34.3,75.9,76.1,75.7c41.7-0.2,76.1-34.8,75.9-76.3
			C1306.1,2028.9,1272,1995.3,1229.8,1995.4z M1230.2,563.3c22.5,0,45-0.1,67.5,0c8.3,0,15.3-0.6,15.4-11.9
			c0.1-10.9-6-12.5-14.8-12.5c-45.5,0.1-91,0.2-136.5,0c-9,0-14.8,2-14.7,12.6c0.1,11.1,7.1,11.8,15.5,11.8
			C1185.2,563.2,1207.7,563.3,1230.2,563.3z"/>
	</g>
	<g>
		<path class="st2" d="M2081,498.2c11.6,0.6,23.2,1.3,34.8,1.9c4.1,0.2,8.2,0.1,12.3,0.2c19.1,0.7,24.4,5.6,24.8,24.7
			c1.1,44.9,2.4,89.8,2.5,134.6c0.4,263.2,0.2,526.4,0.8,789.7c0.1,23.3-10.3,32.1-31.9,32.2c-54.1,0.4-108.3,1.9-162.4,1.9
			c-180.3,0.2-360.6,0-540.8-0.3c-19.1,0-38.3-1.8-57.3-3.6c-10.1-1-17.2-10.4-17.5-20.6c0-0.7,0-1.4,0-2.1
			c0.3-305,0.5-610.1,0.8-915.1c0-34.1,7.6-41.1,42-41.5c25.7-0.3,51.4-0.6,77.1-1c2.7,0,5.4-0.7,8-1.1
			C1676.5,498.2,1878.8,498.2,2081,498.2z M2099.6,988.8c0.1,0,0.2,0,0.3,0c0-88.1,0.1-176.2,0-264.3c-0.1-45.6-0.3-91.2-0.9-136.8
			c-0.3-20.8-11.2-31.5-31.7-32.5c-11.6-0.5-23.3-1.2-34.9-1.2c-174.8-0.2-349.6-0.4-524.4-0.5c-27.4,0-54.8,0.6-82.2,1.6
			c-14.2,0.5-20.3,7-21.3,21.2c-1.1,15.7-2.1,31.5-2.1,47.2c-0.3,224.8-0.4,449.7-0.3,674.5c0,35.3,0.9,70.6,2.1,105.8
			c0.4,13,9.7,21.1,22.7,21.7c15.7,0.8,31.5,1.8,47.2,1.8c118.3,0.2,236.5,0.5,354.8,0.2c82.9-0.2,165.9-1.2,248.8-2.1
			c15.6-0.2,19-4.1,19.9-19.7c0.8-14.7,2-29.4,2-44.1C2099.7,1237.7,2099.6,1113.3,2099.6,988.8z"/>
		<path class="st2" d="M347,1499.9c4.3-16.1,11.8-28.6,30.3-31.5c23.9-3.7,39,5.6,43.5,29.1c4.6,23.5,6.5,47.6,12.8,70.6
			c24,86.9,80.3,145.7,165.8,171.3c74.3,22.2,141.6,1.5,198-51.5c48.5-45.6,76.8-101.5,82.6-168.4c0.7-7.8,2.1-15.6,3.6-23.3
			c3.8-19.5,17.7-30.3,37.1-29.1c19.1,1.2,34.5,16.1,35.1,35c1.7,52.9-10.3,102.9-36.7,148.5c-44.7,77.2-109,129.8-196.6,151.9
			c-33.9,8.5-35.8,11.1-36.2,45.9c-0.2,18.5-0.4,37-0.1,55.5c0.3,16.7,8.3,25.9,25.1,26.3c23.6,0.5,47.3-1.3,70.9-1.1
			c19.8,0.2,39.7,1.3,59.5,3c14.3,1.2,22.5,10.7,23.8,25.1c0.1,0.7,0.1,1.4,0.2,2.1c2.4,32.8-6.3,43.5-39.2,44.2
			c-47.3,0.9-94.6,0.7-141.9,0.7c-58.3,0.1-116.5,0-174.8-0.2c-12.7-0.1-25.4-0.6-38-1.6c-26.7-2.1-39.1-19-33.6-45.2
			c3.1-14.9,11.4-24.3,26.7-25.3c25.6-1.7,51.3-1.5,77-2.1c19.9-0.5,39.7-1.2,59.6-1.6c9.4-0.2,15.3-4.3,15.4-14
			c0.4-27.4,1.2-54.8,0.2-82.1c-0.6-16.6-10.1-26.3-26.5-29.4c-92.4-17.9-157.3-73.2-205-151.2c-21.9-35.9-31.3-76.3-36.5-117.7
			c-0.5-3.6-1.4-7.2-2.1-10.8C347,1515,347,1507.5,347,1499.9z"/>
		<path class="st2" d="M487,1374.1c0-39.8-0.7-79.5,0.1-119.2c1.7-83.1,76-157.6,159.3-159.7c88.9-2.2,157,64,168.9,143.3
			c1.8,12.2,2.2,24.6,2.2,36.9c0.2,71.3-0.1,142.6,0.2,213.8c0.2,37-9.2,70.8-30,101.6c-62.6,92.3-191.7,97.6-263.3,10.8
			c-25.3-30.7-36.4-66.4-37.4-105.3C486.2,1455.6,487,1414.8,487,1374.1z"/>
		<path class="st2" d="M958.2,792.4c0-8.1,0.2-16.3,0-24.4c-0.6-22.6-1.5-45.2-2-67.8c-0.2-9.9-6-14.6-14.9-14.8
			c-46-0.9-91.9,0.8-136.1,15.1c-47.2,15.3-72.7,51.2-87.9,96.1c-13.3,39.2-18.2,79.9-20.7,121c-1.2,19.1-2.6,38.3-4,57.4
			c-0.7,9.5-5.7,15.7-15.5,15.7c-18.5-0.1-37-0.9-55.4-1.7c-5.8-0.3-9.1-3.5-9.2-10c-1-70.4,2-140.2,21.3-208.6
			C655,694.8,705,649.2,780.2,632.5c36.9-8.2,75.1-10.5,112.7-14.8c14.3-1.7,28.8-1.4,43.1-2.3c15-1,19.6-5.5,20.1-20.3
			c0.8-26.4,1.1-52.8,1.8-79.2c0.3-10.6,2.9-12.2,12.5-8c4,1.8,7.9,4.1,11.5,6.7c52.5,38.4,104.9,77,157.4,115.5
			c2.2,1.6,4.3,3.4,6.4,5.1c8.3,6.9,8.6,9.7-0.3,16.6c-55.8,43.1-111.8,86.1-167.7,129.1c-5.4,4.2-10.9,8.2-16.3,12.3
			C960.3,792.9,959.2,792.7,958.2,792.4z"/>
		<path class="st2" d="M1435.2,1714.4c0,27.3-0.1,52.6,0,77.9c0.2,29,2.9,32.3,31.9,30.7c33.4-1.8,67.1-3.1,100.1-8.6
			c53.9-9,90.3-41.5,110.6-92c15.2-37.8,21.8-77.5,24.7-118c1.6-22.2,2.4-44.5,4.2-66.6c1.2-14.6,5.6-18.7,20.1-19.1
			c14.7-0.4,29.5-0.5,44.2,0.2c15.1,0.7,18,3.8,17.8,18.8c-0.3,21.6-0.7,43.2-2.1,64.7c-3.1,45.4-8.5,90.5-21.7,134.4
			c-24.8,82.3-80.8,129.3-164.1,143.2c-42.1,7-85,9.8-127.6,12.5c-34.8,2.2-35.9,1.8-37.5,36.4c-0.5,12-0.6,24-0.7,36
			c-0.1,11.9,0,23.9,0,37.4c-3.6-1.7-5.7-2.3-7.4-3.5c-55-41.4-110-82.8-164.9-124.3c-10.4-7.8-10.5-11-0.9-18.9
			c56.1-46.1,112.3-92.1,168.6-138.1C1431.4,1716.6,1432.6,1716.1,1435.2,1714.4z"/>
		<path class="st2" d="M1736.4,1117.3c66.2,0,132.3-0.2,198.4,0.1c18.8,0.1,20.7,2.5,20.7,20.9c0,7.9-0.3,15.8-0.4,23.6
			c-0.1,10.6-5.6,15-16,14.9c-19.5-0.1-39.1,0.6-58.6,0.6c-110.7,0.3-221.4,0.6-332.2,0.6c-27.9,0-28.8-1.3-29.1-29
			c-0.3-39.4,3.8-32.2,32-32.5c61.7-0.7,123.4-0.2,185.1-0.2C1736.4,1116.7,1736.4,1117,1736.4,1117.3z"/>
		<path class="st2" d="M1747.3,983.5c-59.3,0-118.5,0.2-177.8-0.2c-13.3-0.1-26.6-2-39.8-3.5c-9.2-1.1-12.5-6.9-11.6-16
			c0.8-8.5,0.8-17.1,1.3-25.6c0.7-11.9,4.8-16.3,16.4-16.2c131.8,0.1,263.7,0.3,395.6,0.7c20.8,0.1,23.7,3.6,24,25
			c0.1,6.2,0.3,12.4-0.2,18.5c-1,12-7.2,17.4-18.9,17.4c-63,0-126,0-189.1,0C1747.3,983.6,1747.3,983.6,1747.3,983.5z"/>
		<path class="st2" d="M1738.6,707.9c66.8,0,133.6-0.1,200.3,0.1c13.6,0,16.4,3.5,16.6,17.5c0.1,7.5,0.1,15.1,0,22.6
			c-0.2,16.3-2.5,18.9-19.2,19.2c-25.7,0.5-51.4,0.7-77.1,0.7c-100.7-0.1-201.4-0.2-302.1-0.6c-8.5,0-17.1-1-25.5-2.3
			c-11.3-1.8-14.2-6.4-13.2-17.8c0.6-6.8,0.8-13.7,0.9-20.5c0.4-16.6,3.5-20.1,19.8-20.2c66.4-0.2,132.9-0.1,199.3-0.1
			C1738.6,707,1738.6,707.5,1738.6,707.9z"/>
	</g>
	<g>
		<path class="st2" d="M1692,2242.5c-100.4,0-200.9,0-301.3,0c-2.6-5-4.4-10.5-7.8-14.8c-89.7-115.1-179.5-230-269.3-344.9
			C994,1729.4,874.4,1576.1,754.4,1423c-9-11.4-13.2-22.8-12.9-37.5c0.9-40.2,0.3-80.3,0.3-120.5c0-22.1,0-22.1,21.4-22.1
			c56-0.1,112.1,0.4,168.1-0.6c87.6-1.6,172.7-16.1,250.4-59.1c97-53.7,155.9-134,166.8-246.3c2.2-22.7,1.6-22.8-21.4-22.8
			c-206.7,0-413.4,0-620,0c-6.4,0-12.8-0.8-21.4-1.4c3.6-6.2,5.5-9.8,7.7-13.3C723,853,753.1,807,781.8,760.2
			c8-13,17.1-17.1,32-17.1c163.3,0.5,326.7,0.3,490,0.3c6.5,0,13-0.9,21.4-1.6c-2.5-6.7-3.7-11.2-5.7-15.2
			c-23.9-48.3-59.1-86-106-112.5c-60.7-34.3-127.4-48.9-195.8-52.1c-90.2-4.2-180.6-4.2-271-5.9c-21.1-0.4-42.2-0.7-63.4-1
			c0-1.1,0-2.1,0-3.2c4-4.7,8.7-9,12-14.1c33.1-51.3,66-102.6,99-154c373.2,0,746.4,0,1119.6,0c-1.4,5.2-1.6,11.2-4.3,15.5
			c-30.1,47.8-61,95.2-90.9,143.1c-6.4,10.2-13.4,14-25.5,13.9c-87.7-0.5-175.4-0.3-263.2-0.2c-5.3,0-10.6,0.7-16.1,1.1
			c0.6,3.6,0.4,4.8,1,5.6c2.4,3.5,4.9,6.8,7.4,10.2c33.2,45,55.5,94.9,64.2,150c2.6,16.4,8.1,20.8,23.9,20.7
			c95.1-0.6,190.3-0.3,285.4-0.3c6,0,12.1,0,19.8,0c-1.7,5.5-2,8.2-3.3,10.2c-32.4,50.8-64.6,101.7-97.8,151.9
			c-3.3,5-13.1,8.2-19.9,8.2c-59.7,0.6-119.4,0.9-179.1,0c-14.5-0.2-19.6,5.1-21.4,18.4c-6,43.7-19.3,85.4-38.3,125.2
			c-56.3,117.9-148.9,198-265.4,252.4c-80.7,37.7-166,58.6-254.8,65.4c-6.3,0.5-12.6,2.1-21.4,3.5c5.1,6.9,8,11.1,11.2,15.2
			c203.7,258.6,407.4,517.1,611.1,775.7C1655.4,2193.5,1673.6,2218.1,1692,2242.5z"/>
		<path class="st3" d="M794.4,383.8c-33,51.4-65.9,102.8-99,154c-3.3,5.1-8,9.4-12,14.1c0-56,0-112.1,0-168.1
			C720.4,383.8,757.4,383.8,794.4,383.8z"/>
	</g>
	<g>
		<path class="st2" d="M968.9,843.7c172.1,0,344.2,0,516.3,0.1c5.9,0,12.3,0.6,17.7,2.8c7.3,3,10.8,9.6,10.8,17.7
			c0,38.3,0,76.6,0.2,114.9c0,5.8-2.3,8-7.9,7.9c-8.6-0.2-17.3-0.4-25.9,0c-7.1,0.3-9.5-2.5-9.4-9.5c0.3-25.5,0.2-51.1,0.2-76.6
			c0-13.9-0.1-14-13.8-14c-155.2,0-310.3,0-465.5,0c-170.2,0-340.4,0-510.5,0.1c-13.9,0-13.9,0-13.9,14.3
			c0,144.6-0.1,289.3-0.1,433.9c0,13.5,0,13.5,13.8,13.5c235.6,0,471.3,0,706.9,0c13.2,0,13.2,0.1,13.2,12.8
			c0,54.3-0.3,108.6,0.3,162.8c0.1,10.1-3.2,12.2-12.5,12.1c-49.8-0.4-99.6-0.2-149.4-0.2c-13.1,0-13.4,0.3-13.4,13.4
			c0,27.5,0.3,54.9-0.2,82.4c-0.1,8.7,2.7,11.5,11.5,11.9c43.3,2.1,86.7,4.6,128.9,16.1c6.7,1.8,13.4,4.4,19.3,7.9
			c9.8,5.8,10.1,14.1-0.2,18.6c-13,5.7-26.8,10.8-40.7,13.1c-93.4,15.6-187.5,15.6-281.7,8.8c-33.8-2.4-67.4-5.6-99.7-16.7
			c-7.5-2.6-16.8-5-17-14.5c-0.2-8.5,8.4-11.9,15.5-13.4c26.7-5.7,53.5-11.7,80.5-15.6c20.5-3,41.3-3.3,62-4.4
			c5.8-0.3,7.8-2.8,7.8-8.3c-0.1-30.3-0.2-60.7,0-91c0-8.1-4.8-8.2-10.7-8.2c-78.2,0.1-156.5,0-234.7,0c-72.5,0-145,0-217.4-0.1
			c-17.3,0-25.5-8.4-25.5-25.8c0-213.3,0-426.6-0.1-639.8c0-18.9,8.2-27.1,27.4-27.1C623.5,843.6,796.2,843.6,968.9,843.7
			C968.9,843.6,968.9,843.7,968.9,843.7z"/>
		<path class="st2" d="M1678.7,1705.4c-5.7,0-9.7,0-13.8,0c-117.8,0-235.6-0.3-353.4,0.3c-33.8,0.2-60.9-19.3-70.3-49.7
			c-1.9-6.3-2.2-13.2-2.2-19.8c-0.1-180.4,0.2-360.8-0.3-541.2c-0.1-37.7,30.1-70.1,70.6-70.1c158,0.1,316.1,0.1,474.1,0
			c43.6-0.1,72.8,36.2,71,70.7c-1,19.4-0.3,38.9,0.1,58.4c0.1,6.9-2,9.8-9.2,9.6c-30.6-1-24.6,3.9-25.2-24.3
			c-0.2-7-0.1-14.1-0.1-21.1c-0.1-13-0.1-13-13.6-13c-70.6,0-141.1,0-211.7,0c-102.8,0-205.6,0-308.4,0c-13.6,0-13.5,0-13.5,13.9
			c0,143.7,0,287.3,0,431c0,11.9,0.1,12.1,12.4,12.1c122.3,0,244.6,0.1,366.8,0.1c12.8,0,12.8,0,12.8,13.2c0,25.2,0.3,50.4-0.1,75.7
			c-0.3,17,3.3,32.9,11.8,47.6C1677.2,1700.1,1677.4,1701.7,1678.7,1705.4z M1576.6,1624.5c0.2-16.8-13.2-30.7-29.8-30.8
			c-16.5-0.1-30.2,12.9-30.6,29.1c-0.4,17.2,13.3,31.9,29.9,32.1C1562.6,1655.1,1576.4,1641.3,1576.6,1624.5z M1546.3,1056.3
			c-13.4,0-26.8-0.1-40.2,0c-9.1,0.1-15.1,5.3-15,12.6c0.1,6.9,5.8,12.2,14.4,12.3c27.1,0.2,54.2,0.2,81.3,0
			c9.4-0.1,14.9-5.1,14.8-12.7c-0.1-7.5-5.7-12.1-15.1-12.2C1573.1,1056.2,1559.7,1056.3,1546.3,1056.3z"/>
		<path class="st2" d="M1702.7,1452.6c0-65.1,0.9-130.3-0.4-195.4c-0.7-34.6,25.5-56.4,56.3-56c61,0.9,122,0.2,182.9,0.3
			c34.2,0,55.8,21.4,55.9,55.4c0.1,131.5,0,263.1-0.1,394.6c0,32.4-20.9,53.7-53.1,53.8c-63.2,0.2-126.4,0.2-189.7,0
			c-31.1-0.1-51.7-20.6-51.8-51.6C1702.5,1586.7,1702.7,1519.6,1702.7,1452.6z M1727.2,1430.3c0,52,0,104.1,0,156.1
			c0,13.4,0.1,13.5,13.1,13.5c72.4,0,144.9,0.1,217.4,0.1c14.4,0,14.5-0.1,14.5-14.3c0-104.4-0.1-208.7,0.1-313.1
			c0-9-2.6-12.3-12-12.3c-74.1,0.3-148.1,0.3-222.2,0.1c-8.1,0-11.2,2.3-11.2,10.9C1727.4,1324.3,1727.2,1377.3,1727.2,1430.3z
			 M1872.1,1645.6c0-12.5-9.7-22.8-21.8-23.1c-12.4-0.3-23.4,10.3-23.6,22.7c-0.2,12.1,10.8,23.1,23.2,23.2
			C1862,1668.4,1872.1,1658.1,1872.1,1645.6z M1850.2,1228.2C1850.2,1228.2,1850.2,1228.2,1850.2,1228.2c-8-0.1-16-0.8-23.8,0.3
			c-3.3,0.4-6,4.7-9,7.2c2.9,2.3,5.8,6.4,8.8,6.5c15.6,0.7,31.2,0.7,46.8,0c3.2-0.2,6.1-4.7,9.2-7.3c-3.3-2.3-6.4-5.9-10-6.4
			C1865,1227.5,1857.6,1228.2,1850.2,1228.2z"/>
	</g>
	<g>
		<path class="st2" d="M1096.7,2355.8c-16.9,0-33.9,0-50.8,0c-5-7.1-9.8-14.2-14.9-21.2c-12.2-16.6-24.8-32.9-24.3-55
			c0.7-33.9,0.8-67.7,1.9-101.6c4.8-146.2,11.9-292.4,14.4-438.7c2.6-153.1,0.8-306.3,1.3-459.5c0.1-46.3,1.6-92.6,1.8-138.9
			c0-3.6-4.5-7.1-6.9-10.7c-2.7,2.9-7.4,5.6-7.6,8.7c-2.5,27.3-4.7,54.6-6.1,81.9c-0.9,16.8-3.2,20.5-20.5,21
			c-21.8,0.6-43.5,0.2-65.3,0.3c-28.2,0.1-28.9,0.1-26-28.2c7.7-75.3,16.3-150.4,23.9-225.7c3.6-35.8,13-68.9,33.3-99.4
			c17.1-25.7,39.7-44.1,66.1-58.3c32.2-17.4,68.2-23.2,103.7-25.2c57-3.1,114.4-3.1,171.5-1.8c38.9,0.9,76.7,10.8,110.8,30
			c49.1,27.8,75.8,72.6,85.6,126.5c9.9,54.2,16.6,109,23.4,163.7c5.5,43.5,9.3,87.3,13.5,130.9c4,41.7,7.4,83.5,11.7,125.2
			c0.5,4.5-0.5,129.1-3.4,132.3c-6.1,6.9-10.7,15.4-17.5,21.3c-13,11.4-28,17.5-45.6,9.8c-22.8-9.9-32.4-30.1-36.6-51.9
			c-5.4-28.4-7.5-57.4-10.5-86.2c-6.8-64.1-13.3-128.2-20-192.2c-0.7-6.8-1.1-13.8-2.8-20.3c-1.1-4.2-4.5-7.7-6.8-11.5
			c-2.4,4.2-6.2,8.2-6.8,12.6c-1.1,8.3-0.5,16.9-0.4,25.3c5.8,272,11.7,544.1,17.7,816.1c1.6,73.8,2.4,147.6,6.2,221.2
			c1.9,35.8-7.5,64.7-33.4,88.9c-2.6,2.4-3,7-4.5,10.5c-16.9,0-33.9,0-50.8,0c-3.6-3.8-6.9-8-10.8-11.4c-5.4-4.6-14-7.3-16.6-13
			c-6.6-14.1-12.9-29-15.2-44.3c-5-33.4-7.5-67.1-11-100.7c-7.9-76.1-15.7-152.2-23.8-228.3c-4.9-46.5-10.4-92.9-15.3-139.3
			c-3.3-30.8-6.1-61.6-9.2-92.3c-0.7-7.2-1.3-14.5-2.9-21.5c-0.7-3-3.8-5.5-5.8-8.3c-2.5,2.7-6.4,5-7.2,8.1
			c-3.3,13.7-6.5,27.5-8.1,41.5c-4.9,42.3-9.1,84.8-13.6,127.2c-7.3,69.3-14.3,138.6-21.8,207.9c-7.8,71.2-16.6,142.4-24,213.6
			c-2.4,23-10.1,40.8-32.3,50.7C1100.8,2347.2,1099.1,2352.4,1096.7,2355.8z"/>
		<path class="st2" d="M1263.3,418.3c34.3,11.5,61,33.5,80.7,62.5c24.4,35.9,36,76.7,27.3,120.2c-3.6,17.7-12.9,34.2-20,51.1
			c-10.9,25.9-31.3,43.6-54.2,58.1c-13.1,8.3-27.7,15.2-42.6,19.4c-32.8,9.3-66.6,9.7-99.1-0.7c-39.6-12.7-71.2-35.8-94.1-72.4
			c-20.6-32.9-28.2-67.4-22.9-104.6c2.4-17.1,8.5-34.4,16.2-50c12.5-25,30.1-46.9,54.3-61.7c15.7-9.5,32.2-18.1,49.4-24.7
			C1165.6,412.6,1256.3,415.9,1263.3,418.3z"/>
	</g>
	<g class="st2">
		<path d="M1198.4,2274.6c-8.4-1.7-17.1-2.5-25.6-2.9c-40.9-1.8-82.1-1.1-122.6-5.9c-27.5-3.3-54.2-13.9-81-22
			c-19.3-5.9-35.1-17.6-50-31.1c-22.7-20.4-34.8-46.1-35.8-75.7c-1.2-33.5,0.4-67.1,1.9-100.6c1.7-36.7,4.1-73.4,7.2-110.1
			c2.4-29.3,6-58.5,9.4-87.7c1-8.9,6.6-13.1,15.3-11.8c10.1,1.5,20.2,3.5,30.1,5.8c8.8,2.1,13.7,9.2,11.8,18.1
			c-11.2,50.8-11.8,102.7-15.7,154.3c-3,39.8-6.8,79.7-8.3,119.6c-1,27.5,13.2,47,37.3,61c36.4,21.1,76.2,27.2,116.9,28.9
			c55,2.2,110,2.9,165,3.6c34.2,0.5,68.5,1,102.7-0.5c37.7-1.7,75.5-3.9,112.8-9.2c25.1-3.5,49.7-12.1,70.8-27.1
			c10.3-7.3,18.3-16.8,22.6-29.9c7.1-21.7,6.2-43.6,5.1-65.6c-1.9-39.6-4.5-79.2-7.4-118.8c-0.4-5.8-3.8-11.3-5.5-17.1
			c-2.2-7.5-5.8-15.2-5.9-22.8c-0.8-60.8-5.5-121.4-12.1-181.8c-4.3-39.7-6.4-79.7-9.7-119.6c-3.3-39.5-6.7-79-10.1-118.5
			c-0.4-4.8-1.4-9.5-1.9-14.3c-1.1-11.1,6.2-20.3,17.1-21.6c7.9-0.9,15.9-2,23.8-2.1c12.9-0.2,16.8,3.6,17.4,16.3
			c1.4,26.5,2.1,53.1,3.8,79.5c1.4,22.3,3.9,44.6,6,66.9c3.6,38.2,7.7,76.4,10.7,114.6c3.9,49.4,7.1,98.9,10.5,148.3
			c0.2,3,0.3,6.1,0.2,9.1c-0.5,21,1,24.3,21.2,24.8c22.6,0.6,45.3-0.9,68-2.2c9.3-0.5,13.4-6.7,13.4-17.7
			c-0.1-33.9-0.6-67.8-0.5-101.7c0.2-75.2,1.7-150.4,0.7-225.6c-1-72.3-3.8-144.6-7.3-216.8c-1.4-27.7-6.3-55.3-10.8-82.7
			c-4.8-29-8.8-58.4-17.2-86.4c-8.8-29.3-23-56.6-49.1-75.7c-16.2-11.8-33.4-20.8-52.4-27.2c-18.1-6.1-35-16-53.3-20.9
			c-32.7-8.7-66-15-99.2-22c-10.1-2.1-20.4-7.2-30.9-1.8c-5.6,2.9-11.9,5.5-16.1,9.9c-23,24.4-45.4,49.4-68.1,74.2
			c-20.7,22.6-41.2,45.5-62.5,67.6c-16.4,17-40.8,17-57.1-0.2c-26.6-28.1-52.2-57.1-78.1-85.8c-15.4-17.1-31.1-34-46-51.5
			c-9.6-11.3-21.7-14.7-35.3-12.7c-36.1,5.3-71.4,13.7-106,25.8c-25.6,8.9-49.7,20.3-72,35.2c-17.7,11.9-33.2,26.4-44.7,45.2
			c-16.1,26.2-23.3,55-28.4,84.6c-5.8,33.4-13.1,66.7-16.2,100.3c-4.7,51.9-6.3,104-9.1,156.1c-0.3,4.7,0.9,9.5,1.3,14.3
			c0.8,9.6-5.7,17.3-15,17.3c-10.2,0-20.5-0.4-30.7-1c-9.7-0.6-14.7-6.1-14.3-15.5c1.6-38,2.3-76.1,5.1-114
			c2.9-39.8,6.2-79.8,12.4-119.2c4.8-30.8,15.8-60.6,21.2-91.4c3.5-20.1,11.5-38.3,21-54.9c10.8-18.8,26.5-35.3,42.3-50.3
			c26.7-25.3,59.1-42.6,93.1-55.6c30.6-11.7,62.6-20.2,94.5-28.1c17.5-4.3,36.1-5.5,54.2-6.4c36.1-1.8,61,18.1,83,44
			c21.3,25.1,43.8,49.1,65.8,73.6c7,7.8,14.5,15.3,21,23.6c7.2,9,18.3,9.4,25.9,0.6c28.4-32.9,56.7-65.8,85.4-98.4
			c9.7-11,19.7-21.9,30.9-31.2c19.8-16.7,43.1-23.6,68.8-17.8c36.2,8,72.4,16,108.1,25.6c17.8,4.7,34.8,12.4,51.8,19.4
			c14.8,6.1,29.2,12.9,43.6,19.8c29.7,14.1,54.8,33.9,73,61.6c8.3,12.7,15.7,26.1,23.4,39.2c1,1.6,1.9,3.4,2.4,5.2
			c5.7,22.9,11.5,45.8,16.8,68.8c4.3,19,9,38,11.6,57.3c13.3,97.8,16.5,196.2,16,294.9c-0.4,70.1,1.5,140.1,2.2,210.2
			c0.5,47,0.9,94,0.6,141.1c-0.1,17.2-2.6,34.3-19.9,43.9c-5.7,3.1-11.9,6.7-18.1,7.3c-29,2.4-58.1,4.1-87.2,5.4
			c-16.1,0.7-21.5,6.7-19.8,22.9c4.8,44.2,8.3,88.5,5.3,133c-2.4,35.8-20,63.1-47.3,85.1c-34.5,27.8-75.3,38.5-118.3,41.4
			c-53.6,3.5-107.3,5.4-160.9,8.5c-3.8,0.2-10.1,0.1-21.7,0.7c-1.8,0.1-3.6,0-5.4-0.1c-4-0.4-7.3-0.2-9.5-0.4
			c-10.1-1-20.2-1.6-30.3-1.1C1228.3,2275.5,1201.2,2275.2,1198.4,2274.6z"/>
		<path d="M1266.2,373c5.6,2.2,11.8,3,17.7,4c29.1,5.2,56.1,16.2,80.1,32.7c22.6,15.5,41.6,34.9,55.8,59.3
			c29.3,50.2,29.4,103.8,21.9,158.7c-2.7,19.3-6,38.6-10.4,57.5c-4.3,18.6-10.4,36.8-16,55.1c-0.8,2.6-3.3,4.7-4.8,7
			c-1.9,2.9-5.3,5.9-5.3,8.9c0.1,16.6-10.3,29.2-15.9,43.5c-7.7,19.7-20.2,37-34.4,52.3c-16.3,17.5-32.5,35.9-51.7,49.6
			c-46,32.8-96.4,43.2-152.2,25.3c-48.4-15.5-79.6-49.9-107.5-89c-7.7-10.8-15.1-22-21.5-33.7c-3.6-6.5-4.5-14.5-7.1-21.7
			c-5.4-14.9-12.2-29.5-16.3-44.7c-6.3-23.7-11-47.8-16.2-71.9c-8.3-38.5-8.8-77.8-6-116.6c2.4-34,15.8-65.2,37.4-92.5
			c17.6-22.2,38.9-39,63.8-52.4c26.2-14.1,53.4-24,82.9-27.9c5.4-0.7,10.9-1.5,15.8-3.5C1178.9,372,1263.4,371.9,1266.2,373z
			 M1032.4,583.7c-0.5,52.2,7.7,103,24.9,152.4c1.4,3.9,1.7,8.2,3.2,12c6.2,16,11.3,32.6,19.4,47.6c10.7,19.7,26,36.1,42.9,51
			c15.4,13.5,32.4,24.8,52,29.3c41.9,9.6,79.4-2.3,110.5-31c15.8-14.6,29.1-32,42.8-48.8c6.8-8.3,13.1-17.5,17.4-27.3
			c7.3-16.5,13.5-33.6,19.1-50.8c8.2-25.1,18-50.1,22.3-76c4.9-29.5,6.1-59.8,6.1-89.8c0-42.9-20.6-76.1-56.2-98.7
			c-23.5-14.9-50.4-24.2-77.8-28.8c-40-6.7-79.9-6.1-119.2,8.5c-26.6,9.9-50.8,22.3-70.3,42.8c-11,11.5-18.9,24.9-26.2,39.4
			c-9.6,19.1-10.6,38.5-11,58.6C1032.3,577.3,1032.4,580.5,1032.4,583.7z"/>
		<path class="st4" d="M1231.2,2275.4c10.1-0.5,20.3,0.1,30.3,1.1C1264.1,2276.7,1228.3,2275.5,1231.2,2275.4z"/>
		<path d="M966.1,1800.2c-68.1-1.5-136.2-2.2-204.2-4.8c-27.4-1-45.8-18.5-61.6-40.2c-12.7-17.5-13.5-36.6-13.7-56.4
			c-0.3-37.7-0.8-75.5-1.1-113.2c0-4.4,0.7-9,1.9-13.2c3.5-12.5,7.3-15.3,20.4-15.6c70.7-2.1,141.3-3.6,212-6.5
			c37-1.5,73.9-5.6,110.8-8.3c22.7-1.7,45.3-4.4,68-4.1c21,0.3,33.7-10.6,45-25.7c12.1-16.1,24.7-31.8,37-47.7
			c12.7-16.4,25.3-32.8,38-49.2c17.6-22.7,35.3-45.2,52.8-68c10.9-14.2,21.3-28.7,31.9-43c17.7-23.8,35.5-47.5,53-71.4
			c11.1-15.1,21.8-30.6,32.9-45.8c13.2-18,26.7-35.7,39.8-53.8c6-8.2,11.1-17.1,17-25.4c5-6.9,10-14.1,16.4-19.7
			c3.1-2.7,9.6-3.7,13.9-2.7c13.9,3.2,27.6,7.3,41.1,11.8c5.1,1.8,11.1,4.8,13.7,9.1c2.2,3.6,2.2,11-0.2,14.7
			c-6.1,9.5-14.4,17.7-21.2,26.8c-16.7,22.2-32.8,44.8-49.6,66.8c-10.6,13.9-22.3,27.1-33.3,40.8c-12.7,16-25,32.3-37.6,48.3
			c-17.6,22.3-35.4,44.4-52.9,66.8c-11,14.1-21.1,28.8-32.2,42.8c-21.7,27.6-43.7,54.9-65.8,82.1c-9.4,11.6-19.7,22.7-29.3,34.2
			c-6.7,8-5.3,18.3,3.5,21.8c19.9,7.8,33.6,23.3,46.4,38.8c19,23.1,35.9,47.8,48,75.5c10.8,24.7,22.8,48.9,33,73.8
			c2.3,5.6,1.6,14.5-1.4,19.9c-7.1,13.1-18,21.3-34.4,22.1c-90.1,4.5-180.1,9.9-270.2,14.4c-22.6,1.1-45.4,0.2-68.1,0.2
			C966.1,1797.6,966.1,1798.9,966.1,1800.2z"/>
		<path d="M1299.3,1538c27.1-3.3,52.6,2.8,75.7,16.3c11.2,6.5,21.2,16.4,29,26.8c8.7,11.5,15.3,24.9,20.8,38.3
			c10.2,25.1,11.2,50.2-1.1,75.9c-9,18.8-19.5,35.7-35.5,49c-5.5,4.5-11.6,9.4-17.8,5.4c-4-2.6-5.6-9.6-7.3-15
			c-3-9.3-5.5-18.7-7.6-28.2c-0.8-3.8-1.2-8.3,0.2-11.7c2.1-5.3,5.3-10.4,9.1-14.6c11.3-12.3,12.9-27,10.8-42.2
			c-0.9-6.2-4.8-12.5-8.8-17.5c-13.3-16.7-29.2-28.6-52.4-26c-11.9,1.4-20-3.3-27-13.9c-6.6-9.9-17.1-17.1-25.4-25.9
			c-3-3.2-4.6-7.6-6.9-11.5c4.2-1.8,8.3-4.8,12.6-5.1C1278.1,1537.5,1288.7,1538,1299.3,1538z"/>
	</g>
</g>
<g>
	<path class="st0" d="M1387,2186.4c-3.5-1.1-7-3-10.6-3.3c-117.6-9.3-224.9-49.2-325.6-109c-78.6-46.7-149.3-103.6-213.4-168.3
		c-107.9-109.1-214.5-219.6-321.5-329.5c-31-31.8-61-64.5-92.7-95.6c-33.3-32.7-33.9-74.5-10.2-111.8c18.5-29.1,46.6-47.6,75.8-63.8
		c87.9-48.8,173.3-37.3,256.1,13.4c58.9,36,106,85,148.6,138.7c1.7,2.2,3.4,4.4,5.1,6.4c0.4,0.4,1.2,0.5,3.5,1.3
		c0.3-3.8,0.9-7.2,0.9-10.6c0-268.8,0.1-537.5-0.1-806.3c0-47.4,14.5-88.7,49.3-121.5c52.8-49.9,133.4-56.8,194.6-17.3
		c3,2,6.2,3.8,11.1,6.7c0.5-6,1-10,1-13.9c0.4-30.6-0.9-61.3,1.3-91.8c4.9-69.8,57.8-127.3,126.7-140.3c3.2-0.6,6.2-2.6,9.2-3.9
		c13.8,0,27.5,0,41.3,0c3.3,1.4,6.6,3.4,10.1,4.2c61.6,14.4,103.3,51.5,119.6,112.5c6.7,25,4.7,52.4,6.6,78.7
		c0.3,4.3,0.5,8.5,0.9,14.8c59.2-38.5,119.2-44.8,179.2-9.1c60.4,36,80,93.7,75.5,164c5.7-3.7,8.4-5.5,11.1-7.2
		c43.4-27.2,90-34.2,138.3-17.4c67.7,23.5,106.6,80.6,106.6,153.3c0,308.6,0,617.3,0,925.9c0,50.9-6.8,100.8-21.8,149.5
		c-31.3,101.3-89.2,183.8-175.2,245.9c-86.9,62.8-185.7,92.4-291.4,101.5c-7.1,0.6-14,2.6-21,3.9
		C1446.2,2186.4,1416.6,2186.4,1387,2186.4z M1926,1235.4c0-160,0-320.1,0-480.1c0-41.6-24.4-77-62.8-92.1
		c-63.1-24.8-132.9,21.8-133.4,89.8c-0.6,84.3-0.1,168.6-0.1,252.9c0,54.4,0.1,108.8,0,163.1c0,19-10.2,30-27.4,30.8
		c-19.4,0.9-31.5-10.2-31.6-29.6c-0.2-70.2-0.1-140.4-0.1-210.6c0-119.4,0.4-238.8-0.2-358.3c-0.2-42.3-21.7-72.9-59.8-90
		c-35.4-15.9-69.4-10.3-99.7,13.9c-24.9,19.9-37,46.2-37,78.2c0.1,144.9,0,289.8,0,434.7c0,35.8,0,71.6,0,107.4
		c0,12.2-3.4,22.4-15.3,28c-22.3,10.4-43.5-3.4-43.5-28.8c-0.2-90.2-0.1-180.3-0.1-270.5c0-149.7,0-299.4,0-449.1
		c0-43.8-30.3-84.4-70.5-95.3c-65-17.6-126.3,29-126.4,96.5c-0.2,114.3,0,228.5,0,342.8c0,139.7,0,279.4-0.1,419.2
		c0,6.7-0.5,14-3.1,20.1c-5,12.3-19.3,18.9-31.5,16.1c-15.8-3.5-24.2-14.9-24.2-33.6c-0.1-146.9,0-293.9-0.1-440.8
		c0-40.9,0.9-82-1.5-122.8c-2.1-36.2-33.3-70.6-68.1-80.4c-65.7-18.5-127.1,28.6-127.1,97.5c0,292.2,0,584.4,0,876.5
		c0,14.5,0,14.2,14.2,14c74.9-0.7,148.2,9,218.5,36.2c175,67.9,255,224.1,248.4,393c-2,50.1-8.4,100.1-13.5,150
		c-1.1,10.3,2.2,12.1,11.5,12c60.2-1.2,119.3-8.7,177-26.2c82.6-25.1,154.1-67.8,209.9-134.3c66-78.5,97.2-170.1,97.7-272
		C1926.5,1541,1926,1388.2,1926,1235.4z"/>
</g>
<g>
	<path d="M528.1,1914.1c-13-3.2-27-3.8-39.2-8.9c-24.2-10.1-46.7-23.4-59.2-48.2c-11-21.9-24.5-43.1-32.1-66.1
		c-8.3-25.3-12.3-52.2-16.2-78.7c-3.3-22.8-3.8-46-5.4-69.1c-0.3-4.6,0.7-9.4-0.3-13.8c-0.8-3.4-0.3-172.3-0.1-174.6
		c2.1-20.9,3.7-41.8,5.5-62.8c1.7-19.7,3.5-39.3,5.3-59c0.1-1.2,0.7-2.4,1-3.6c3.1-12.5,6.5-25,9.2-37.6c2.4-11.2,3.4-22.7,6.2-33.7
		c4.3-17.3,9.5-34.4,14.6-51.5c4.5-15.1,9-30.3,14.1-45.2c5.2-15,11-29.8,16.7-44.6c9.4-24.3,17.1-49.5,29.1-72.4
		c21.4-41.1,44.9-81.2,68.7-120.9c11.1-18.6,23.6-36.9,38.2-52.7c28.4-30.8,59.1-59,95.5-81.1c35.2-21.4,71.7-37.4,112.3-44.1
		c3.2-0.5,127.1-0.7,131.1,0c12.5,2.4,25.6,2.4,37.6,6.1c24.9,7.7,50.3,15.1,73.7,26.5c32.9,15.9,64.7,34.3,95.9,53.4
		c25.4,15.6,51.4,27.4,81.6,27.5c20.6,0.1,41.2,0.8,61.7-0.2c25.6-1.2,51.8,5.2,76.8-5c15.1-6.2,30.6-11.7,44.9-19.5
		c17.2-9.5,32.7-22.2,50-31.4c19.6-10.3,40.4-18.2,60.7-27.3c33.3-15,67.2-28.1,104.3-30.2c2.6-0.1,122.6-0.1,124.7-0.2
		c20-0.1,37.1,9.6,55.4,15.3c38,11.8,71.2,32.6,101.2,57.3c23.5,19.5,43.6,43.5,63.1,67.3c19,23.1,37.2,47.3,52.1,73.1
		c18.4,31.8,33.8,65.5,49.2,98.9c13.2,28.9,25.1,58.4,36.4,88.1c7.6,20,13.7,40.7,19.7,61.3c4.3,14.8,7.1,30.1,10.9,45
		c4.8,18.8,10.8,37.4,14.9,56.4c4.4,20.2,7.9,40.7,10.3,61.3c2.7,23.3,3.7,46.9,5.4,70.3c0.3,5-0.5,10.2,0.4,15.1
		c0.4,2.4,0.2,172.1-0.1,175.8c-2.2,26.8-3.6,53.6-5.4,80.4c-0.1,1.6-0.5,3.3-0.9,4.9c-3.2,14.6-6.5,29.2-9.5,43.9
		c-2.3,11.2-2.8,22.9-6.5,33.6c-5.4,15.4-12.6,30.2-19.8,44.9c-13.3,27-32.2,48.3-59.8,62c-17.4,8.6-34.6,15.1-54.3,14
		c-3-0.2-35.4,0.7-38.8-0.1c-7.9-2-16.7-1.5-23.8-4.8c-15.9-7.5-32-15.4-46.3-25.6c-29.5-21-59.2-42.1-86.2-66.1
		c-32.5-29-62.2-61.2-93.2-92c-11.3-11.3-23.4-21.9-33.7-34c-20.5-24.1-38-50.5-64.4-69.4c-20.2-14.5-42.3-22.3-66.6-22.4
		c-185.7-0.3-371.4,0-557.1-0.4c-19.8,0-37.3,6.7-54.4,14.2c-18,7.9-33,19.8-44.6,37.5c-12.6,19.2-29.6,35.9-46.2,52.1
		c-51.1,50-102.9,99.4-154.4,149c-1.5,1.4-3,2.9-4.7,4.1c-15.9,11-31.1,23.1-47.9,32.4c-19.9,11-38.3,26.4-63.3,25.5
		C568.5,1914.1,532.7,1915.2,528.1,1914.1z M809.2,1259.3c0,3.4,0,7.5,0,11.6c0,31.9-0.1,63.8,0.1,95.8c0,3.9,0.7,10.3,2.9,11.2
		c15.5,6.3,31,13.3,47.3,16.5c19.8,3.9,37.9-4.2,55.6-13.2c7.5-3.8,9.1-7.8,9.1-15.2c-0.3-32.3,0.3-64.7-0.4-97
		c-0.2-10.9,3.6-13.6,13.7-13.4c29,0.5,58,0.1,86.9,0.3c3.7,0,7.6,2.1,11,1.3c6-1.3,14.1-2.4,17.1-6.6c5.3-7.4,8.1-16.9,10.7-25.8
		c2.6-8.5,5.9-17.8,4.9-26.2c-1.5-12.7-6.3-25.1-10.1-37.5c-3.2-10.5-16.3-19.6-27.3-19.6c-29.8,0-59.6-0.3-89.5,0.2
		c-9.3,0.1-12.4-2.8-12.2-12.2c0.5-31.5,0-63,0.3-94.5c0.1-8.7-2.8-14.8-11.3-17c-8.7-2.2-18.4-2-26.2-5.8
		c-21.7-10.8-42.4-1.9-63.1,1.6c-9.3,1.6-15.4,7.6-14.9,20.3c1.4,30.2,0.5,60.5,0.5,90.7c0,16.8,0,16.8-17.4,16.8
		c-31.5,0-63-0.3-94.5,0.3c-5.2,0.1-12.8,2.5-14.9,6.3c-5.5,9.9-11.7,21-12,31.8c-0.6,18.8,1.6,38,5.3,56.4
		c3.5,17.3,15.6,24.7,33.5,24.7c23.1,0,46.2,0.1,69.3-0.1C791.7,1260.7,799.9,1259.9,809.2,1259.3z M1608.3,1208.3
		c-44.6-9.1-88.7,50.1-91.4,82c-4.7,55.7,48.9,98.3,86.9,100.3c62.1,3.2,101.9-49.2,100.7-93.9
		C1703.4,1255.5,1666,1203.4,1608.3,1208.3z M1942.6,1175.3c9-43-48.7-92-86.2-91.4c-33.5,0.5-57.4,14.1-78.9,37.7
		c-14.9,16.4-21.1,37.9-20.4,56.4c0.9,23.4,10.2,47.7,29.8,65.1c18.4,16.4,40.3,29.1,64.2,27.2
		C1895.6,1266.7,1943.8,1238.6,1942.6,1175.3z M1608,1126.8c55.3,1.5,95.7-44,96.1-86.5c0.5-61.5-46-97.9-93.3-98.8
		c-42-0.7-96.9,39.7-93.4,96.3C1520.3,1083.1,1555.9,1126,1608,1126.8z"/>
</g>
</svg>
