<?xml version="1.0" encoding="utf-8"?>
<!-- Generator: Adobe Illustrator 23.0.1, SVG Export Plug-In . SVG Version: 6.00 Build 0)  -->
<svg version="1.1" xmlns="http://www.w3.org/2000/svg" xmlns:xlink="http://www.w3.org/1999/xlink" x="0px" y="0px"
	 viewBox="0 0 2500 2500" style="enable-background:new 0 0 2500 2500;" xml:space="preserve">
<style type="text/css">
	.st0{display:none;}
	.st1{display:inline;fill:#999999;}
</style>
<g id="Layer_2" class="st0">
	<rect x="240.89" y="640.1" class="st1" width="1964.67" height="1462.81"/>
</g>
<g id="Layer_1">
	<g>
		<path d="M637.67,1015.61c23.42,17.77,51.26,21.73,79.2,25.48c7.24,0.97,14.37,2.97,21.63,3.44c4.18,0.27,9.47-0.32,12.6-2.7
			c59.84-45.45,140.14-31.45,180.82,18.18c0.14,0.17,0.54,0.12,1.66,0.33c0-5.39,0-10.7,0-15.73c17.04-3.21,33.46-5.37,49.34-9.56
			c15.76-4.15,30.98-10.33,46.56-15.66c6.47,16.5-0.1,42.41-17.63,48.61c-19.68,6.96-39.64,13.12-59.45,19.7
			c-2.06,0.68-3.98,1.8-6.03,2.74c0.64,3.58,1.2,6.74,2.04,11.41c5.73,0,11.6-0.11,17.46,0.03c22.61,0.55,40.72,18.96,41.19,41.57
			c0.35,17.14,0.29,34.3,0.02,51.44c-0.43,26.87-14.47,41-41.36,42.83c-3.14,0.21-24.08,2.32-27.59,2.08c-0.01,0-0.02,0-0.04,0
			c-2.06-0.08-3.81-1.48-4.4-3.45c-1.66-5.6-3.77-11.2-3.84-16.82c-0.44-34.73-0.02-69.46-0.11-104.19
			c-0.09-39.36-32.87-74.43-75.1-78.18c19.36,11.98,36.87,22.82,55.45,34.32c-27.21,16.4-52.64,31.74-79.31,47.81v-25.82
			c-3.84,0-7.25,0.22-10.62-0.04c-24.61-1.85-49.21-3.98-73.84-5.45c-2.71-0.16-7.46,2.83-8.11,5.22
			c-1.85,6.79-2.76,14.02-2.81,21.09c-0.26,35.06-0.1,70.11-0.12,105.17c-0.01,16.75-1.35,18.05-18.48,18.08
			c-6.82,0.01-13.64,0.12-20.45-0.19c-21.99-0.99-37.33-15.44-38.23-37.48c-0.83-20.09-0.88-40.27,0.02-60.35
			c1-22.38,16.71-36.74,39.24-37.65c1.3-0.05,2.6-0.02,3.89-0.03c16.58-0.11,16.58-0.11,18.35-17.14
			c-23.13-5.31-47.57-6.94-67.14-22.32c-5.89-4.63-9.92-11.62-14.81-17.53V1015.61z M716.49,1120.81c-8.42,0-15.99-0.47-23.49,0.15
			c-9.04,0.75-16.07,8.17-16.22,17.24c-0.34,20.81-0.37,41.63,0,62.44c0.16,9.04,5.26,15.62,14.27,17.19
			c8.13,1.42,16.54,1.18,25.43,1.71V1120.81z M949.63,1218.33c6.98,0,13.08,0.3,19.13-0.07c10.98-0.67,18.61-7.45,18.91-18.36
			c0.56-20.39,0.51-40.82-0.06-61.21c-0.24-8.45-5.23-15.03-13.96-16.44c-7.76-1.26-15.77-0.9-24.02-1.28V1218.33z M781.91,1047.98
			h47.95v-13.85C812.24,1034.59,796.23,1037.71,781.91,1047.98z"/>
		<path d="M637.67,1448.18c1.87-6.48,3.7-12.96,5.62-19.42c9.33-31.41,26.97-54.98,59.94-64.65c12.43-3.64,24.55-8.34,36.76-12.68
			c25.03-8.89,34.89-37.01,21.08-59.46c-4.24-6.89-8.22-13.98-11.82-21.23c-8.71-17.53-8.59-17.59,5.7-33.03
			c1.24,2.77,2.26,5.26,3.46,7.66c6.1,12.14,11.13,24.99,18.59,36.23c19.08,28.73,7.4,71.26-24.4,84.41
			c-14.07,5.82-28.31,11.41-42.88,15.76c-24.78,7.41-39.42,23.96-46.27,48.13c-2.12,7.47-2.85,15.33-5.04,22.77
			c-3.06,10.41,0.98,17.99,10.05,21.35c16.61,6.16,33.46,12.63,50.8,15.72c80.04,14.28,160.16,13.87,239.9-2.68
			c12.28-2.55,24.15-7.36,35.95-11.8c9.86-3.71,13.76-11.64,11.78-21.87c-1.96-10.14-3.59-20.54-7.2-30.14
			c-6.93-18.42-19.66-31.89-38.53-38.79c-15.83-5.79-31.88-10.99-47.52-17.24c-24.4-9.74-39.4-37.49-34.17-63.28
			c0.61-3.01,5.05-6.17,8.41-7.44c3.39-1.28,7.63-0.28,8.91-0.28c1.81,12.42,1.8,24.64,5.79,35.37c2.58,6.93,10.1,13.57,17.06,16.98
			c12.43,6.08,25.95,10.12,39.28,14.13c33.55,10.1,53.5,32.81,62.47,65.96c1.94,7.18,2.97,14.6,4.64,21.86
			c3.92,17.01-3.43,28.99-17.04,38c-17.43,11.54-37.29,16.56-57.53,19.77c-21.12,3.35-42.43,5.58-63.64,8.36
			c-2.86,0.38-5.68,1.1-8.52,1.67c-30.53,0-61.05,0-91.58,0c-5.41-0.71-10.8-1.59-16.23-2.09c-33.62-3.11-67.03-7.15-98.86-19.4
			c-15.62-6.01-29.09-14.23-34.94-31.12C637.67,1459.88,637.67,1454.03,637.67,1448.18z"/>
		<path d="M822.78,953.26c0,5.47,0,10.95,0,17.19c3.63,0.16,6.77,0.31,9.91,0.44c30.27,1.31,60.68,1.23,90.75,4.35
			c24.18,2.51,48.89,4.6,71.56,15.14c2.86,1.33,5.69,2.75,8.4,4.34c5.59,3.28,11.85,6.9,9.26,14.62
			c-2.34,6.98-15.79,10.91-23.11,7.91c-22-9-45.05-13.4-68.61-15.46c-29.68-2.6-59.36-5.16-89.05-7.68
			c-2.55-0.22-5.14-0.03-8.79-0.03c-0.26,5.92-0.51,11.48-0.83,18.71c-16.91-10.22-32.55-19.67-49.15-29.69
			c15.86-10.35,30.81-20.1,45.75-29.85C820.18,953.26,821.48,953.26,822.78,953.26z"/>
		<path d="M1599.13,1432.76c1.45,13.43,8.33,16.58,19.01,15.44c7.38-0.79,14.93-0.35,22.39-0.08c9.74,0.35,16.1,6.08,16.48,14.38
			c0.41,8.81-5.68,15.18-15.95,15.9c-6.79,0.48-13.63,0.16-20.45,0.16c-44.16,0.01-88.32,0.01-132.48,0c-2.92,0-5.87,0.14-8.76-0.19
			c-9.62-1.08-15.78-7.3-15.56-15.47c0.22-8.21,6.74-14.31,16.24-14.78c5.83-0.29,11.78-0.74,17.51,0.06
			c10.77,1.5,15.49-3.49,16.61-14.63c-99.51,0-198.92,0-299.01,0c0-136.39,0-271.63,0-407.68c229.8,0,459.78,0,690.4,0
			c0,135.17,0,270.41,0,406.89C1803.59,1432.76,1701.57,1432.76,1599.13,1432.76z M1560.18,1414.96c103.92,0,207.84,0,311.76,0
			c14.02,0,14.48-0.46,14.48-14.11c0-114.31,0-228.63,0-342.94c0-14.57-0.24-14.82-14.69-14.82c-207.52,0-415.03-0.01-622.55,0
			c-14.05,0-14.58,0.55-14.58,15.05c0,113.99,0,227.98,0,341.96c0,14.25,0.6,14.86,14.78,14.86
			C1352.99,1414.96,1456.58,1414.96,1560.18,1414.96z"/>
		<path d="M746.27,973.49c0,9.47,0,16.47,0,21.1c-24.8,6.5-48.83,12.04-72.29,19.4c-7.08,2.22-11.38,1.68-16.27-2.8
			c-6.83-6.25-6.63-13.18,1.79-16.75c11.91-5.04,24.18-9.68,36.74-12.59C712.29,978.13,728.78,976.31,746.27,973.49z"/>
		<path d="M1487.18,1262.37c-9.71,1.22-17.35,2.18-26.12,3.27c5.11,11.59,9.89,22.4,14.96,33.88c-3.15,1.6-5.92,3-9.14,4.63
			c-5.16-11.58-10.1-22.65-15.47-34.68c-6.37,5.87-11.79,10.86-18.35,16.9c0-25.15,0-49.05,0-74.48
			C1451.24,1228.85,1468.6,1245.05,1487.18,1262.37z"/>
		<path d="M1450.18,1157.18c4.46,5.93,8.27,11,12.73,16.93c-2.94,0.91-5.33,1.65-8.02,2.48c-0.24,5.24-0.48,10.34-0.71,15.34
			c-8.25,0.81-8.25,0.81-9.25-15.7c-2.12-0.51-4.39-1.05-7.48-1.78C1441.84,1168.51,1445.75,1163.2,1450.18,1157.18z"/>
		<path d="M1379.12,1240.41c0.77,3.36,1.31,5.7,1.89,8.22c5.48,0.25,10.57,0.49,15.58,0.72c0.81,8.25,0.81,8.25-15.7,9.25
			c-0.5,2.12-1.05,4.39-1.77,7.43c-5.76-4.21-10.91-7.98-17.36-12.69C1367.5,1249.07,1372.71,1245.18,1379.12,1240.41z"/>
		<path d="M1517.07,1240.22c6.44,4.77,11.55,8.55,17.54,12.99c-5.84,4.39-11.1,8.36-17.2,12.95c-0.73-3.07-1.26-5.32-1.58-6.68
			c-5.32-4.43-17.11,4.68-16.87-8.61C1504.7,1245.6,1516.51,1255.15,1517.07,1240.22z"/>
		<path d="M1452.93,1315.83c4.33,6.81-4.12,17.66,10.38,18c-4.48,6.07-8.41,11.39-12.97,17.58c-4.45-5.93-8.4-11.21-12.94-17.27
			c3.09-0.72,5.34-1.24,6.26-1.46C1448.82,1327.39,1438.95,1315.12,1452.93,1315.83z"/>
	</g>
</g>
</svg>
