<?xml version="1.0" encoding="utf-8"?>
<!-- Generator: Adobe Illustrator 23.0.1, SVG Export Plug-In . SVG Version: 6.00 Build 0)  -->
<svg version="1.1" xmlns="http://www.w3.org/2000/svg" xmlns:xlink="http://www.w3.org/1999/xlink" x="0px" y="0px"
	 viewBox="0 0 2500 2500" style="enable-background:new 0 0 2500 2500;" xml:space="preserve">
<style type="text/css">
	.st0{display:none;}
	.st1{display:inline;fill:#999999;}
	.st2{display:inline;}
</style>
<g id="Layer_2" class="st0">
	<rect x="240.89" y="640.1" class="st1" width="1964.67" height="1462.81"/>
</g>
<g id="Layer_1">
	<g class="st0">
		<path class="st2" d="M637.67,1015.61c23.42,17.77,51.26,21.73,79.2,25.48c7.24,0.97,14.37,2.97,21.63,3.44
			c4.18,0.27,9.47-0.32,12.6-2.7c59.84-45.45,140.14-31.45,180.82,18.18c0.14,0.17,0.54,0.12,1.66,0.33c0-5.39,0-10.7,0-15.73
			c17.04-3.21,33.46-5.37,49.34-9.56c15.76-4.15,30.98-10.33,46.56-15.66c6.47,16.5-0.1,42.41-17.63,48.61
			c-19.68,6.96-39.64,13.12-59.45,19.7c-2.06,0.68-3.98,1.8-6.03,2.74c0.64,3.58,1.2,6.74,2.04,11.41c5.73,0,11.6-0.11,17.46,0.03
			c22.61,0.55,40.72,18.96,41.19,41.57c0.35,17.14,0.29,34.3,0.02,51.44c-0.43,26.87-14.47,41-41.36,42.83
			c-3.14,0.21-24.08,2.32-27.59,2.08c-0.01,0-0.02,0-0.04,0c-2.06-0.08-3.81-1.48-4.4-3.45c-1.66-5.6-3.77-11.2-3.84-16.82
			c-0.44-34.73-0.02-69.46-0.11-104.19c-0.09-39.36-32.87-74.43-75.1-78.18c19.36,11.98,36.87,22.82,55.45,34.32
			c-27.21,16.4-52.64,31.74-79.31,47.81v-25.82c-3.84,0-7.25,0.22-10.62-0.04c-24.61-1.85-49.21-3.98-73.84-5.45
			c-2.71-0.16-7.46,2.83-8.11,5.22c-1.85,6.79-2.76,14.02-2.81,21.09c-0.26,35.06-0.1,70.11-0.12,105.17
			c-0.01,16.75-1.35,18.05-18.48,18.08c-6.82,0.01-13.64,0.12-20.45-0.19c-21.99-0.99-37.33-15.44-38.23-37.48
			c-0.83-20.09-0.88-40.27,0.02-60.35c1-22.38,16.71-36.74,39.24-37.65c1.3-0.05,2.6-0.02,3.89-0.03
			c16.58-0.11,16.58-0.11,18.35-17.14c-23.13-5.31-47.57-6.94-67.14-22.32c-5.89-4.63-9.92-11.62-14.81-17.53V1015.61z
			 M716.49,1120.81c-8.42,0-15.99-0.47-23.49,0.15c-9.04,0.75-16.07,8.17-16.22,17.24c-0.34,20.81-0.37,41.63,0,62.44
			c0.16,9.04,5.26,15.62,14.27,17.19c8.13,1.42,16.54,1.18,25.43,1.71V1120.81z M949.63,1218.33c6.98,0,13.08,0.3,19.13-0.07
			c10.98-0.67,18.61-7.45,18.91-18.36c0.56-20.39,0.51-40.82-0.06-61.21c-0.24-8.45-5.23-15.03-13.96-16.44
			c-7.76-1.26-15.77-0.9-24.02-1.28V1218.33z M781.91,1047.98h47.95v-13.85C812.24,1034.59,796.23,1037.71,781.91,1047.98z"/>
		<path class="st2" d="M637.67,1448.18c1.87-6.48,3.7-12.96,5.62-19.42c9.33-31.41,26.97-54.98,59.94-64.65
			c12.43-3.64,24.55-8.34,36.76-12.68c25.03-8.89,34.89-37.01,21.08-59.46c-4.24-6.89-8.22-13.98-11.82-21.23
			c-8.71-17.53-8.59-17.59,5.7-33.03c1.24,2.77,2.26,5.26,3.46,7.66c6.1,12.14,11.13,24.99,18.59,36.23
			c19.08,28.73,7.4,71.26-24.4,84.41c-14.07,5.82-28.31,11.41-42.88,15.76c-24.78,7.41-39.42,23.96-46.27,48.13
			c-2.12,7.47-2.85,15.33-5.04,22.77c-3.06,10.41,0.98,17.99,10.05,21.35c16.61,6.16,33.46,12.63,50.8,15.72
			c80.04,14.28,160.16,13.87,239.9-2.68c12.28-2.55,24.15-7.36,35.95-11.8c9.86-3.71,13.76-11.64,11.78-21.87
			c-1.96-10.14-3.59-20.54-7.2-30.14c-6.93-18.42-19.66-31.89-38.53-38.79c-15.83-5.79-31.88-10.99-47.52-17.24
			c-24.4-9.74-39.4-37.49-34.17-63.28c0.61-3.01,5.05-6.17,8.41-7.44c3.39-1.28,7.63-0.28,8.91-0.28
			c1.81,12.42,1.8,24.64,5.79,35.37c2.58,6.93,10.1,13.57,17.06,16.98c12.43,6.08,25.95,10.12,39.28,14.13
			c33.55,10.1,53.5,32.81,62.47,65.96c1.94,7.18,2.97,14.6,4.64,21.86c3.92,17.01-3.43,28.99-17.04,38
			c-17.43,11.54-37.29,16.56-57.53,19.77c-21.12,3.35-42.43,5.58-63.64,8.36c-2.86,0.38-5.68,1.1-8.52,1.67
			c-30.53,0-61.05,0-91.58,0c-5.41-0.71-10.8-1.59-16.23-2.09c-33.62-3.11-67.03-7.15-98.86-19.4
			c-15.62-6.01-29.09-14.23-34.94-31.12C637.67,1459.88,637.67,1454.03,637.67,1448.18z"/>
		<path class="st2" d="M822.78,953.26c0,5.47,0,10.95,0,17.19c3.63,0.16,6.77,0.31,9.91,0.44c30.27,1.31,60.68,1.23,90.75,4.35
			c24.18,2.51,48.89,4.6,71.56,15.14c2.86,1.33,5.69,2.75,8.4,4.34c5.59,3.28,11.85,6.9,9.26,14.62
			c-2.34,6.98-15.79,10.91-23.11,7.91c-22-9-45.05-13.4-68.61-15.46c-29.68-2.6-59.36-5.16-89.05-7.68
			c-2.55-0.22-5.14-0.03-8.79-0.03c-0.26,5.92-0.51,11.48-0.83,18.71c-16.91-10.22-32.55-19.67-49.15-29.69
			c15.86-10.35,30.81-20.1,45.75-29.85C820.18,953.26,821.48,953.26,822.78,953.26z"/>
		<path class="st2" d="M1599.13,1432.76c1.45,13.43,8.33,16.58,19.01,15.44c7.38-0.79,14.93-0.35,22.39-0.08
			c9.74,0.35,16.1,6.08,16.48,14.38c0.41,8.81-5.68,15.18-15.95,15.9c-6.79,0.48-13.63,0.16-20.45,0.16
			c-44.16,0.01-88.32,0.01-132.48,0c-2.92,0-5.87,0.14-8.76-0.19c-9.62-1.08-15.78-7.3-15.56-15.47
			c0.22-8.21,6.74-14.31,16.24-14.78c5.83-0.29,11.78-0.74,17.51,0.06c10.77,1.5,15.49-3.49,16.61-14.63c-99.51,0-198.92,0-299.01,0
			c0-136.39,0-271.63,0-407.68c229.8,0,459.78,0,690.4,0c0,135.17,0,270.41,0,406.89
			C1803.59,1432.76,1701.57,1432.76,1599.13,1432.76z M1560.18,1414.96c103.92,0,207.84,0,311.76,0c14.02,0,14.48-0.46,14.48-14.11
			c0-114.31,0-228.63,0-342.94c0-14.57-0.24-14.82-14.69-14.82c-207.52,0-415.03-0.01-622.55,0c-14.05,0-14.58,0.55-14.58,15.05
			c0,113.99,0,227.98,0,341.96c0,14.25,0.6,14.86,14.78,14.86C1352.99,1414.96,1456.58,1414.96,1560.18,1414.96z"/>
		<path class="st2" d="M746.27,973.49c0,9.47,0,16.47,0,21.1c-24.8,6.5-48.83,12.04-72.29,19.4c-7.08,2.22-11.38,1.68-16.27-2.8
			c-6.83-6.25-6.63-13.18,1.79-16.75c11.91-5.04,24.18-9.68,36.74-12.59C712.29,978.13,728.78,976.31,746.27,973.49z"/>
		<path class="st2" d="M1487.18,1262.37c-9.71,1.22-17.35,2.18-26.12,3.27c5.11,11.59,9.89,22.4,14.96,33.88
			c-3.15,1.6-5.92,3-9.14,4.63c-5.16-11.58-10.1-22.65-15.47-34.68c-6.37,5.87-11.79,10.86-18.35,16.9c0-25.15,0-49.05,0-74.48
			C1451.24,1228.85,1468.6,1245.05,1487.18,1262.37z"/>
		<path class="st2" d="M1450.18,1157.18c4.46,5.93,8.27,11,12.73,16.93c-2.94,0.91-5.33,1.65-8.02,2.48
			c-0.24,5.24-0.48,10.34-0.71,15.34c-8.25,0.81-8.25,0.81-9.25-15.7c-2.12-0.51-4.39-1.05-7.48-1.78
			C1441.84,1168.51,1445.75,1163.2,1450.18,1157.18z"/>
		<path class="st2" d="M1379.12,1240.41c0.77,3.36,1.31,5.7,1.89,8.22c5.48,0.25,10.57,0.49,15.58,0.72
			c0.81,8.25,0.81,8.25-15.7,9.25c-0.5,2.12-1.05,4.39-1.77,7.43c-5.76-4.21-10.91-7.98-17.36-12.69
			C1367.5,1249.07,1372.71,1245.18,1379.12,1240.41z"/>
		<path class="st2" d="M1517.07,1240.22c6.44,4.77,11.55,8.55,17.54,12.99c-5.84,4.39-11.1,8.36-17.2,12.95
			c-0.73-3.07-1.26-5.32-1.58-6.68c-5.32-4.43-17.11,4.68-16.87-8.61C1504.7,1245.6,1516.51,1255.15,1517.07,1240.22z"/>
		<path class="st2" d="M1452.93,1315.83c4.33,6.81-4.12,17.66,10.38,18c-4.48,6.07-8.41,11.39-12.97,17.58
			c-4.45-5.93-8.4-11.21-12.94-17.27c3.09-0.72,5.34-1.24,6.26-1.46C1448.82,1327.39,1438.95,1315.12,1452.93,1315.83z"/>
	</g>
	<path d="M462.28,947.9c18.12,7.67,37.85,12.9,53.99,23.57c26.81,17.71,38.73,45.37,38.98,77.37c0.38,50.48,0.22,100.96,0.08,151.44
		c-0.16,56.29-41.8,99.81-96.43,101.06c-53.74,1.22-98.59-42.03-99.61-97.82c-0.95-51.79-0.87-103.63,0-155.42
		c0.8-48.11,32.03-84.94,78.72-95.52c4.66-1.06,9.1-3.09,13.64-4.67C455.19,947.9,458.74,947.9,462.28,947.9z"/>
	<path d="M281.37,1160.74c5.22-11.7,13.4-19.37,26.92-15.62c13.72,3.8,15.31,15.27,15.26,27.6c-0.07,17.26-1.13,34.78,1.31,51.75
		c9.37,65.37,69.4,114.7,135.53,112.69c68.45-2.08,123.68-52.86,129.93-120.13c1.51-16.27,1.01-32.73,1.46-49.1
		c0.44-15.77,7.51-23.76,20.74-23.49c12.24,0.25,19.8,8.7,20.1,23.1c0.78,37.28,1.17,74.6-16.03,109.19
		c-25.54,51.33-65.32,85.02-121.99,97.46c-5.11,1.12-10.21,2.27-15.9,3.53c0,11.76,0,23.09,0,36.5c19.91,0,39.65-0.01,59.39,0.01
		c5.32,0,10.69-0.41,15.94,0.22c10.69,1.28,18.4,6.68,19.92,17.99c1.52,11.27-4.34,18.66-14.33,22.74
		c-3.56,1.45-7.74,1.95-11.63,1.96c-60.7,0.11-121.4,0.09-182.1,0.02c-3.06,0-6.37-0.08-9.14-1.18
		c-10.25-4.06-17.87-10.87-16.36-22.88c1.56-12.37,10.07-18.49,22.09-18.74c19.49-0.42,38.99-0.12,58.48-0.13c4.74,0,9.47,0,15.54,0
		c0-11.18,0.9-20.94-0.5-30.37c-0.47-3.19-6.4-7.21-10.4-8.01c-53.12-10.57-93.95-39.04-120.08-86.04
		c-10.29-18.51-14.54-40.37-21.56-60.71c-0.83-2.4-1.73-4.78-2.59-7.16C281.37,1201.53,281.37,1181.14,281.37,1160.74z"/>
	<path d="M1843.92,1234.08c0-28.22,0-53.69,0-80.58c-8.69,0-16.89,0-27.5,0c2.62-11.86-6.2-23.95,8.35-32.48
		c-2.18-5.21-4.64-10.82-6.89-16.5c-8.2-20.72-6.56-40.16,9.15-56.76c14.36-15.17,40.01-20.7,60.2-9.37
		c16.58,9.3,31.5,22.63,44.74,36.48c11.48,12.02,19.16,27.6,29.41,40.92c2.93,3.8,8.88,7.14,13.6,7.37
		c18.04,0.85,36.14,0.34,55.03,0.34c0,9.92,0,18.57,0,29.35c-9.03,0-18.13,0-27.24,0c-9.21,0-18.42,0-29.16,0
		c0,73.85,0,146.33,0,219.72c-11.07,0-20.59,0-31.66,0c0-72.42,0-144.89,0-218.54c-22.37,0-43.25,0-65.68,0
		c0,72.87,0,145.33,0,218.62c-10.98,0-20.45,0-31.68,0c0-33.37,0-66.27,0-103.07c-33.11,26.54-63.26,50.7-94.23,75.51
		c-6.43-9.58-12.29-18.31-19.11-28.47c26.93-20.63,53.36-40.89,81.85-62.73c-21.98-9.7-41.5-18.78-61.49-26.68
		c-3.15-1.25-9.06,1.94-12.58,4.57c-20.6,15.37-40.85,31.2-61.26,46.83c-3.78,2.9-7.73,5.57-12.44,8.94
		c-6.55-9.72-12.41-18.41-19.01-28.19c22.28-15.86,43.74-31.14,65.21-46.43c-25.87-33.51-27.72-55.42-6.99-75.56
		c21.11-20.51,54.01-22.37,76.38-4.32c20.39,16.46,21.52,41.47,2.12,73.62C1802.66,1215.52,1822.06,1224.25,1843.92,1234.08z
		 M1930.89,1123.41c-6.85-9.86-10.95-17.28-16.48-23.4c-10.56-11.7-21.01-23.84-33.29-33.54c-9.74-7.69-22.2-6.19-31.81,2.1
		c-9.38,8.09-8.51,18.79-3.65,29.15c3.18,6.77,6.68,13.46,10.74,19.72c1.68,2.6,5.16,5.65,7.88,5.71
		C1885.31,1123.62,1906.35,1123.41,1930.89,1123.41z M1742.78,1150.11c-12.15,0.16-22.26,10.11-22.02,21.66
		c0.24,11.72,10.37,21.1,22.66,20.98c12.67-0.13,21.72-9.18,21.6-21.61C1764.9,1158.98,1755.34,1149.95,1742.78,1150.11z"/>
	<path d="M1486.57,1229.98c9.17-47.99-28.3-99.83-68.58-97.43c17.03,26.72,17.53,41.95,2.02,60.92
		c-15.43,18.87-43.37,26.92-64.81,18.67c-22.53-8.67-38.88-34.97-36.84-59.25c1.88-22.32,20.71-44.75,44.2-49.1
		c74.33-13.79,138.34,20.32,153.5,90.85c2.36,10.99,1.48,22.67,2.14,34.67c9.07,0,17.71,0,28.04,0c0-21.74,0-42.88,0-64.03
		c0-20.73,0-41.45,0-63.18c9.64,0,17.75,0,26.78,0c0,85.36,0,170.24,0,254.92c-1.11,0.66-1.83,1.44-2.62,1.51
		c-24.16,2.41-24.16,2.4-24.16-21.77c0-25.57,0-51.15,0-78.04c-11.42,0-21.15-0.65-30.69,0.37c-3.11,0.33-6.87,4.54-8.42,7.86
		c-23.11,49.52-59.52,81.23-115.06,89.41c-37.63,5.54-74.71,3.48-110.02-9.51c-17.71-6.52-34.21-18.37-48.86-30.66
		c-16.52-13.86-17.65-34.36-12.81-54.06c5.15-20.97,22.74-32.07,47.8-32.12c67.82-0.12,135.63-0.04,203.45-0.04
		C1476.44,1229.98,1481.25,1229.98,1486.57,1229.98z M1478.83,1260c-3.88-0.62-5.92-1.23-7.97-1.23
		c-68.62-0.05-137.24-0.15-205.85,0.04c-13.26,0.04-19.03,7.35-17.28,20.69c3.14,23.92,18.78,38.61,40.54,41.65
		c33.48,4.68,67.6,6.4,101.43,6.11c14.2-0.12,29.57-6.46,42.2-13.78C1452.67,1301.46,1468.81,1283.98,1478.83,1260z
		 M1347.14,1159.87c0.2,15.04,13.12,27.46,28.31,27.22c14.62-0.23,27.88-13.5,28.04-28.06c0.16-14.71-14.44-28.7-29.34-28.11
		C1359.71,1131.47,1346.94,1145.17,1347.14,1159.87z"/>
	<path d="M2078.05,1371.88c10.64-29.6,20.56-57.34,30.59-85.04c21.2-58.52,42.64-116.95,63.5-175.59
		c3.12-8.77,6.95-12.95,16.84-12.14c13.61,1.13,30.64-4.03,40.09,2.43c9.3,6.37,11.3,23.77,15.93,36.54
		c26.49,73.02,52.81,146.09,79.18,219.15c1.48,4.1,2.9,8.23,5.12,14.52c-15.57,0-29.91,0.39-44.2-0.37c-2.5-0.13-5.7-4.74-6.93-7.92
		c-4.79-12.35-9.14-24.88-13.21-37.49c-2.01-6.24-5.05-9.01-12.17-8.93c-32.76,0.41-65.54-0.08-98.29,0.54
		c-3.8,0.07-9.37,4.24-10.93,7.87c-5.37,12.54-8.97,25.83-14.08,38.5c-1.32,3.27-5.58,7.36-8.7,7.56
		C2107.22,1372.35,2093.55,1371.88,2078.05,1371.88z M2161.39,1274.07c29.23,0,56.44,0,85.15,0
		c-14.06-39.93-27.69-78.62-41.32-117.31c-0.94,0.14-1.88,0.29-2.82,0.43C2188.86,1195.78,2175.33,1234.36,2161.39,1274.07z"/>
	<path d="M942.75,1225.72c0,39.04,0.04,78.08-0.08,117.12c-0.01,3.45-0.02,7.81-1.97,10.11c-2.43,2.87-6.84,5.46-10.46,5.53
		c-3.28,0.07-7.18-2.85-9.77-5.47c-1.63-1.65-1.86-5.18-1.87-7.87c-0.09-79.35-0.09-158.69-0.05-238.04
		c0.01-8.8,3.7-13.8,10.2-14.53c8.62-0.97,13.86,4.02,13.94,13.75c0.13,15.72,0.04,31.43,0.04,47.15
		C942.75,1177.56,942.75,1201.64,942.75,1225.72z"/>
	<path d="M988.6,1225.72c0,23.84,0.01,47.68-0.01,71.52c0,2.53,0.17,5.15-0.37,7.58c-1.31,5.85-5.2,9.44-11.17,9.63
		c-5.57,0.18-9.81-2.7-11.36-8.26c-0.87-3.12-1.24-6.47-1.25-9.72c-0.08-47.17-0.05-94.34-0.05-141.51c0-1.01-0.03-2.03,0.02-3.04
		c0.47-9.4,5.44-15.31,12.66-15.04c7.23,0.27,11.47,5.61,11.5,15.04C988.65,1176.52,988.6,1201.12,988.6,1225.72z"/>
	<path d="M872.75,1225.77c-0.01-23.06-0.04-46.12,0.04-69.18c0.01-2.73-0.25-6.3,1.27-8.01c2.73-3.08,6.78-7.06,10.17-6.96
		c3.84,0.12,8.15,3.75,11.1,6.93c1.68,1.81,1.41,5.76,1.41,8.75c0.08,45.61,0.05,91.23,0.05,136.84c0,0.76,0.02,1.52-0.01,2.28
		c-0.43,9.24-4.72,14.06-12.48,14.02c-7.13-0.03-11.46-5-11.51-13.97C872.67,1272.9,872.75,1249.33,872.75,1225.77z"/>
	<path d="M1056.91,1225.69c0-19.29,0.02-38.58-0.01-57.86c-0.01-5.71,1.44-10.52,7.18-13.04c6.15-2.7,13.35,0.11,15.64,6.38
		c0.77,2.1,1.15,4.46,1.15,6.71c0.07,38.32,0.06,76.64,0.05,114.97c0,1.26-0.15,2.54-0.37,3.78c-1.28,7.19-5.94,11.46-12.17,11.2
		c-6.65-0.28-11.28-5.12-11.35-12.74c-0.17-19.79-0.06-39.59-0.06-59.39C1056.96,1225.69,1056.93,1225.69,1056.91,1225.69z"/>
	<path d="M804.32,1225.62c0.01,17.51,0.06,35.02-0.01,52.54c-0.04,9.28-4.32,14.56-11.73,14.81c-6.75,0.23-11.81-4.88-11.9-13.95
		c-0.35-35.78-0.37-71.57-0.23-107.35c0.03-8.25,5.74-13.57,12.7-13.15c6.73,0.4,11.07,5.55,11.12,13.81
		C804.4,1190.09,804.31,1207.86,804.32,1225.62z"/>
	<path d="M826.75,1225.03c0-8.35-0.26-16.72,0.08-25.05c0.32-7.89,4.72-12.34,11.46-12.51c6.95-0.17,11.85,4.61,11.98,12.79
		c0.27,16.96,0.27,33.92,0.02,50.88c-0.12,8.14-5.04,13.05-11.91,12.93c-6.91-0.12-11.37-4.89-11.64-13.21
		c-0.28-8.6-0.06-17.21-0.06-25.82C826.7,1225.03,826.72,1225.03,826.75,1225.03z"/>
	<path d="M1011.03,1225.53c0-6.06-0.29-12.14,0.07-18.18c0.43-7.2,4.91-11.26,11.66-11.29c6.55-0.03,11.39,4.18,11.61,11.36
		c0.37,12.37,0.37,24.77-0.06,37.13c-0.23,6.69-4.38,10.58-11.27,10.83c-6.85,0.25-11.46-3.78-11.91-10.92
		c-0.4-6.29-0.08-12.62-0.08-18.94C1011.05,1225.53,1011.04,1225.53,1011.03,1225.53z"/>
	<path d="M1126.67,1225.93c0,4.31,0.35,8.65-0.08,12.91c-0.71,7-5.64,11.3-12.17,10.95c-6.88-0.37-10.92-4.35-11.26-11.03
		c-0.44-8.84-0.47-17.75,0.08-26.59c0.42-6.75,4.79-10.52,11.64-10.53c6.9-0.01,10.87,4,11.67,10.61c0.54,4.49,0.1,9.11,0.1,13.67
		C1126.66,1225.93,1126.66,1225.93,1126.67,1225.93z"/>
	<path d="M734.43,1225.96c0-3.3-0.3-6.63,0.07-9.88c0.7-6.22,4.2-10.34,10.54-11.05c6.75-0.76,11.91,2.49,12.79,9.12
		c0.99,7.46,1,15.23,0.13,22.71c-0.77,6.58-5.62,9.93-12.5,9.57c-6.15-0.32-10.6-4.84-11-11.34
		C734.27,1232.05,734.43,1229,734.43,1225.96z"/>
</g>
</svg>
