<?xml version="1.0" encoding="utf-8"?>
<!-- Generator: Adobe Illustrator 23.0.1, SVG Export Plug-In . SVG Version: 6.00 Build 0)  -->
<svg version="1.1" xmlns="http://www.w3.org/2000/svg" xmlns:xlink="http://www.w3.org/1999/xlink" x="0px" y="0px"
	 viewBox="0 0 2500 2500" style="enable-background:new 0 0 2500 2500;" xml:space="preserve">
<style type="text/css">
	.st0{display:none;}
	.st1{display:inline;fill:#999999;}
	.st2{display:inline;}
</style>
<g id="Layer_2" class="st0">
	<rect x="240.89" y="640.1" class="st1" width="1964.67" height="1462.81"/>
</g>
<g id="Layer_1">
	<g class="st0">
		<path class="st2" d="M637.67,1015.61c23.42,17.77,51.26,21.73,79.2,25.48c7.24,0.97,14.37,2.97,21.63,3.44
			c4.18,0.27,9.47-0.32,12.6-2.7c59.84-45.45,140.14-31.45,180.82,18.18c0.14,0.17,0.54,0.12,1.66,0.33c0-5.39,0-10.7,0-15.73
			c17.04-3.21,33.46-5.37,49.34-9.56c15.76-4.15,30.98-10.33,46.56-15.66c6.47,16.5-0.1,42.41-17.63,48.61
			c-19.68,6.96-39.64,13.12-59.45,19.7c-2.06,0.68-3.98,1.8-6.03,2.74c0.64,3.58,1.2,6.74,2.04,11.41c5.73,0,11.6-0.11,17.46,0.03
			c22.61,0.55,40.72,18.96,41.19,41.57c0.35,17.14,0.29,34.3,0.02,51.44c-0.43,26.87-14.47,41-41.36,42.83
			c-3.14,0.21-24.08,2.32-27.59,2.08c-0.01,0-0.02,0-0.04,0c-2.06-0.08-3.81-1.48-4.4-3.45c-1.66-5.6-3.77-11.2-3.84-16.82
			c-0.44-34.73-0.02-69.46-0.11-104.19c-0.09-39.36-32.87-74.43-75.1-78.18c19.36,11.98,36.87,22.82,55.45,34.32
			c-27.21,16.4-52.64,31.74-79.31,47.81v-25.82c-3.84,0-7.25,0.22-10.62-0.04c-24.61-1.85-49.21-3.98-73.84-5.45
			c-2.71-0.16-7.46,2.83-8.11,5.22c-1.85,6.79-2.76,14.02-2.81,21.09c-0.26,35.06-0.1,70.11-0.12,105.17
			c-0.01,16.75-1.35,18.05-18.48,18.08c-6.82,0.01-13.64,0.12-20.45-0.19c-21.99-0.99-37.33-15.44-38.23-37.48
			c-0.83-20.09-0.88-40.27,0.02-60.35c1-22.38,16.71-36.74,39.24-37.65c1.3-0.05,2.6-0.02,3.89-0.03
			c16.58-0.11,16.58-0.11,18.35-17.14c-23.13-5.31-47.57-6.94-67.14-22.32c-5.89-4.63-9.92-11.62-14.81-17.53V1015.61z
			 M716.49,1120.81c-8.42,0-15.99-0.47-23.49,0.15c-9.04,0.75-16.07,8.17-16.22,17.24c-0.34,20.81-0.37,41.63,0,62.44
			c0.16,9.04,5.26,15.62,14.27,17.19c8.13,1.42,16.54,1.18,25.43,1.71V1120.81z M949.63,1218.33c6.98,0,13.08,0.3,19.13-0.07
			c10.98-0.67,18.61-7.45,18.91-18.36c0.56-20.39,0.51-40.82-0.06-61.21c-0.24-8.45-5.23-15.03-13.96-16.44
			c-7.76-1.26-15.77-0.9-24.02-1.28V1218.33z M781.91,1047.98h47.95v-13.85C812.24,1034.59,796.23,1037.71,781.91,1047.98z"/>
		<path class="st2" d="M637.67,1448.18c1.87-6.48,3.7-12.96,5.62-19.42c9.33-31.41,26.97-54.98,59.94-64.65
			c12.43-3.64,24.55-8.34,36.76-12.68c25.03-8.89,34.89-37.01,21.08-59.46c-4.24-6.89-8.22-13.98-11.82-21.23
			c-8.71-17.53-8.59-17.59,5.7-33.03c1.24,2.77,2.26,5.26,3.46,7.66c6.1,12.14,11.13,24.99,18.59,36.23
			c19.08,28.73,7.4,71.26-24.4,84.41c-14.07,5.82-28.31,11.41-42.88,15.76c-24.78,7.41-39.42,23.96-46.27,48.13
			c-2.12,7.47-2.85,15.33-5.04,22.77c-3.06,10.41,0.98,17.99,10.05,21.35c16.61,6.16,33.46,12.63,50.8,15.72
			c80.04,14.28,160.16,13.87,239.9-2.68c12.28-2.55,24.15-7.36,35.95-11.8c9.86-3.71,13.76-11.64,11.78-21.87
			c-1.96-10.14-3.59-20.54-7.2-30.14c-6.93-18.42-19.66-31.89-38.53-38.79c-15.83-5.79-31.88-10.99-47.52-17.24
			c-24.4-9.74-39.4-37.49-34.17-63.28c0.61-3.01,5.05-6.17,8.41-7.44c3.39-1.28,7.63-0.28,8.91-0.28
			c1.81,12.42,1.8,24.64,5.79,35.37c2.58,6.93,10.1,13.57,17.06,16.98c12.43,6.08,25.95,10.12,39.28,14.13
			c33.55,10.1,53.5,32.81,62.47,65.96c1.94,7.18,2.97,14.6,4.64,21.86c3.92,17.01-3.43,28.99-17.04,38
			c-17.43,11.54-37.29,16.56-57.53,19.77c-21.12,3.35-42.43,5.58-63.64,8.36c-2.86,0.38-5.68,1.1-8.52,1.67
			c-30.53,0-61.05,0-91.58,0c-5.41-0.71-10.8-1.59-16.23-2.09c-33.62-3.11-67.03-7.15-98.86-19.4
			c-15.62-6.01-29.09-14.23-34.94-31.12C637.67,1459.88,637.67,1454.03,637.67,1448.18z"/>
		<path class="st2" d="M822.78,953.26c0,5.47,0,10.95,0,17.19c3.63,0.16,6.77,0.31,9.91,0.44c30.27,1.31,60.68,1.23,90.75,4.35
			c24.18,2.51,48.89,4.6,71.56,15.14c2.86,1.33,5.69,2.75,8.4,4.34c5.59,3.28,11.85,6.9,9.26,14.62
			c-2.34,6.98-15.79,10.91-23.11,7.91c-22-9-45.05-13.4-68.61-15.46c-29.68-2.6-59.36-5.16-89.05-7.68
			c-2.55-0.22-5.14-0.03-8.79-0.03c-0.26,5.92-0.51,11.48-0.83,18.71c-16.91-10.22-32.55-19.67-49.15-29.69
			c15.86-10.35,30.81-20.1,45.75-29.85C820.18,953.26,821.48,953.26,822.78,953.26z"/>
		<path class="st2" d="M1599.13,1432.76c1.45,13.43,8.33,16.58,19.01,15.44c7.38-0.79,14.93-0.35,22.39-0.08
			c9.74,0.35,16.1,6.08,16.48,14.38c0.41,8.81-5.68,15.18-15.95,15.9c-6.79,0.48-13.63,0.16-20.45,0.16
			c-44.16,0.01-88.32,0.01-132.48,0c-2.92,0-5.87,0.14-8.76-0.19c-9.62-1.08-15.78-7.3-15.56-15.47
			c0.22-8.21,6.74-14.31,16.24-14.78c5.83-0.29,11.78-0.74,17.51,0.06c10.77,1.5,15.49-3.49,16.61-14.63c-99.51,0-198.92,0-299.01,0
			c0-136.39,0-271.63,0-407.68c229.8,0,459.78,0,690.4,0c0,135.17,0,270.41,0,406.89
			C1803.59,1432.76,1701.57,1432.76,1599.13,1432.76z M1560.18,1414.96c103.92,0,207.84,0,311.76,0c14.02,0,14.48-0.46,14.48-14.11
			c0-114.31,0-228.63,0-342.94c0-14.57-0.24-14.82-14.69-14.82c-207.52,0-415.03-0.01-622.55,0c-14.05,0-14.58,0.55-14.58,15.05
			c0,113.99,0,227.98,0,341.96c0,14.25,0.6,14.86,14.78,14.86C1352.99,1414.96,1456.58,1414.96,1560.18,1414.96z"/>
		<path class="st2" d="M746.27,973.49c0,9.47,0,16.47,0,21.1c-24.8,6.5-48.83,12.04-72.29,19.4c-7.08,2.22-11.38,1.68-16.27-2.8
			c-6.83-6.25-6.63-13.18,1.79-16.75c11.91-5.04,24.18-9.68,36.74-12.59C712.29,978.13,728.78,976.31,746.27,973.49z"/>
		<path class="st2" d="M1487.18,1262.37c-9.71,1.22-17.35,2.18-26.12,3.27c5.11,11.59,9.89,22.4,14.96,33.88
			c-3.15,1.6-5.92,3-9.14,4.63c-5.16-11.58-10.1-22.65-15.47-34.68c-6.37,5.87-11.79,10.86-18.35,16.9c0-25.15,0-49.05,0-74.48
			C1451.24,1228.85,1468.6,1245.05,1487.18,1262.37z"/>
		<path class="st2" d="M1450.18,1157.18c4.46,5.93,8.27,11,12.73,16.93c-2.94,0.91-5.33,1.65-8.02,2.48
			c-0.24,5.24-0.48,10.34-0.71,15.34c-8.25,0.81-8.25,0.81-9.25-15.7c-2.12-0.51-4.39-1.05-7.48-1.78
			C1441.84,1168.51,1445.75,1163.2,1450.18,1157.18z"/>
		<path class="st2" d="M1379.12,1240.41c0.77,3.36,1.31,5.7,1.89,8.22c5.48,0.25,10.57,0.49,15.58,0.72
			c0.81,8.25,0.81,8.25-15.7,9.25c-0.5,2.12-1.05,4.39-1.77,7.43c-5.76-4.21-10.91-7.98-17.36-12.69
			C1367.5,1249.07,1372.71,1245.18,1379.12,1240.41z"/>
		<path class="st2" d="M1517.07,1240.22c6.44,4.77,11.55,8.55,17.54,12.99c-5.84,4.39-11.1,8.36-17.2,12.95
			c-0.73-3.07-1.26-5.32-1.58-6.68c-5.32-4.43-17.11,4.68-16.87-8.61C1504.7,1245.6,1516.51,1255.15,1517.07,1240.22z"/>
		<path class="st2" d="M1452.93,1315.83c4.33,6.81-4.12,17.66,10.38,18c-4.48,6.07-8.41,11.39-12.97,17.58
			c-4.45-5.93-8.4-11.21-12.94-17.27c3.09-0.72,5.34-1.24,6.26-1.46C1448.82,1327.39,1438.95,1315.12,1452.93,1315.83z"/>
	</g>
	<g class="st0">
		<path class="st2" d="M462.28,947.9c18.12,7.67,37.85,12.9,53.99,23.57c26.81,17.71,38.73,45.37,38.98,77.37
			c0.38,50.48,0.22,100.96,0.08,151.44c-0.16,56.29-41.8,99.81-96.43,101.06c-53.74,1.22-98.59-42.03-99.61-97.82
			c-0.95-51.79-0.87-103.63,0-155.42c0.8-48.11,32.03-84.94,78.72-95.52c4.66-1.06,9.1-3.09,13.64-4.67
			C455.19,947.9,458.74,947.9,462.28,947.9z"/>
		<path class="st2" d="M281.37,1160.74c5.22-11.7,13.4-19.37,26.92-15.62c13.72,3.8,15.31,15.27,15.26,27.6
			c-0.07,17.26-1.13,34.78,1.31,51.75c9.37,65.37,69.4,114.7,135.53,112.69c68.45-2.08,123.68-52.86,129.93-120.13
			c1.51-16.27,1.01-32.73,1.46-49.1c0.44-15.77,7.51-23.76,20.74-23.49c12.24,0.25,19.8,8.7,20.1,23.1
			c0.78,37.28,1.17,74.6-16.03,109.19c-25.54,51.33-65.32,85.02-121.99,97.46c-5.11,1.12-10.21,2.27-15.9,3.53
			c0,11.76,0,23.09,0,36.5c19.91,0,39.65-0.01,59.39,0.01c5.32,0,10.69-0.41,15.94,0.22c10.69,1.28,18.4,6.68,19.92,17.99
			c1.52,11.27-4.34,18.66-14.33,22.74c-3.56,1.45-7.74,1.95-11.63,1.96c-60.7,0.11-121.4,0.09-182.1,0.02
			c-3.06,0-6.37-0.08-9.14-1.18c-10.25-4.06-17.87-10.87-16.36-22.88c1.56-12.37,10.07-18.49,22.09-18.74
			c19.49-0.42,38.99-0.12,58.48-0.13c4.74,0,9.47,0,15.54,0c0-11.18,0.9-20.94-0.5-30.37c-0.47-3.19-6.4-7.21-10.4-8.01
			c-53.12-10.57-93.95-39.04-120.08-86.04c-10.29-18.51-14.54-40.37-21.56-60.71c-0.83-2.4-1.73-4.78-2.59-7.16
			C281.37,1201.53,281.37,1181.14,281.37,1160.74z"/>
		<path class="st2" d="M1843.92,1234.08c0-28.22,0-53.69,0-80.58c-8.69,0-16.89,0-27.5,0c2.62-11.86-6.2-23.95,8.35-32.48
			c-2.18-5.21-4.64-10.82-6.89-16.5c-8.2-20.72-6.56-40.16,9.15-56.76c14.36-15.17,40.01-20.7,60.2-9.37
			c16.58,9.3,31.5,22.63,44.74,36.48c11.48,12.02,19.16,27.6,29.41,40.92c2.93,3.8,8.88,7.14,13.6,7.37
			c18.04,0.85,36.14,0.34,55.03,0.34c0,9.92,0,18.57,0,29.35c-9.03,0-18.13,0-27.24,0c-9.21,0-18.42,0-29.16,0
			c0,73.85,0,146.33,0,219.72c-11.07,0-20.59,0-31.66,0c0-72.42,0-144.89,0-218.54c-22.37,0-43.25,0-65.68,0
			c0,72.87,0,145.33,0,218.62c-10.98,0-20.45,0-31.68,0c0-33.37,0-66.27,0-103.07c-33.11,26.54-63.26,50.7-94.23,75.51
			c-6.43-9.58-12.29-18.31-19.11-28.47c26.93-20.63,53.36-40.89,81.85-62.73c-21.98-9.7-41.5-18.78-61.49-26.68
			c-3.15-1.25-9.06,1.94-12.58,4.57c-20.6,15.37-40.85,31.2-61.26,46.83c-3.78,2.9-7.73,5.57-12.44,8.94
			c-6.55-9.72-12.41-18.41-19.01-28.19c22.28-15.86,43.74-31.14,65.21-46.43c-25.87-33.51-27.72-55.42-6.99-75.56
			c21.11-20.51,54.01-22.37,76.38-4.32c20.39,16.46,21.52,41.47,2.12,73.62C1802.66,1215.52,1822.06,1224.25,1843.92,1234.08z
			 M1930.89,1123.41c-6.85-9.86-10.95-17.28-16.48-23.4c-10.56-11.7-21.01-23.84-33.29-33.54c-9.74-7.69-22.2-6.19-31.81,2.1
			c-9.38,8.09-8.51,18.79-3.65,29.15c3.18,6.77,6.68,13.46,10.74,19.72c1.68,2.6,5.16,5.65,7.88,5.71
			C1885.31,1123.62,1906.35,1123.41,1930.89,1123.41z M1742.78,1150.11c-12.15,0.16-22.26,10.11-22.02,21.66
			c0.24,11.72,10.37,21.1,22.66,20.98c12.67-0.13,21.72-9.18,21.6-21.61C1764.9,1158.98,1755.34,1149.95,1742.78,1150.11z"/>
		<path class="st2" d="M1486.57,1229.98c9.17-47.99-28.3-99.83-68.58-97.43c17.03,26.72,17.53,41.95,2.02,60.92
			c-15.43,18.87-43.37,26.92-64.81,18.67c-22.53-8.67-38.88-34.97-36.84-59.25c1.88-22.32,20.71-44.75,44.2-49.1
			c74.33-13.79,138.34,20.32,153.5,90.85c2.36,10.99,1.48,22.67,2.14,34.67c9.07,0,17.71,0,28.04,0c0-21.74,0-42.88,0-64.03
			c0-20.73,0-41.45,0-63.18c9.64,0,17.75,0,26.78,0c0,85.36,0,170.24,0,254.92c-1.11,0.66-1.83,1.44-2.62,1.51
			c-24.16,2.41-24.16,2.4-24.16-21.77c0-25.57,0-51.15,0-78.04c-11.42,0-21.15-0.65-30.69,0.37c-3.11,0.33-6.87,4.54-8.42,7.86
			c-23.11,49.52-59.52,81.23-115.06,89.41c-37.63,5.54-74.71,3.48-110.02-9.51c-17.71-6.52-34.21-18.37-48.86-30.66
			c-16.52-13.86-17.65-34.36-12.81-54.06c5.15-20.97,22.74-32.07,47.8-32.12c67.82-0.12,135.63-0.04,203.45-0.04
			C1476.44,1229.98,1481.25,1229.98,1486.57,1229.98z M1478.83,1260c-3.88-0.62-5.92-1.23-7.97-1.23
			c-68.62-0.05-137.24-0.15-205.85,0.04c-13.26,0.04-19.03,7.35-17.28,20.69c3.14,23.92,18.78,38.61,40.54,41.65
			c33.48,4.68,67.6,6.4,101.43,6.11c14.2-0.12,29.57-6.46,42.2-13.78C1452.67,1301.46,1468.81,1283.98,1478.83,1260z
			 M1347.14,1159.87c0.2,15.04,13.12,27.46,28.31,27.22c14.62-0.23,27.88-13.5,28.04-28.06c0.16-14.71-14.44-28.7-29.34-28.11
			C1359.71,1131.47,1346.94,1145.17,1347.14,1159.87z"/>
		<path class="st2" d="M2078.05,1371.88c10.64-29.6,20.56-57.34,30.59-85.04c21.2-58.52,42.64-116.95,63.5-175.59
			c3.12-8.77,6.95-12.95,16.84-12.14c13.61,1.13,30.64-4.03,40.09,2.43c9.3,6.37,11.3,23.77,15.93,36.54
			c26.49,73.02,52.81,146.09,79.18,219.15c1.48,4.1,2.9,8.23,5.12,14.52c-15.57,0-29.91,0.39-44.2-0.37
			c-2.5-0.13-5.7-4.74-6.93-7.92c-4.79-12.35-9.14-24.88-13.21-37.49c-2.01-6.24-5.05-9.01-12.17-8.93
			c-32.76,0.41-65.54-0.08-98.29,0.54c-3.8,0.07-9.37,4.24-10.93,7.87c-5.37,12.54-8.97,25.83-14.08,38.5
			c-1.32,3.27-5.58,7.36-8.7,7.56C2107.22,1372.35,2093.55,1371.88,2078.05,1371.88z M2161.39,1274.07c29.23,0,56.44,0,85.15,0
			c-14.06-39.93-27.69-78.62-41.32-117.31c-0.94,0.14-1.88,0.29-2.82,0.43C2188.86,1195.78,2175.33,1234.36,2161.39,1274.07z"/>
		<path class="st2" d="M942.75,1225.72c0,39.04,0.04,78.08-0.08,117.12c-0.01,3.45-0.02,7.81-1.97,10.11
			c-2.43,2.87-6.84,5.46-10.46,5.53c-3.28,0.07-7.18-2.85-9.77-5.47c-1.63-1.65-1.86-5.18-1.87-7.87
			c-0.09-79.35-0.09-158.69-0.05-238.04c0.01-8.8,3.7-13.8,10.2-14.53c8.62-0.97,13.86,4.02,13.94,13.75
			c0.13,15.72,0.04,31.43,0.04,47.15C942.75,1177.56,942.75,1201.64,942.75,1225.72z"/>
		<path class="st2" d="M988.6,1225.72c0,23.84,0.01,47.68-0.01,71.52c0,2.53,0.17,5.15-0.37,7.58c-1.31,5.85-5.2,9.44-11.17,9.63
			c-5.57,0.18-9.81-2.7-11.36-8.26c-0.87-3.12-1.24-6.47-1.25-9.72c-0.08-47.17-0.05-94.34-0.05-141.51c0-1.01-0.03-2.03,0.02-3.04
			c0.47-9.4,5.44-15.31,12.66-15.04c7.23,0.27,11.47,5.61,11.5,15.04C988.65,1176.52,988.6,1201.12,988.6,1225.72z"/>
		<path class="st2" d="M872.75,1225.77c-0.01-23.06-0.04-46.12,0.04-69.18c0.01-2.73-0.25-6.3,1.27-8.01
			c2.73-3.08,6.78-7.06,10.17-6.96c3.84,0.12,8.15,3.75,11.1,6.93c1.68,1.81,1.41,5.76,1.41,8.75c0.08,45.61,0.05,91.23,0.05,136.84
			c0,0.76,0.02,1.52-0.01,2.28c-0.43,9.24-4.72,14.06-12.48,14.02c-7.13-0.03-11.46-5-11.51-13.97
			C872.67,1272.9,872.75,1249.33,872.75,1225.77z"/>
		<path class="st2" d="M1056.91,1225.69c0-19.29,0.02-38.58-0.01-57.86c-0.01-5.71,1.44-10.52,7.18-13.04
			c6.15-2.7,13.35,0.11,15.64,6.38c0.77,2.1,1.15,4.46,1.15,6.71c0.07,38.32,0.06,76.64,0.05,114.97c0,1.26-0.15,2.54-0.37,3.78
			c-1.28,7.19-5.94,11.46-12.17,11.2c-6.65-0.28-11.28-5.12-11.35-12.74c-0.17-19.79-0.06-39.59-0.06-59.39
			C1056.96,1225.69,1056.93,1225.69,1056.91,1225.69z"/>
		<path class="st2" d="M804.32,1225.62c0.01,17.51,0.06,35.02-0.01,52.54c-0.04,9.28-4.32,14.56-11.73,14.81
			c-6.75,0.23-11.81-4.88-11.9-13.95c-0.35-35.78-0.37-71.57-0.23-107.35c0.03-8.25,5.74-13.57,12.7-13.15
			c6.73,0.4,11.07,5.55,11.12,13.81C804.4,1190.09,804.31,1207.86,804.32,1225.62z"/>
		<path class="st2" d="M826.75,1225.03c0-8.35-0.26-16.72,0.08-25.05c0.32-7.89,4.72-12.34,11.46-12.51
			c6.95-0.17,11.85,4.61,11.98,12.79c0.27,16.96,0.27,33.92,0.02,50.88c-0.12,8.14-5.04,13.05-11.91,12.93
			c-6.91-0.12-11.37-4.89-11.64-13.21c-0.28-8.6-0.06-17.21-0.06-25.82C826.7,1225.03,826.72,1225.03,826.75,1225.03z"/>
		<path class="st2" d="M1011.03,1225.53c0-6.06-0.29-12.14,0.07-18.18c0.43-7.2,4.91-11.26,11.66-11.29
			c6.55-0.03,11.39,4.18,11.61,11.36c0.37,12.37,0.37,24.77-0.06,37.13c-0.23,6.69-4.38,10.58-11.27,10.83
			c-6.85,0.25-11.46-3.78-11.91-10.92c-0.4-6.29-0.08-12.62-0.08-18.94C1011.05,1225.53,1011.04,1225.53,1011.03,1225.53z"/>
		<path class="st2" d="M1126.67,1225.93c0,4.31,0.35,8.65-0.08,12.91c-0.71,7-5.64,11.3-12.17,10.95
			c-6.88-0.37-10.92-4.35-11.26-11.03c-0.44-8.84-0.47-17.75,0.08-26.59c0.42-6.75,4.79-10.52,11.64-10.53
			c6.9-0.01,10.87,4,11.67,10.61c0.54,4.49,0.1,9.11,0.1,13.67C1126.66,1225.93,1126.66,1225.93,1126.67,1225.93z"/>
		<path class="st2" d="M734.43,1225.96c0-3.3-0.3-6.63,0.07-9.88c0.7-6.22,4.2-10.34,10.54-11.05c6.75-0.76,11.91,2.49,12.79,9.12
			c0.99,7.46,1,15.23,0.13,22.71c-0.77,6.58-5.62,9.93-12.5,9.57c-6.15-0.32-10.6-4.84-11-11.34
			C734.27,1232.05,734.43,1229,734.43,1225.96z"/>
	</g>
	<g class="st0">
		<path class="st2" d="M1714.41,1545.88c-13.78-2.26-27.85-3.42-41.29-6.95c-101.26-26.57-166.82-90.56-190.03-192.46
			c-31.48-138.23,55.16-271.24,193.42-302.34c11.59-2.61,23.59-3.4,35.39-5.07c2.23-0.32,4.43-0.81,6.65-1.22
			c7.36,0,14.73,0,22.09,0c2.24,0.38,4.48,0.77,6.72,1.13c16.27,2.67,32.9,4,48.77,8.2c124.71,33,207.65,157.36,183.64,290.75
			c-17.62,97.9-94.65,179.43-191.66,201.02c-13.81,3.07-27.96,4.66-41.95,6.94C1735.58,1545.88,1724.99,1545.88,1714.41,1545.88z
			 M1959.02,1292.07c0.07-126.44-102.16-228.99-228.42-229.13c-126.3-0.14-228.9,102.28-228.99,228.61
			c-0.1,126.65,101.98,229.31,228.11,229.42C1856.66,1521.08,1958.95,1418.97,1959.02,1292.07z"/>
		<path class="st2" d="M489.86,1203.5c25.5-13.55,51.05-27.03,76.5-40.68c39.63-21.26,79.19-42.64,118.78-63.95
			c1.8-0.97,3.67-1.83,5.9-2.93c4.02,6.76,8.09,13.39,11.96,20.13c14.41,25.07,28.72,50.19,43.17,75.24
			c2.74,4.75,3.35,7.96-2.21,11.76c-9.44,6.45-13.24,16.89-15.19,27.66c-2.28,12.59-8.16,22.92-17.8,30.99
			c-20.8,17.42-41.87,34.65-66.39,46.6c-14.77,7.2-30.26,13.1-45.82,18.41c-6.69,2.28-14.45,2.29-21.63,1.83
			c-2.77-0.18-5.84-4.14-7.81-7.04c-25.22-37-50.26-74.12-75.37-111.2c-1.27-1.87-2.72-3.62-4.09-5.43
			C489.86,1204.42,489.86,1203.96,489.86,1203.5z"/>
		<path class="st2" d="M646.6,1476.88c-13.71-14.58-27.29-28.26-40-42.7c-20.08-22.81-31.5-49.85-36.47-79.67
			c-1.72-10.32,0.55-13.67,9.93-13.47c17.14,0.37,33.04-4.7,47.25-13.01c27.9-16.31,55.16-33.78,82.01-51.77
			c9.01-6.04,17.37-14.18,23.47-23.1c5.5-8.03,8.38-18.21,10.87-27.85c5.06-19.64,17.59-28.37,37.5-24.84
			c52.95,9.4,106.38,11.57,160.01,10.52c18.16-0.36,36.32-0.92,54.48-1.5c35.2-1.13,68.97-9.56,102.17-20.55
			c18.69-6.19,37.28-12.72,55.74-19.55c28.87-10.67,57.82-3.46,78.25,19.63c2.46,2.78,6.12,4.51,9.21,6.75
			c2.39,1.73,5.21,3.12,7.06,5.31c6.07,7.18,4.79,13.43-3.52,17.9c-28.48,15.35-56.93,30.78-85.53,45.9
			c-63.7,33.67-127.14,67.82-191.34,100.5c-44.26,22.53-91.93,35.18-140.99,42.5c-1.13,0.17-2.27,0.38-3.36,0.7
			c-0.64,0.19-1.21,0.62-2.24,1.18c3.31,5.77,6.78,11.37,9.81,17.21c4.07,7.83,2.62,13.08-5.03,17.22
			c-49.64,26.87-99.37,53.6-149.02,80.46c-5.57,3.01-9.34,2.02-12.55-3.46c-6.15-10.5-12.25-21.06-19.08-31.11
			C641.25,1484.26,639.95,1479.92,646.6,1476.88z"/>
		<path class="st2" d="M1225.9,1298.71c-0.04,8.59-5.7,13.06-12.4,16.67c-31.29,16.86-62.6,33.67-93.9,50.51
			c-15.35,8.26-30.66,16.59-46.06,24.75c-4.44,2.35-9.02,4.56-13.74,6.22c-9.61,3.39-19.03-0.45-23.32-9.07
			c-4.58-9.2-1.99-18.68,7.23-24.42c6.41-3.99,13.22-7.35,19.88-10.94c38.76-20.87,77.51-41.77,116.31-62.56
			c6.46-3.46,12.99-6.89,19.77-9.62C1213.23,1274.77,1226.06,1283.98,1225.9,1298.71z"/>
		<path class="st2" d="M1130.79,1366.48c8.67-4.62,16.9-9,25.52-13.59c3.65,4.76,7.03,9.07,10.29,13.46
			c19.22,25.87,44.24,43.76,74.61,54.29c10.63,3.69,10.84,3.99,10.62,15.2c-0.06,2.76-0.03,5.52-0.03,8.28c0,2.51,0,5.03,0,7.52
			C1215.84,1454.12,1154.97,1411.41,1130.79,1366.48z"/>
		<path class="st2" d="M1567.67,1292.36c13.22,0,24.9,0,37.3,0c1.88,43.35,19.67,78.33,55.53,103.09
			c22.8,15.74,48.43,22.46,76.19,21.3c58.91-2.46,116.38-50.12,118.96-124.62c6.03,0,12.13,0,18.24,0c5.93,0,11.86,0,18.95,0
			c-1.98,56.71-24.35,102.35-70.97,133.46c-57.49,38.36-118.04,39.76-177.11,3.9C1594.38,1398.89,1570.2,1351.76,1567.67,1292.36z"
			/>
		<path class="st2" d="M1806.42,1253.38c-14-0.04-24.75-10.83-24.76-24.87c-0.02-13.92,10.89-24.98,24.68-25.05
			c14.05-0.06,25.55,11.41,25.35,25.3C1831.49,1242.56,1820.35,1253.42,1806.42,1253.38z"/>
		<path class="st2" d="M1654.24,1253.38c-13.91,0.04-25.1-10.83-25.34-24.6c-0.23-13.73,11.48-25.41,25.4-25.33
			c13.79,0.08,24.78,11.2,24.75,25.06C1679.02,1242.48,1668.18,1253.34,1654.24,1253.38z"/>
	</g>
	<g class="st0">
		<path class="st2" d="M1252.28,2001.2c-15.58-2.3-31.27-3.99-46.71-6.99c-114.07-22.23-202.26-110.7-222.67-224.77
			c-4.62-25.83-6.17-52.42-6.78-78.71c-2.57-111.19-4.29-222.41-6.23-333.61c-0.54-31.1-0.73-62.21-1.17-93.32
			c-1.05-73.44,27-134.59,79.15-185.11c51.82-50.2,114.02-79.74,185.57-87.9c68.28-7.78,132.72,4.97,192.73,39.74
			c47.69,27.63,87.49,63.01,114.7,111.32c21.87,38.84,32.58,80.61,30.7,125.44c-3.91,93.22-7.41,186.46-11.46,279.67
			c-2.51,57.74-5.08,115.49-8.73,173.16c-5,78.91-32.47,148.37-90.55,203.71c-44.01,41.93-96.7,66.21-156.96,74.04
			c-8.97,1.16-17.96,2.22-26.94,3.33C1268.72,2001.2,1260.5,2001.2,1252.28,2001.2z M1519.51,1318.56c0.53,0,1.05,0.01,1.58,0.01
			c0-19.95,0-39.9,0-59.84c0.01-48.96-14.62-92.71-46.46-130.31c-28-33.07-63.95-55.46-103.45-70.88
			c-87.2-34.03-172.11-23.35-251.39,23.37c-63.92,37.67-98.63,96.04-100.38,171.01c-1.19,51.3,0.76,102.68,1.72,154.02
			c1.78,95.05,3.76,190.1,5.87,285.15c0.84,37.77,1.4,75.52,15.65,111.57c26.47,66.96,72.68,113.5,141.38,135.73
			c34.27,11.09,69.98,13.31,106.07,10.27c79.06-6.66,140.98-39.52,178.08-112.68c15.25-30.08,27.87-61.05,30.28-94.68
			c4.55-63.47,7.59-127.06,10.68-190.63C1512.91,1473.31,1516.08,1395.93,1519.51,1318.56z"/>
		<path class="st2" d="M966.95,498.8c15.15,5.36,19.67,16.65,18.5,31.77c-2.71,35.08-4.52,70.23-7.63,105.26
			c-4.31,48.46,24.22,93.42,72.6,113.07c24.25,9.85,49.7,12.85,75.56,14.19c24.58,1.28,49.44,1.29,73.62,5.26
			c47.44,7.78,80.12,34.91,93.15,81.94c5.17,18.68,6.96,38.47,8.62,57.9c1.18,13.78-9.53,24.55-22.44,25.61
			c-13.35,1.1-23.83-7.22-26.36-21.65c-2.22-12.68-3.1-25.63-5.74-38.21c-5.03-23.91-15.25-45.04-39.95-53.82
			c-11.34-4.03-24-4.91-36.16-5.94c-32.4-2.75-65.28-2.32-97.19-7.73c-50.23-8.51-92.8-32.28-122.01-75.68
			c-15.37-22.83-24.52-48.25-23.18-76.07c2.1-43.61,5.21-87.18,8.27-130.74c0.82-11.66,7.46-20.02,18.01-25.15
			C958.73,498.8,962.84,498.8,966.95,498.8z"/>
		<path class="st2" d="M1247.13,1251.84c0-28.72-0.3-57.44,0.13-86.15c0.22-14.55,8.73-23.83,21.65-25.51
			c11.08-1.45,23,6.36,26.32,17.58c0.89,3.01,1.04,6.34,1.01,9.52c-0.53,54.52-1.12,109.04-1.8,163.56
			c-0.05,3.77-0.76,7.56-1.46,11.29c-2.84,15.23-12.83,22.62-28.95,21.55c-10.17-0.67-18.32-10.22-18.61-23.91
			c-0.54-25.2-0.24-50.42-0.28-75.62c-0.01-4.1,0-8.21,0-12.31C1245.79,1251.84,1246.46,1251.84,1247.13,1251.84z"/>
	</g>
	<g>
		<path d="M759.55,1310.35c0-251.01,1.2-502.04-0.76-753.03c-0.56-72.2,52.21-133.71,133.7-133.15
			c225.57,1.56,451.15,0.5,676.72,0.56c80.52,0.02,131.73,51,131.73,131.18c0.04,503.47,0.04,1006.93,0,1510.4
			c-0.01,80.15-51.28,131.02-131.76,131.02c-226.54,0.02-453.07,0.02-679.61,0c-78.53-0.01-130-51.26-130.01-129.61
			C759.52,1815.25,759.55,1562.8,759.55,1310.35z M1616.89,1941.09c0-420.97,0-840.19,0-1259.87c-258.34,0-515.7,0-773.21,0
			c0,420.49,0,839.76,0,1259.87C1101.66,1941.09,1358.68,1941.09,1616.89,1941.09z M1229.84,1995.36
			c-42.24,0.11-75.65,33.7-75.54,75.94c0.11,41.96,34.25,75.92,76.1,75.71c41.72-0.21,76.09-34.75,75.9-76.28
			C1306.12,2028.86,1272.02,1995.25,1229.84,1995.36z M1230.19,563.31c22.51,0,45.01-0.06,67.52,0.03
			c8.32,0.03,15.26-0.61,15.38-11.87c0.11-10.89-6-12.52-14.76-12.5c-45.49,0.12-90.99,0.16-136.48-0.03
			c-9.01-0.04-14.82,2.03-14.69,12.62c0.14,11.11,7.11,11.85,15.5,11.8C1185.17,563.22,1207.68,563.31,1230.19,563.31z"/>
	</g>
</g>
</svg>
