<svg viewBox="0 0 2500 2500" xmlns="http://www.w3.org/2000/svg" xmlns:xlink="http://www.w3.org/1999/xlink" overflow="hidden"><g id="Layer_2" display="none"><rect x="-436.34" y="-55.66" width="3319.13" height="2854.34" fill="#FFFFFF"/></g><g id="Layer_1"><g display="none"><path d="M637.67 1015.61C661.09 1033.38 688.93 1037.34 716.87 1041.09 724.11 1042.06 731.24 1044.06 738.5 1044.53 742.68 1044.8 747.97 1044.21 751.1 1041.83 810.94 996.38 891.24 1010.38 931.92 1060.01 932.06 1060.18 932.46 1060.13 933.58 1060.34 933.58 1054.95 933.58 1049.64 933.58 1044.61 950.62 1041.4 967.04 1039.24 982.92 1035.05 998.68 1030.9 1013.9 1024.72 1029.48 1019.39 1035.95 1035.89 1029.38 1061.8 1011.85 1068 992.17 1074.96 972.21 1081.12 952.4 1087.7 950.34 1088.38 948.42 1089.5 946.37 1090.44 947.01 1094.02 947.57 1097.18 948.41 1101.85 954.14 1101.85 960.01 1101.74 965.87 1101.88 988.48 1102.43 1006.59 1120.84 1007.06 1143.45 1007.41 1160.59 1007.35 1177.75 1007.08 1194.89 1006.65 1221.76 992.61 1235.89 965.72 1237.72 962.58 1237.93 941.64 1240.04 938.13 1239.8 938.12 1239.8 938.11 1239.8 938.09 1239.8 936.03 1239.72 934.28 1238.32 933.69 1236.35 932.03 1230.75 929.92 1225.15 929.85 1219.53 929.41 1184.8 929.83 1150.07 929.74 1115.34 929.65 1075.98 896.87 1040.91 854.64 1037.16 874 1049.14 891.51 1059.98 910.09 1071.48 882.88 1087.88 857.45 1103.22 830.78 1119.29L830.78 1093.47C826.94 1093.47 823.53 1093.69 820.16 1093.43 795.55 1091.58 770.95 1089.45 746.32 1087.98 743.61 1087.82 738.86 1090.81 738.21 1093.2 736.36 1099.99 735.45 1107.22 735.4 1114.29 735.14 1149.35 735.3 1184.4 735.28 1219.46 735.27 1236.21 733.93 1237.51 716.8 1237.54 709.98 1237.55 703.16 1237.66 696.35 1237.35 674.36 1236.36 659.02 1221.91 658.12 1199.87 657.29 1179.78 657.24 1159.6 658.14 1139.52 659.14 1117.14 674.85 1102.78 697.38 1101.87 698.68 1101.82 699.98 1101.85 701.27 1101.84 717.85 1101.73 717.85 1101.73 719.62 1084.7 696.49 1079.39 672.05 1077.76 652.48 1062.38 646.59 1057.75 642.56 1050.76 637.67 1044.85L637.67 1015.61ZM716.49 1120.81C708.07 1120.81 700.5 1120.34 693 1120.96 683.96 1121.71 676.93 1129.13 676.78 1138.2 676.44 1159.01 676.41 1179.83 676.78 1200.64 676.94 1209.68 682.04 1216.26 691.05 1217.83 699.18 1219.25 707.59 1219.01 716.48 1219.54L716.48 1120.81ZM949.63 1218.33C956.61 1218.33 962.71 1218.63 968.76 1218.26 979.74 1217.59 987.37 1210.81 987.67 1199.9 988.23 1179.51 988.18 1159.08 987.61 1138.69 987.37 1130.24 982.38 1123.66 973.65 1122.25 965.89 1120.99 957.88 1121.35 949.63 1120.97L949.63 1218.33ZM781.91 1047.98 829.86 1047.98 829.86 1034.13C812.24 1034.59 796.23 1037.71 781.91 1047.98Z" fill="#FFFFFF"/><path d="M637.67 1448.18C639.54 1441.7 641.37 1435.22 643.29 1428.76 652.62 1397.35 670.26 1373.78 703.23 1364.11 715.66 1360.47 727.78 1355.77 739.99 1351.43 765.02 1342.54 774.88 1314.42 761.07 1291.97 756.83 1285.08 752.85 1277.99 749.25 1270.74 740.54 1253.21 740.66 1253.15 754.95 1237.71 756.19 1240.48 757.21 1242.97 758.41 1245.37 764.51 1257.51 769.54 1270.36 777 1281.6 796.08 1310.33 784.4 1352.86 752.6 1366.01 738.53 1371.83 724.29 1377.42 709.72 1381.77 684.94 1389.18 670.3 1405.73 663.45 1429.9 661.33 1437.37 660.6 1445.23 658.41 1452.67 655.35 1463.08 659.39 1470.66 668.46 1474.02 685.07 1480.18 701.92 1486.65 719.26 1489.74 799.3 1504.02 879.42 1503.61 959.16 1487.06 971.44 1484.51 983.31 1479.7 995.11 1475.26 1004.97 1471.55 1008.87 1463.62 1006.89 1453.39 1004.93 1443.25 1003.3 1432.85 999.69 1423.25 992.76 1404.83 980.03 1391.36 961.16 1384.46 945.33 1378.67 929.28 1373.47 913.64 1367.22 889.24 1357.48 874.24 1329.73 879.47 1303.94 880.08 1300.93 884.52 1297.77 887.88 1296.5 891.27 1295.22 895.51 1296.22 896.79 1296.22 898.6 1308.64 898.59 1320.86 902.58 1331.59 905.16 1338.52 912.68 1345.16 919.64 1348.57 932.07 1354.65 945.59 1358.69 958.92 1362.7 992.47 1372.8 1012.42 1395.51 1021.39 1428.66 1023.33 1435.84 1024.36 1443.26 1026.03 1450.52 1029.95 1467.53 1022.6 1479.51 1008.99 1488.52 991.56 1500.06 971.7 1505.08 951.46 1508.29 930.34 1511.64 909.03 1513.87 887.82 1516.65 884.96 1517.03 882.14 1517.75 879.3 1518.32 848.77 1518.32 818.25 1518.32 787.72 1518.32 782.31 1517.61 776.92 1516.73 771.49 1516.23 737.87 1513.12 704.46 1509.08 672.63 1496.83 657.01 1490.82 643.54 1482.6 637.69 1465.71 637.67 1459.88 637.67 1454.03 637.67 1448.18Z" fill="#FFFFFF"/><path d="M822.78 953.26C822.78 958.73 822.78 964.21 822.78 970.45 826.41 970.61 829.55 970.76 832.69 970.89 862.96 972.2 893.37 972.12 923.44 975.24 947.62 977.75 972.33 979.84 995 990.38 997.86 991.71 1000.69 993.13 1003.4 994.72 1008.99 998 1015.25 1001.62 1012.66 1009.34 1010.32 1016.32 996.87 1020.25 989.55 1017.25 967.55 1008.25 944.5 1003.85 920.94 1001.79 891.26 999.19 861.58 996.63 831.89 994.11 829.34 993.89 826.75 994.08 823.1 994.08 822.84 1000 822.59 1005.56 822.27 1012.79 805.36 1002.57 789.72 993.12 773.12 983.1 788.98 972.75 803.93 963 818.87 953.25 820.18 953.26 821.48 953.26 822.78 953.26Z" fill="#FFFFFF"/><path d="M1599.13 1432.76C1600.58 1446.19 1607.46 1449.34 1618.14 1448.2 1625.52 1447.41 1633.07 1447.85 1640.53 1448.12 1650.27 1448.47 1656.63 1454.2 1657.01 1462.5 1657.42 1471.31 1651.33 1477.68 1641.06 1478.4 1634.27 1478.88 1627.43 1478.56 1620.61 1478.56 1576.45 1478.57 1532.29 1478.57 1488.13 1478.56 1485.21 1478.56 1482.26 1478.7 1479.37 1478.37 1469.75 1477.29 1463.59 1471.07 1463.81 1462.9 1464.03 1454.69 1470.55 1448.59 1480.05 1448.12 1485.88 1447.83 1491.83 1447.38 1497.56 1448.18 1508.33 1449.68 1513.05 1444.69 1514.17 1433.55 1414.66 1433.55 1315.25 1433.55 1215.16 1433.55 1215.16 1297.16 1215.16 1161.92 1215.16 1025.87 1444.96 1025.87 1674.94 1025.87 1905.56 1025.87 1905.56 1161.04 1905.56 1296.28 1905.56 1432.76 1803.59 1432.76 1701.57 1432.76 1599.13 1432.76ZM1560.18 1414.96C1664.1 1414.96 1768.02 1414.96 1871.94 1414.96 1885.96 1414.96 1886.42 1414.5 1886.42 1400.85 1886.42 1286.54 1886.42 1172.22 1886.42 1057.91 1886.42 1043.34 1886.18 1043.09 1871.73 1043.09 1664.21 1043.09 1456.7 1043.08 1249.18 1043.09 1235.13 1043.09 1234.6 1043.64 1234.6 1058.14 1234.6 1172.13 1234.6 1286.12 1234.6 1400.1 1234.6 1414.35 1235.2 1414.96 1249.38 1414.96 1352.99 1414.96 1456.58 1414.96 1560.18 1414.96Z" fill="#FFFFFF"/><path d="M746.27 973.49C746.27 982.96 746.27 989.96 746.27 994.59 721.47 1001.09 697.44 1006.63 673.98 1013.99 666.9 1016.21 662.6 1015.67 657.71 1011.19 650.88 1004.94 651.08 998.01 659.5 994.44 671.41 989.4 683.68 984.76 696.24 981.85 712.29 978.13 728.78 976.31 746.27 973.49Z" fill="#FFFFFF"/><path d="M1487.18 1262.37C1477.47 1263.59 1469.83 1264.55 1461.06 1265.64 1466.17 1277.23 1470.95 1288.04 1476.02 1299.52 1472.87 1301.12 1470.1 1302.52 1466.88 1304.15 1461.72 1292.57 1456.78 1281.5 1451.41 1269.47 1445.04 1275.34 1439.62 1280.33 1433.06 1286.37 1433.06 1261.22 1433.06 1237.32 1433.06 1211.89 1451.24 1228.85 1468.6 1245.05 1487.18 1262.37Z" fill="#FFFFFF"/><path d="M1450.18 1157.18C1454.64 1163.11 1458.45 1168.18 1462.91 1174.11 1459.97 1175.02 1457.58 1175.76 1454.89 1176.59 1454.65 1181.83 1454.41 1186.93 1454.18 1191.93 1445.93 1192.74 1445.93 1192.74 1444.93 1176.23 1442.81 1175.72 1440.54 1175.18 1437.45 1174.45 1441.84 1168.51 1445.75 1163.2 1450.18 1157.18Z" fill="#FFFFFF"/><path d="M1379.12 1240.41C1379.89 1243.77 1380.43 1246.11 1381.01 1248.63 1386.49 1248.88 1391.58 1249.12 1396.59 1249.35 1397.4 1257.6 1397.4 1257.6 1380.89 1258.6 1380.39 1260.72 1379.84 1262.99 1379.12 1266.03 1373.36 1261.82 1368.21 1258.05 1361.76 1253.34 1367.5 1249.07 1372.71 1245.18 1379.12 1240.41Z" fill="#FFFFFF"/><path d="M1517.07 1240.22C1523.51 1244.99 1528.62 1248.77 1534.61 1253.21 1528.77 1257.6 1523.51 1261.57 1517.41 1266.16 1516.68 1263.09 1516.15 1260.84 1515.83 1259.48 1510.51 1255.05 1498.72 1264.16 1498.96 1250.87 1504.7 1245.6 1516.51 1255.15 1517.07 1240.22Z" fill="#FFFFFF"/><path d="M1452.93 1315.83C1457.26 1322.64 1448.81 1333.49 1463.31 1333.83 1458.83 1339.9 1454.9 1345.22 1450.34 1351.41 1445.89 1345.48 1441.94 1340.2 1437.4 1334.14 1440.49 1333.42 1442.74 1332.9 1443.66 1332.68 1448.82 1327.39 1438.95 1315.12 1452.93 1315.83Z" fill="#FFFFFF"/></g><g display="none"><path d="M462.28 947.9C480.4 955.57 500.13 960.8 516.27 971.47 543.08 989.18 555 1016.84 555.25 1048.84 555.63 1099.32 555.47 1149.8 555.33 1200.28 555.17 1256.57 513.53 1300.09 458.9 1301.34 405.16 1302.56 360.31 1259.31 359.29 1203.52 358.34 1151.73 358.42 1099.89 359.29 1048.1 360.09 999.99 391.32 963.16 438.01 952.58 442.67 951.52 447.11 949.49 451.65 947.91 455.19 947.9 458.74 947.9 462.28 947.9Z" fill="#FFFFFF"/><path d="M281.37 1160.74C286.59 1149.04 294.77 1141.37 308.29 1145.12 322.01 1148.92 323.6 1160.39 323.55 1172.72 323.48 1189.98 322.42 1207.5 324.86 1224.47 334.23 1289.84 394.26 1339.17 460.39 1337.16 528.84 1335.08 584.07 1284.3 590.32 1217.03 591.83 1200.76 591.33 1184.3 591.78 1167.93 592.22 1152.16 599.29 1144.17 612.52 1144.44 624.76 1144.69 632.32 1153.14 632.62 1167.54 633.4 1204.82 633.79 1242.14 616.59 1276.73 591.05 1328.06 551.27 1361.75 494.6 1374.19 489.49 1375.31 484.39 1376.46 478.7 1377.72 478.7 1389.48 478.7 1400.81 478.7 1414.22 498.61 1414.22 518.35 1414.21 538.09 1414.23 543.41 1414.23 548.78 1413.82 554.03 1414.45 564.72 1415.73 572.43 1421.13 573.95 1432.44 575.47 1443.71 569.61 1451.1 559.62 1455.18 556.06 1456.63 551.88 1457.13 547.99 1457.14 487.29 1457.25 426.59 1457.23 365.89 1457.16 362.83 1457.16 359.52 1457.08 356.75 1455.98 346.5 1451.92 338.88 1445.11 340.39 1433.1 341.95 1420.73 350.46 1414.61 362.48 1414.36 381.97 1413.94 401.47 1414.24 420.96 1414.23 425.7 1414.23 430.43 1414.23 436.5 1414.23 436.5 1403.05 437.4 1393.29 436 1383.86 435.53 1380.67 429.6 1376.65 425.6 1375.85 372.48 1365.28 331.65 1336.81 305.52 1289.81 295.23 1271.3 290.98 1249.44 283.96 1229.1 283.13 1226.7 282.23 1224.32 281.37 1221.94 281.37 1201.53 281.37 1181.14 281.37 1160.74Z" fill="#FFFFFF"/><path d="M1843.92 1234.08C1843.92 1205.86 1843.92 1180.39 1843.92 1153.5 1835.23 1153.5 1827.03 1153.5 1816.42 1153.5 1819.04 1141.64 1810.22 1129.55 1824.77 1121.02 1822.59 1115.81 1820.13 1110.2 1817.88 1104.52 1809.68 1083.8 1811.32 1064.36 1827.03 1047.76 1841.39 1032.59 1867.04 1027.06 1887.23 1038.39 1903.81 1047.69 1918.73 1061.02 1931.97 1074.87 1943.45 1086.89 1951.13 1102.47 1961.38 1115.79 1964.31 1119.59 1970.26 1122.93 1974.98 1123.16 1993.02 1124.01 2011.12 1123.5 2030.01 1123.5 2030.01 1133.42 2030.01 1142.07 2030.01 1152.85 2020.98 1152.85 2011.88 1152.85 2002.77 1152.85 1993.56 1152.85 1984.35 1152.85 1973.61 1152.85 1973.61 1226.7 1973.61 1299.18 1973.61 1372.57 1962.54 1372.57 1953.02 1372.57 1941.95 1372.57 1941.95 1300.15 1941.95 1227.68 1941.95 1154.03 1919.58 1154.03 1898.7 1154.03 1876.27 1154.03 1876.27 1226.9 1876.27 1299.36 1876.27 1372.65 1865.29 1372.65 1855.82 1372.65 1844.59 1372.65 1844.59 1339.28 1844.59 1306.38 1844.59 1269.58 1811.48 1296.12 1781.33 1320.28 1750.36 1345.09 1743.93 1335.51 1738.07 1326.78 1731.25 1316.62 1758.18 1295.99 1784.61 1275.73 1813.1 1253.89 1791.12 1244.19 1771.6 1235.11 1751.61 1227.21 1748.46 1225.96 1742.55 1229.15 1739.03 1231.78 1718.43 1247.15 1698.18 1262.98 1677.77 1278.61 1673.99 1281.51 1670.04 1284.18 1665.33 1287.55 1658.78 1277.83 1652.92 1269.14 1646.32 1259.36 1668.6 1243.5 1690.06 1228.22 1711.53 1212.93 1685.66 1179.42 1683.81 1157.51 1704.54 1137.37 1725.65 1116.86 1758.55 1115 1780.92 1133.05 1801.31 1149.51 1802.44 1174.52 1783.04 1206.67 1802.66 1215.52 1822.06 1224.25 1843.92 1234.08ZM1930.89 1123.41C1924.04 1113.55 1919.94 1106.13 1914.41 1100.01 1903.85 1088.31 1893.4 1076.17 1881.12 1066.47 1871.38 1058.78 1858.92 1060.28 1849.31 1068.57 1839.93 1076.66 1840.8 1087.36 1845.66 1097.72 1848.84 1104.49 1852.34 1111.18 1856.4 1117.44 1858.08 1120.04 1861.56 1123.09 1864.28 1123.15 1885.31 1123.62 1906.35 1123.41 1930.89 1123.41ZM1742.78 1150.11C1730.63 1150.27 1720.52 1160.22 1720.76 1171.77 1721 1183.49 1731.13 1192.87 1743.42 1192.75 1756.09 1192.62 1765.14 1183.57 1765.02 1171.14 1764.9 1158.98 1755.34 1149.95 1742.78 1150.11Z" fill="#FFFFFF"/><path d="M1486.57 1229.98C1495.74 1181.99 1458.27 1130.15 1417.99 1132.55 1435.02 1159.27 1435.52 1174.5 1420.01 1193.47 1404.58 1212.34 1376.64 1220.39 1355.2 1212.14 1332.67 1203.47 1316.32 1177.17 1318.36 1152.89 1320.24 1130.57 1339.07 1108.14 1362.56 1103.79 1436.89 1090 1500.9 1124.11 1516.06 1194.64 1518.42 1205.63 1517.54 1217.31 1518.2 1229.31 1527.27 1229.31 1535.91 1229.31 1546.24 1229.31 1546.24 1207.57 1546.24 1186.43 1546.24 1165.28 1546.24 1144.55 1546.24 1123.83 1546.24 1102.1 1555.88 1102.1 1563.99 1102.1 1573.02 1102.1 1573.02 1187.46 1573.02 1272.34 1573.02 1357.02 1571.91 1357.68 1571.19 1358.46 1570.4 1358.53 1546.24 1360.94 1546.24 1360.93 1546.24 1336.76 1546.24 1311.19 1546.24 1285.61 1546.24 1258.72 1534.82 1258.72 1525.09 1258.07 1515.55 1259.09 1512.44 1259.42 1508.68 1263.63 1507.13 1266.95 1484.02 1316.47 1447.61 1348.18 1392.07 1356.36 1354.44 1361.9 1317.36 1359.84 1282.05 1346.85 1264.34 1340.33 1247.84 1328.48 1233.19 1316.19 1216.67 1302.33 1215.54 1281.83 1220.38 1262.13 1225.53 1241.16 1243.12 1230.06 1268.18 1230.01 1336 1229.89 1403.81 1229.97 1471.63 1229.97 1476.44 1229.98 1481.25 1229.98 1486.57 1229.98ZM1478.83 1260C1474.95 1259.38 1472.91 1258.77 1470.86 1258.77 1402.24 1258.72 1333.62 1258.62 1265.01 1258.81 1251.75 1258.85 1245.98 1266.16 1247.73 1279.5 1250.87 1303.42 1266.51 1318.11 1288.27 1321.15 1321.75 1325.83 1355.87 1327.55 1389.7 1327.26 1403.9 1327.14 1419.27 1320.8 1431.9 1313.48 1452.67 1301.46 1468.81 1283.98 1478.83 1260ZM1347.14 1159.87C1347.34 1174.91 1360.26 1187.33 1375.45 1187.09 1390.07 1186.86 1403.33 1173.59 1403.49 1159.03 1403.65 1144.32 1389.05 1130.33 1374.15 1130.92 1359.71 1131.47 1346.94 1145.17 1347.14 1159.87Z" fill="#FFFFFF"/><path d="M2078.05 1371.88C2088.69 1342.28 2098.61 1314.54 2108.64 1286.84 2129.84 1228.32 2151.28 1169.89 2172.14 1111.25 2175.26 1102.48 2179.09 1098.3 2188.98 1099.11 2202.59 1100.24 2219.62 1095.08 2229.07 1101.54 2238.37 1107.91 2240.37 1125.31 2245 1138.08 2271.49 1211.1 2297.81 1284.17 2324.18 1357.23 2325.66 1361.33 2327.08 1365.46 2329.3 1371.75 2313.73 1371.75 2299.39 1372.14 2285.1 1371.38 2282.6 1371.25 2279.4 1366.64 2278.17 1363.46 2273.38 1351.11 2269.03 1338.58 2264.96 1325.97 2262.95 1319.73 2259.91 1316.96 2252.79 1317.04 2220.03 1317.45 2187.25 1316.96 2154.5 1317.58 2150.7 1317.65 2145.13 1321.82 2143.57 1325.45 2138.2 1337.99 2134.6 1351.28 2129.49 1363.95 2128.17 1367.22 2123.91 1371.31 2120.79 1371.51 2107.22 1372.35 2093.55 1371.88 2078.05 1371.88ZM2161.39 1274.07C2190.62 1274.07 2217.83 1274.07 2246.54 1274.07 2232.48 1234.14 2218.85 1195.45 2205.22 1156.76 2204.28 1156.9 2203.34 1157.05 2202.4 1157.19 2188.86 1195.78 2175.33 1234.36 2161.39 1274.07Z" fill="#FFFFFF"/><path d="M942.75 1225.72C942.75 1264.76 942.79 1303.8 942.67 1342.84 942.66 1346.29 942.65 1350.65 940.7 1352.95 938.27 1355.82 933.86 1358.41 930.24 1358.48 926.96 1358.55 923.06 1355.63 920.47 1353.01 918.84 1351.36 918.61 1347.83 918.6 1345.14 918.51 1265.79 918.51 1186.45 918.55 1107.1 918.56 1098.3 922.25 1093.3 928.75 1092.57 937.37 1091.6 942.61 1096.59 942.69 1106.32 942.82 1122.04 942.73 1137.75 942.73 1153.47 942.75 1177.56 942.75 1201.64 942.75 1225.72Z" fill="#FFFFFF"/><path d="M988.6 1225.72C988.6 1249.56 988.61 1273.4 988.59 1297.24 988.59 1299.77 988.76 1302.39 988.22 1304.82 986.91 1310.67 983.02 1314.26 977.05 1314.45 971.48 1314.63 967.24 1311.75 965.69 1306.19 964.82 1303.07 964.45 1299.72 964.44 1296.47 964.36 1249.3 964.39 1202.13 964.39 1154.96 964.39 1153.95 964.36 1152.93 964.41 1151.92 964.88 1142.52 969.85 1136.61 977.07 1136.88 984.3 1137.15 988.54 1142.49 988.57 1151.92 988.65 1176.52 988.6 1201.12 988.6 1225.72Z" fill="#FFFFFF"/><path d="M872.75 1225.77C872.74 1202.71 872.71 1179.65 872.79 1156.59 872.8 1153.86 872.54 1150.29 874.06 1148.58 876.79 1145.5 880.84 1141.52 884.23 1141.62 888.07 1141.74 892.38 1145.37 895.33 1148.55 897.01 1150.36 896.74 1154.31 896.74 1157.3 896.82 1202.91 896.79 1248.53 896.79 1294.14 896.79 1294.9 896.81 1295.66 896.78 1296.42 896.35 1305.66 892.06 1310.48 884.3 1310.44 877.17 1310.41 872.84 1305.44 872.79 1296.47 872.67 1272.9 872.75 1249.33 872.75 1225.77Z" fill="#FFFFFF"/><path d="M1056.91 1225.69C1056.91 1206.4 1056.93 1187.11 1056.9 1167.83 1056.89 1162.12 1058.34 1157.31 1064.08 1154.79 1070.23 1152.09 1077.43 1154.9 1079.72 1161.17 1080.49 1163.27 1080.87 1165.63 1080.87 1167.88 1080.94 1206.2 1080.93 1244.52 1080.92 1282.85 1080.92 1284.11 1080.77 1285.39 1080.55 1286.63 1079.27 1293.82 1074.61 1298.09 1068.38 1297.83 1061.73 1297.55 1057.1 1292.71 1057.03 1285.09 1056.86 1265.3 1056.97 1245.5 1056.97 1225.7 1056.96 1225.69 1056.93 1225.69 1056.91 1225.69Z" fill="#FFFFFF"/><path d="M804.32 1225.62C804.33 1243.13 804.38 1260.64 804.31 1278.16 804.27 1287.44 799.99 1292.72 792.58 1292.97 785.83 1293.2 780.77 1288.09 780.68 1279.02 780.33 1243.24 780.31 1207.45 780.45 1171.67 780.48 1163.42 786.19 1158.1 793.15 1158.52 799.88 1158.92 804.22 1164.07 804.27 1172.33 804.4 1190.09 804.31 1207.86 804.32 1225.62Z" fill="#FFFFFF"/><path d="M826.75 1225.03C826.75 1216.68 826.49 1208.31 826.83 1199.98 827.15 1192.09 831.55 1187.64 838.29 1187.47 845.24 1187.3 850.14 1192.08 850.27 1200.26 850.54 1217.22 850.54 1234.18 850.29 1251.14 850.17 1259.28 845.25 1264.19 838.38 1264.07 831.47 1263.95 827.01 1259.18 826.74 1250.86 826.46 1242.26 826.68 1233.65 826.68 1225.04 826.7 1225.03 826.72 1225.03 826.75 1225.03Z" fill="#FFFFFF"/><path d="M1011.03 1225.53C1011.03 1219.47 1010.74 1213.39 1011.1 1207.35 1011.53 1200.15 1016.01 1196.09 1022.76 1196.06 1029.31 1196.03 1034.15 1200.24 1034.37 1207.42 1034.74 1219.79 1034.74 1232.19 1034.31 1244.55 1034.08 1251.24 1029.93 1255.13 1023.04 1255.38 1016.19 1255.63 1011.58 1251.6 1011.13 1244.46 1010.73 1238.17 1011.05 1231.84 1011.05 1225.52 1011.05 1225.53 1011.04 1225.53 1011.03 1225.53Z" fill="#FFFFFF"/><path d="M1126.67 1225.93C1126.67 1230.24 1127.02 1234.58 1126.59 1238.84 1125.88 1245.84 1120.95 1250.14 1114.42 1249.79 1107.54 1249.42 1103.5 1245.44 1103.16 1238.76 1102.72 1229.92 1102.69 1221.01 1103.24 1212.17 1103.66 1205.42 1108.03 1201.65 1114.88 1201.64 1121.78 1201.63 1125.75 1205.64 1126.55 1212.25 1127.09 1216.74 1126.65 1221.36 1126.65 1225.92 1126.66 1225.93 1126.66 1225.93 1126.67 1225.93Z" fill="#FFFFFF"/><path d="M734.43 1225.96C734.43 1222.66 734.13 1219.33 734.5 1216.08 735.2 1209.86 738.7 1205.74 745.04 1205.03 751.79 1204.27 756.95 1207.52 757.83 1214.15 758.82 1221.61 758.83 1229.38 757.96 1236.86 757.19 1243.44 752.34 1246.79 745.46 1246.43 739.31 1246.11 734.86 1241.59 734.46 1235.09 734.27 1232.05 734.43 1229 734.43 1225.96Z" fill="#FFFFFF"/></g><g display="none"><path d="M1714.41 1545.88C1700.63 1543.62 1686.56 1542.46 1673.12 1538.93 1571.86 1512.36 1506.3 1448.37 1483.09 1346.47 1451.61 1208.24 1538.25 1075.23 1676.51 1044.13 1688.1 1041.52 1700.1 1040.73 1711.9 1039.06 1714.13 1038.74 1716.33 1038.25 1718.55 1037.84 1725.91 1037.84 1733.28 1037.84 1740.64 1037.84 1742.88 1038.22 1745.12 1038.61 1747.36 1038.97 1763.63 1041.64 1780.26 1042.97 1796.13 1047.17 1920.84 1080.17 2003.78 1204.53 1979.77 1337.92 1962.15 1435.82 1885.12 1517.35 1788.11 1538.94 1774.3 1542.01 1760.15 1543.6 1746.16 1545.88 1735.58 1545.88 1724.99 1545.88 1714.41 1545.88ZM1959.02 1292.07C1959.09 1165.63 1856.86 1063.08 1730.6 1062.94 1604.3 1062.8 1501.7 1165.22 1501.61 1291.55 1501.51 1418.2 1603.59 1520.86 1729.72 1520.97 1856.66 1521.08 1958.95 1418.97 1959.02 1292.07Z" fill="#FFFFFF"/><path d="M489.86 1203.5C515.36 1189.95 540.91 1176.47 566.36 1162.82 605.99 1141.56 645.55 1120.18 685.14 1098.87 686.94 1097.9 688.81 1097.04 691.04 1095.94 695.06 1102.7 699.13 1109.33 703 1116.07 717.41 1141.14 731.72 1166.26 746.17 1191.31 748.91 1196.06 749.52 1199.27 743.96 1203.07 734.52 1209.52 730.72 1219.96 728.77 1230.73 726.49 1243.32 720.61 1253.65 710.97 1261.72 690.17 1279.14 669.1 1296.37 644.58 1308.32 629.81 1315.52 614.32 1321.42 598.76 1326.73 592.07 1329.01 584.31 1329.02 577.13 1328.56 574.36 1328.38 571.29 1324.42 569.32 1321.52 544.1 1284.52 519.06 1247.4 493.95 1210.32 492.68 1208.45 491.23 1206.7 489.86 1204.89 489.86 1204.42 489.86 1203.96 489.86 1203.5Z" fill="#FFFFFF"/><path d="M646.6 1476.88C632.89 1462.3 619.31 1448.62 606.6 1434.18 586.52 1411.37 575.1 1384.33 570.13 1354.51 568.41 1344.19 570.68 1340.84 580.06 1341.04 597.2 1341.41 613.1 1336.34 627.31 1328.03 655.21 1311.72 682.47 1294.25 709.32 1276.26 718.33 1270.22 726.69 1262.08 732.79 1253.16 738.29 1245.13 741.17 1234.95 743.66 1225.31 748.72 1205.67 761.25 1196.94 781.16 1200.47 834.11 1209.87 887.54 1212.04 941.17 1210.99 959.33 1210.63 977.49 1210.07 995.65 1209.49 1030.85 1208.36 1064.62 1199.93 1097.82 1188.94 1116.51 1182.75 1135.1 1176.22 1153.56 1169.39 1182.43 1158.72 1211.38 1165.93 1231.81 1189.02 1234.27 1191.8 1237.93 1193.53 1241.02 1195.77 1243.41 1197.5 1246.23 1198.89 1248.08 1201.08 1254.15 1208.26 1252.87 1214.51 1244.56 1218.98 1216.08 1234.33 1187.63 1249.76 1159.03 1264.88 1095.33 1298.55 1031.89 1332.7 967.69 1365.38 923.43 1387.91 875.76 1400.56 826.7 1407.88 825.57 1408.05 824.43 1408.26 823.34 1408.58 822.7 1408.77 822.13 1409.2 821.1 1409.76 824.41 1415.53 827.88 1421.13 830.91 1426.97 834.98 1434.8 833.53 1440.05 825.88 1444.19 776.24 1471.06 726.51 1497.79 676.86 1524.65 671.29 1527.66 667.52 1526.67 664.31 1521.19 658.16 1510.69 652.06 1500.13 645.23 1490.08 641.25 1484.26 639.95 1479.92 646.6 1476.88Z" fill="#FFFFFF"/><path d="M1225.9 1298.71C1225.86 1307.3 1220.2 1311.77 1213.5 1315.38 1182.21 1332.24 1150.9 1349.05 1119.6 1365.89 1104.25 1374.15 1088.94 1382.48 1073.54 1390.64 1069.1 1392.99 1064.52 1395.2 1059.8 1396.86 1050.19 1400.25 1040.77 1396.41 1036.48 1387.79 1031.9 1378.59 1034.49 1369.11 1043.71 1363.37 1050.12 1359.38 1056.93 1356.02 1063.59 1352.43 1102.35 1331.56 1141.1 1310.66 1179.9 1289.87 1186.36 1286.41 1192.89 1282.98 1199.67 1280.25 1213.23 1274.77 1226.06 1283.98 1225.9 1298.71Z" fill="#FFFFFF"/><path d="M1130.79 1366.48C1139.46 1361.86 1147.69 1357.48 1156.31 1352.89 1159.96 1357.65 1163.34 1361.96 1166.6 1366.35 1185.82 1392.22 1210.84 1410.11 1241.21 1420.64 1251.84 1424.33 1252.05 1424.63 1251.83 1435.84 1251.77 1438.6 1251.8 1441.36 1251.8 1444.12 1251.8 1446.63 1251.8 1449.15 1251.8 1451.64 1215.84 1454.12 1154.97 1411.41 1130.79 1366.48Z" fill="#FFFFFF"/><path d="M1567.67 1292.36C1580.89 1292.36 1592.57 1292.36 1604.97 1292.36 1606.85 1335.71 1624.64 1370.69 1660.5 1395.45 1683.3 1411.19 1708.93 1417.91 1736.69 1416.75 1795.6 1414.29 1853.07 1366.63 1855.65 1292.13 1861.68 1292.13 1867.78 1292.13 1873.89 1292.13 1879.82 1292.13 1885.75 1292.13 1892.84 1292.13 1890.86 1348.84 1868.49 1394.48 1821.87 1425.59 1764.38 1463.95 1703.83 1465.35 1644.76 1429.49 1594.38 1398.89 1570.2 1351.76 1567.67 1292.36Z" fill="#FFFFFF"/><path d="M1806.42 1253.38C1792.42 1253.34 1781.67 1242.55 1781.66 1228.51 1781.64 1214.59 1792.55 1203.53 1806.34 1203.46 1820.39 1203.4 1831.89 1214.87 1831.69 1228.76 1831.49 1242.56 1820.35 1253.42 1806.42 1253.38Z" fill="#FFFFFF"/><path d="M1654.24 1253.38C1640.33 1253.42 1629.14 1242.55 1628.9 1228.78 1628.67 1215.05 1640.38 1203.37 1654.3 1203.45 1668.09 1203.53 1679.08 1214.65 1679.05 1228.51 1679.02 1242.48 1668.18 1253.34 1654.24 1253.38Z" fill="#FFFFFF"/></g><g display="none"><path d="M1252.28 2001.2C1236.7 1998.9 1221.01 1997.21 1205.57 1994.21 1091.5 1971.98 1003.31 1883.51 982.9 1769.44 978.28 1743.61 976.73 1717.02 976.12 1690.73 973.55 1579.54 971.83 1468.32 969.89 1357.12 969.35 1326.02 969.16 1294.91 968.72 1263.8 967.67 1190.36 995.72 1129.21 1047.87 1078.69 1099.69 1028.49 1161.89 998.95 1233.44 990.79 1301.72 983.01 1366.16 995.76 1426.17 1030.53 1473.86 1058.16 1513.66 1093.54 1540.87 1141.85 1562.74 1180.69 1573.45 1222.46 1571.57 1267.29 1567.66 1360.51 1564.16 1453.75 1560.11 1546.96 1557.6 1604.7 1555.03 1662.45 1551.38 1720.12 1546.38 1799.03 1518.91 1868.49 1460.83 1923.83 1416.82 1965.76 1364.13 1990.04 1303.87 1997.87 1294.9 1999.03 1285.91 2000.09 1276.93 2001.2 1268.72 2001.2 1260.5 2001.2 1252.28 2001.2ZM1519.51 1318.56C1520.04 1318.56 1520.56 1318.57 1521.09 1318.57 1521.09 1298.62 1521.09 1278.67 1521.09 1258.73 1521.1 1209.77 1506.47 1166.02 1474.63 1128.42 1446.63 1095.35 1410.68 1072.96 1371.18 1057.54 1283.98 1023.51 1199.07 1034.19 1119.79 1080.91 1055.87 1118.58 1021.16 1176.95 1019.41 1251.92 1018.22 1303.22 1020.17 1354.6 1021.13 1405.94 1022.91 1500.99 1024.89 1596.04 1027 1691.09 1027.84 1728.86 1028.4 1766.61 1042.65 1802.66 1069.12 1869.62 1115.33 1916.16 1184.03 1938.39 1218.3 1949.48 1254.01 1951.7 1290.1 1948.66 1369.16 1942 1431.08 1909.14 1468.18 1835.98 1483.43 1805.9 1496.05 1774.93 1498.46 1741.3 1503.01 1677.83 1506.05 1614.24 1509.14 1550.67 1512.91 1473.31 1516.08 1395.93 1519.51 1318.56Z" fill="#FFFFFF"/><path d="M966.95 498.8C982.1 504.16 986.62 515.45 985.45 530.57 982.74 565.65 980.93 600.8 977.82 635.83 973.51 684.29 1002.04 729.25 1050.42 748.9 1074.67 758.75 1100.12 761.75 1125.98 763.09 1150.56 764.37 1175.42 764.38 1199.6 768.35 1247.04 776.13 1279.72 803.26 1292.75 850.29 1297.92 868.97 1299.71 888.76 1301.37 908.19 1302.55 921.97 1291.84 932.74 1278.93 933.8 1265.58 934.9 1255.1 926.58 1252.57 912.15 1250.35 899.47 1249.47 886.52 1246.83 873.94 1241.8 850.03 1231.58 828.9 1206.88 820.12 1195.54 816.09 1182.88 815.21 1170.72 814.18 1138.32 811.43 1105.44 811.86 1073.53 806.45 1023.3 797.94 980.73 774.17 951.52 730.77 936.15 707.94 927 682.52 928.34 654.7 930.44 611.09 933.55 567.52 936.61 523.96 937.43 512.3 944.07 503.94 954.62 498.81 958.73 498.8 962.84 498.8 966.95 498.8Z" fill="#FFFFFF"/><path d="M1247.13 1251.84C1247.13 1223.12 1246.83 1194.4 1247.26 1165.69 1247.48 1151.14 1255.99 1141.86 1268.91 1140.18 1279.99 1138.73 1291.91 1146.54 1295.23 1157.76 1296.12 1160.77 1296.27 1164.1 1296.24 1167.28 1295.71 1221.8 1295.12 1276.32 1294.44 1330.84 1294.39 1334.61 1293.68 1338.4 1292.98 1342.13 1290.14 1357.36 1280.15 1364.75 1264.03 1363.68 1253.86 1363.01 1245.71 1353.46 1245.42 1339.77 1244.88 1314.57 1245.18 1289.35 1245.14 1264.15 1245.13 1260.05 1245.14 1255.94 1245.14 1251.84 1245.79 1251.84 1246.46 1251.84 1247.13 1251.84Z" fill="#FFFFFF"/></g><g display="none"><path d="M759.55 1310.35C759.55 1059.34 760.75 808.31 758.79 557.32 758.23 485.12 811 423.61 892.49 424.17 1118.06 425.73 1343.64 424.67 1569.21 424.73 1649.73 424.75 1700.94 475.73 1700.94 555.91 1700.98 1059.38 1700.98 1562.84 1700.94 2066.31 1700.93 2146.46 1649.66 2197.33 1569.18 2197.33 1342.64 2197.35 1116.11 2197.35 889.57 2197.33 811.04 2197.32 759.57 2146.07 759.56 2067.72 759.52 1815.25 759.55 1562.8 759.55 1310.35ZM1616.89 1941.09C1616.89 1520.12 1616.89 1100.9 1616.89 681.22 1358.55 681.22 1101.19 681.22 843.68 681.22 843.68 1101.71 843.68 1520.98 843.68 1941.09 1101.66 1941.09 1358.68 1941.09 1616.89 1941.09ZM1229.84 1995.36C1187.6 1995.47 1154.19 2029.06 1154.3 2071.3 1154.41 2113.26 1188.55 2147.22 1230.4 2147.01 1272.12 2146.8 1306.49 2112.26 1306.3 2070.73 1306.12 2028.86 1272.02 1995.25 1229.84 1995.36ZM1230.19 563.31C1252.7 563.31 1275.2 563.25 1297.71 563.34 1306.03 563.37 1312.97 562.73 1313.09 551.47 1313.2 540.58 1307.09 538.95 1298.33 538.97 1252.84 539.09 1207.34 539.13 1161.85 538.94 1152.84 538.9 1147.03 540.97 1147.16 551.56 1147.3 562.67 1154.27 563.41 1162.66 563.36 1185.17 563.22 1207.68 563.31 1230.19 563.31Z" fill="#FFFFFF"/></g><g display="none"><path d="M2081.04 498.16C2092.62 498.81 2104.2 499.5 2115.79 500.09 2119.9 500.3 2124.02 500.16 2128.13 500.32 2147.2 501.06 2152.48 505.95 2152.94 524.97 2154.01 569.84 2155.38 614.72 2155.45 659.59 2155.82 922.81 2155.68 1186.03 2156.26 1449.25 2156.31 1472.56 2145.97 1481.32 2124.38 1481.49 2070.24 1481.92 2016.11 1483.39 1961.98 1483.44 1781.7 1483.62 1601.42 1483.46 1421.14 1483.11 1402.01 1483.07 1382.84 1481.36 1363.79 1479.48 1353.7 1478.48 1346.6 1469.04 1346.25 1458.89 1346.23 1458.21 1346.24 1457.52 1346.24 1456.83 1346.5 1151.8 1346.73 846.76 1347.07 541.73 1347.11 507.66 1354.62 500.59 1389.1 500.25 1414.8 500 1440.5 499.67 1466.2 499.29 1468.88 499.25 1471.56 498.55 1474.23 498.16 1676.49 498.16 1878.77 498.16 2081.04 498.16ZM2099.62 988.84C2099.7 988.84 2099.79 988.84 2099.87 988.84 2099.87 900.75 2099.96 812.67 2099.83 724.58 2099.77 679 2099.56 633.41 2098.97 587.83 2098.7 567.03 2087.77 556.32 2067.26 555.38 2055.62 554.85 2043.97 554.22 2032.33 554.21 1857.53 553.98 1682.73 553.77 1507.92 553.76 1480.51 553.76 1453.09 554.34 1425.7 555.38 1411.46 555.92 1405.4 562.42 1404.44 576.62 1403.38 592.34 1402.37 608.1 1402.36 623.85 1402.11 848.69 1401.94 1073.54 1402.01 1298.38 1402.02 1333.66 1402.89 1368.95 1404.09 1404.21 1404.53 1417.24 1413.77 1425.28 1426.82 1425.95 1442.56 1426.76 1458.31 1427.72 1474.06 1427.75 1592.31 1427.97 1710.56 1428.26 1828.81 1427.97 1911.74 1427.77 1994.67 1426.8 2077.6 1425.92 2093.15 1425.76 2096.64 1421.86 2097.53 1406.21 2098.37 1391.51 2099.52 1376.79 2099.54 1362.08 2099.69 1237.67 2099.62 1113.25 2099.62 988.84Z" fill="#FFFFFF"/><path d="M346.96 1499.93C351.24 1483.85 358.72 1471.33 377.27 1468.45 401.12 1464.75 416.22 1474.07 420.8 1497.53 425.38 1521 427.26 1545.14 433.6 1568.09 457.64 1655.01 513.86 1713.82 599.41 1739.4 673.69 1761.61 741.03 1740.9 797.44 1687.86 845.92 1642.28 874.27 1586.32 880.06 1519.49 880.74 1511.67 882.14 1503.89 883.63 1496.17 887.39 1476.7 901.32 1465.91 920.77 1467.09 939.84 1468.26 955.28 1483.16 955.9 1502.06 957.61 1554.95 945.64 1604.93 919.23 1650.57 874.57 1727.74 810.26 1780.39 722.6 1802.44 688.67 1810.98 686.83 1813.52 686.39 1848.37 686.16 1866.88 685.96 1885.39 686.32 1903.89 686.65 1920.58 694.65 1929.77 711.38 1930.14 734.98 1930.66 758.63 1928.81 782.24 1929.01 802.07 1929.17 821.94 1930.27 841.71 1931.98 856.02 1933.22 864.19 1942.7 865.51 1957.04 865.57 1957.72 865.63 1958.41 865.68 1959.09 868.11 1991.89 859.35 2002.62 826.45 2003.26 779.16 2004.19 731.85 2003.92 684.54 2003.97 626.26 2004.03 567.99 2003.98 509.71 2003.76 497.05 2003.71 484.36 2003.14 471.73 2002.15 445.03 2000.05 432.63 1983.16 438.09 1956.94 441.2 1942 449.52 1932.64 464.81 1931.64 490.41 1929.97 516.14 1930.18 541.81 1929.53 561.68 1929.03 581.55 1928.33 601.42 1927.89 610.78 1927.68 616.69 1923.57 616.81 1913.87 617.17 1886.49 617.99 1859.08 616.98 1831.75 616.37 1815.19 606.88 1805.48 590.47 1802.31 498.05 1784.45 433.17 1729.09 385.52 1651.07 363.6 1615.19 354.26 1574.78 349.04 1533.39 348.58 1529.75 347.68 1526.16 346.98 1522.55 346.96 1515.01 346.96 1507.47 346.96 1499.93Z" fill="#FFFFFF"/><path d="M486.96 1374.06C486.97 1334.31 486.29 1294.55 487.11 1254.82 488.83 1171.72 563.13 1097.21 646.45 1095.14 735.36 1092.93 803.45 1159.16 815.38 1238.41 817.21 1250.56 817.58 1263.01 817.62 1275.32 817.83 1346.6 817.52 1417.89 817.84 1489.17 818.01 1526.19 808.66 1560.02 787.8 1590.79 725.23 1683.09 596.11 1688.38 524.53 1601.64 499.22 1570.97 488.14 1535.22 487.18 1496.35 486.16 1455.62 486.95 1414.83 486.96 1374.06Z" fill="#FFFFFF"/><path d="M958.19 792.44C958.19 784.31 958.37 776.17 958.15 768.05 957.54 745.45 956.67 722.85 956.11 700.25 955.87 690.35 950.16 685.61 941.25 685.44 895.24 684.56 849.37 686.21 805.14 700.57 757.93 715.89 732.46 751.81 717.21 796.66 703.88 835.87 699.06 876.56 696.56 917.65 695.4 936.79 693.99 955.91 692.57 975.03 691.86 984.56 686.9 990.76 677.04 990.69 658.57 990.56 640.09 989.83 621.63 989.02 615.78 988.76 612.52 985.55 612.43 979.07 611.45 908.7 614.38 838.84 633.69 770.43 655.03 694.81 704.97 649.24 780.2 632.53 817.07 624.34 855.27 622.04 892.94 617.68 907.21 616.03 921.69 616.31 936.04 615.33 950.99 614.32 955.64 609.81 956.11 595.03 956.96 568.66 957.21 542.26 957.86 515.88 958.12 505.32 960.72 503.64 970.31 507.87 974.34 509.65 978.22 511.98 981.78 514.59 1034.28 553.03 1086.71 591.56 1139.15 630.08 1141.36 631.7 1143.47 633.45 1145.59 635.19 1153.93 642.08 1154.16 644.93 1145.34 651.75 1089.5 694.88 1033.54 737.85 977.6 780.85 972.21 785 966.72 789.03 961.28 793.12 960.26 792.89 959.22 792.66 958.19 792.44Z" fill="#FFFFFF"/><path d="M1435.18 1714.37C1435.18 1741.62 1435.07 1766.97 1435.21 1792.32 1435.37 1821.3 1438.1 1824.6 1467.11 1822.99 1500.54 1821.14 1534.25 1819.93 1567.17 1814.44 1621.05 1805.46 1657.52 1772.96 1677.81 1722.44 1693 1684.61 1699.63 1644.9 1702.55 1604.48 1704.15 1582.28 1704.94 1560.02 1706.7 1537.84 1707.86 1523.24 1712.27 1519.15 1726.79 1518.72 1741.51 1518.28 1756.28 1518.23 1770.99 1518.89 1786.09 1519.57 1789.01 1522.66 1788.82 1537.69 1788.55 1559.26 1788.16 1580.87 1786.69 1602.39 1783.58 1647.82 1778.22 1692.9 1765.01 1736.79 1740.25 1819.05 1684.17 1866.09 1600.91 1879.95 1558.84 1886.95 1515.95 1889.71 1473.31 1892.43 1438.5 1894.65 1437.41 1894.25 1435.84 1928.79 1435.3 1940.77 1435.23 1952.77 1435.11 1964.77 1434.99 1976.71 1435.08 1988.66 1435.08 2002.21 1431.52 2000.53 1429.36 1999.92 1427.7 1998.67 1372.69 1957.29 1317.68 1915.91 1262.79 1874.37 1252.43 1866.53 1252.29 1863.37 1261.88 1855.5 1317.99 1809.39 1374.23 1763.43 1430.44 1717.43 1431.42 1716.63 1432.57 1716.05 1435.18 1714.37Z" fill="#FFFFFF"/><path d="M1736.42 1117.27C1802.57 1117.27 1868.72 1117.1 1934.86 1117.38 1953.63 1117.46 1955.52 1119.92 1955.56 1138.28 1955.58 1146.16 1955.22 1154.04 1955.12 1161.92 1954.99 1172.52 1949.52 1176.9 1939.11 1176.87 1919.57 1176.82 1900.03 1177.44 1880.5 1177.49 1769.78 1177.77 1659.06 1178.07 1548.34 1178.1 1520.42 1178.11 1519.53 1176.75 1519.29 1149.12 1518.95 1109.72 1523.14 1116.95 1551.31 1116.64 1613 1115.98 1674.71 1116.44 1736.41 1116.44 1736.41 1116.72 1736.41 1116.99 1736.42 1117.27Z" fill="#FFFFFF"/><path d="M1747.34 983.54C1688.09 983.54 1628.84 983.75 1569.59 983.38 1556.32 983.3 1543.04 981.42 1529.82 979.88 1520.59 978.8 1517.33 972.97 1518.24 963.89 1519.09 955.39 1519.03 946.81 1519.54 938.27 1520.25 926.33 1524.34 922.02 1535.97 922.04 1667.82 922.18 1799.68 922.34 1931.53 922.73 1952.36 922.79 1955.22 926.31 1955.52 947.74 1955.61 953.9 1955.85 960.1 1955.33 966.22 1954.3 978.22 1948.16 983.66 1936.4 983.66 1873.38 983.67 1810.37 983.66 1747.35 983.66 1747.34 983.62 1747.34 983.58 1747.34 983.54Z" fill="#FFFFFF"/><path d="M1738.6 707.92C1805.38 707.92 1872.16 707.82 1938.94 708.01 1952.49 708.05 1955.34 711.54 1955.51 725.51 1955.6 733.04 1955.6 740.58 1955.51 748.12 1955.31 764.42 1953.03 767.03 1936.33 767.36 1910.65 767.88 1884.95 768.05 1859.27 768.03 1758.57 767.95 1657.86 767.79 1557.16 767.47 1548.64 767.44 1540.05 766.51 1531.64 765.15 1520.37 763.32 1517.47 758.75 1518.45 747.32 1519.03 740.51 1519.22 733.65 1519.4 726.81 1519.84 710.21 1522.87 706.67 1539.24 706.63 1605.69 706.46 1672.14 706.56 1738.59 706.56 1738.6 707.01 1738.6 707.47 1738.6 707.92Z" fill="#FFFFFF"/></g><g display="none"><path d="M1692.03 2242.46C1591.59 2242.46 1491.15 2242.46 1390.71 2242.46 1388.16 2237.49 1386.32 2231.96 1382.95 2227.63 1293.3 2112.57 1203.48 1997.65 1113.7 1882.69 994 1729.41 874.39 1576.06 754.43 1422.99 745.46 1411.54 741.2 1400.21 741.53 1385.47 742.44 1345.32 741.84 1305.13 741.84 1264.96 741.84 1242.84 741.84 1242.87 763.28 1242.82 819.31 1242.7 875.35 1243.24 931.37 1242.24 1019 1240.68 1104.05 1226.18 1181.76 1183.19 1278.75 1129.54 1337.68 1049.2 1348.6 936.93 1350.81 914.19 1350.16 914.11 1327.19 914.11 1120.51 914.11 913.82 914.12 707.14 914.06 700.73 914.06 694.31 913.23 685.76 912.64 689.34 906.43 691.26 902.79 693.46 899.33 723.01 853 753.09 806.99 781.85 760.18 789.86 747.14 798.97 743.07 813.85 743.12 977.19 743.63 1140.53 743.46 1303.86 743.38 1310.35 743.38 1316.85 742.45 1325.29 741.81 1322.81 735.14 1321.57 730.66 1319.55 726.57 1295.68 678.3 1260.48 640.58 1213.56 614.09 1152.84 579.81 1086.19 565.22 1017.73 562.02 927.51 557.8 837.09 557.85 746.75 556.1 725.63 555.69 704.51 555.4 683.39 555.05 683.39 553.99 683.39 552.94 683.39 551.88 687.43 547.2 692.09 542.92 695.42 537.78 728.54 486.53 761.44 435.13 794.41 383.78 1167.62 383.78 1540.84 383.78 1914.05 383.78 1912.68 389 1912.5 394.96 1909.75 399.31 1879.61 447.12 1848.78 494.51 1818.87 542.46 1812.49 552.68 1805.46 556.44 1793.4 556.37 1705.68 555.86 1617.95 556.07 1530.22 556.14 1524.92 556.14 1519.61 556.87 1514.1 557.27 1514.68 560.86 1514.53 562.09 1515.06 562.86 1517.43 566.34 1520 569.69 1522.5 573.08 1555.65 618.04 1577.97 667.94 1586.67 723.05 1589.26 739.46 1594.73 743.87 1610.56 743.77 1705.68 743.14 1800.81 743.45 1895.93 743.45 1901.96 743.45 1907.99 743.45 1915.7 743.45 1913.96 748.92 1913.68 751.61 1912.38 753.65 1879.99 804.42 1847.8 855.31 1814.56 905.52 1811.22 910.57 1801.48 913.69 1794.67 913.76 1734.96 914.39 1675.23 914.63 1615.53 913.75 1601.02 913.53 1595.98 918.85 1594.16 932.13 1588.17 975.87 1574.83 1017.53 1555.84 1057.28 1499.54 1175.16 1406.94 1255.26 1290.41 1309.67 1209.69 1347.36 1124.4 1368.22 1035.62 1375.03 1029.28 1375.52 1023.02 1377.08 1014.25 1378.56 1019.32 1385.43 1022.28 1389.69 1025.49 1393.75 1229.18 1652.31 1432.93 1910.83 1636.55 2169.45 1655.45 2193.47 1673.55 2218.11 1692.03 2242.46Z" fill="#FFFFFF"/><path d="M794.41 383.79C761.45 435.15 728.55 486.54 695.42 537.79 692.1 542.93 687.43 547.21 683.39 551.89 683.39 495.86 683.39 439.82 683.39 383.79 720.4 383.79 757.41 383.79 794.41 383.79Z" fill="#FFFFFF"/></g><g display="none"><path d="M968.94 843.68C1141.04 843.68 1313.13 843.65 1485.23 843.79 1491.15 843.79 1497.5 844.4 1502.89 846.6 1510.2 849.58 1513.71 856.24 1513.72 864.32 1513.76 902.63 1513.7 940.95 1513.87 979.26 1513.9 985.07 1511.59 987.3 1505.94 987.16 1497.32 986.96 1488.69 986.8 1480.08 987.21 1472.95 987.55 1470.59 984.66 1470.67 977.68 1470.97 952.14 1470.88 926.6 1470.85 901.05 1470.83 887.17 1470.75 887.07 1457.06 887.07 1301.89 887.04 1146.71 887.04 991.54 887.05 821.36 887.06 651.18 887.1 481 887.12 467.09 887.12 467.12 887.1 467.12 901.45 467.09 1046.09 467.05 1190.72 467.01 1335.36 467.01 1348.86 467.01 1348.89 480.77 1348.89 716.4 1348.89 952.04 1348.88 1187.67 1348.88 1200.84 1348.88 1200.83 1348.93 1200.83 1361.71 1200.83 1415.99 1200.55 1470.27 1201.08 1524.54 1201.18 1534.62 1197.92 1536.72 1188.57 1536.64 1138.76 1536.22 1088.95 1536.43 1039.15 1536.45 1026.04 1536.45 1025.79 1536.7 1025.78 1549.88 1025.76 1577.34 1026.03 1604.8 1025.61 1632.25 1025.48 1640.93 1028.32 1643.72 1037.1 1644.15 1080.45 1646.26 1123.82 1648.7 1165.98 1660.29 1172.67 1662.13 1179.39 1664.7 1185.33 1668.22 1195.16 1674.05 1195.4 1682.3 1185.1 1686.83 1172.1 1692.54 1158.35 1697.63 1144.42 1699.96 1050.97 1715.55 956.94 1715.52 862.75 1708.71 829 1706.27 795.31 1703.12 763.02 1692.01 755.55 1689.44 746.17 1686.97 746 1677.54 745.84 1669.03 754.4 1665.6 761.46 1664.09 788.17 1658.36 814.91 1652.43 841.91 1648.48 862.37 1645.48 883.24 1645.2 903.95 1644.06 909.76 1643.74 911.72 1641.22 911.71 1635.73 911.61 1605.4 911.55 1575.06 911.75 1544.73 911.8 1536.62 906.94 1536.5 901.02 1536.5 822.8 1536.55 744.57 1536.5 666.35 1536.48 593.87 1536.46 521.39 1536.49 448.92 1536.42 431.6 1536.4 423.42 1528 423.42 1510.57 423.39 1297.29 423.37 1084 423.34 870.72 423.34 851.8 431.57 843.6 450.77 843.6 623.5 843.59 796.24 843.59 968.97 843.59 968.94 843.63 968.94 843.65 968.94 843.68Z" fill="#FFFFFF"/><path d="M1678.67 1705.41C1673 1705.41 1668.95 1705.41 1664.91 1705.41 1547.1 1705.45 1429.29 1705.11 1311.48 1705.75 1277.66 1705.93 1250.6 1686.45 1241.15 1656.08 1239.21 1649.83 1238.96 1642.87 1238.96 1636.23 1238.85 1455.84 1239.13 1275.45 1238.65 1095.07 1238.55 1057.4 1268.73 1025 1309.29 1025.02 1467.33 1025.09 1625.37 1025.15 1783.41 1024.98 1827.04 1024.93 1856.16 1061.18 1854.44 1095.66 1853.47 1115.09 1854.11 1134.61 1854.5 1154.08 1854.64 1161.02 1852.53 1163.9 1845.29 1163.66 1814.74 1162.66 1820.73 1167.61 1820.1 1139.33 1819.94 1132.31 1820.02 1125.28 1819.96 1118.26 1819.85 1105.26 1819.85 1105.23 1806.36 1105.23 1735.8 1105.22 1665.24 1105.23 1594.68 1105.23 1491.87 1105.23 1389.07 1105.22 1286.26 1105.22 1272.7 1105.22 1272.74 1105.24 1272.74 1119.1 1272.74 1262.77 1272.73 1406.44 1272.72 1550.11 1272.72 1562.05 1272.83 1562.22 1285.14 1562.23 1407.42 1562.26 1529.7 1562.29 1651.98 1562.31 1664.75 1562.31 1664.77 1562.3 1664.78 1575.49 1664.79 1600.71 1665.04 1625.94 1664.68 1651.16 1664.43 1668.18 1667.94 1684.04 1676.47 1698.8 1677.19 1700.07 1677.43 1701.66 1678.67 1705.41ZM1576.63 1624.46C1576.83 1607.64 1563.4 1593.76 1546.82 1593.66 1530.3 1593.56 1516.61 1606.59 1516.26 1622.76 1515.88 1639.95 1529.56 1654.65 1546.17 1654.88 1562.64 1655.11 1576.43 1641.35 1576.63 1624.46ZM1546.29 1056.26C1532.89 1056.26 1519.49 1056.14 1506.1 1056.3 1496.97 1056.41 1490.98 1061.6 1491.07 1068.85 1491.15 1075.74 1496.92 1081.08 1505.48 1081.14 1532.59 1081.34 1559.71 1081.34 1586.82 1081.16 1596.25 1081.1 1601.73 1076.04 1601.63 1068.49 1601.53 1061.01 1595.97 1056.38 1586.49 1056.29 1573.09 1056.16 1559.69 1056.26 1546.29 1056.26Z" fill="#FFFFFF"/><path d="M1702.7 1452.57C1702.7 1387.44 1703.62 1322.28 1702.33 1257.18 1701.65 1222.63 1727.82 1200.73 1758.59 1201.19 1819.56 1202.11 1880.55 1201.43 1941.53 1201.46 1975.74 1201.48 1997.37 1222.82 1997.39 1256.9 1997.44 1388.44 1997.42 1519.99 1997.31 1651.53 1997.28 1683.96 1976.41 1705.22 1944.26 1705.32 1881.04 1705.52 1817.82 1705.54 1754.61 1705.31 1723.53 1705.2 1702.88 1684.69 1702.77 1653.7 1702.53 1586.67 1702.7 1519.62 1702.7 1452.57ZM1727.2 1430.29C1727.2 1482.32 1727.2 1534.34 1727.2 1586.37 1727.2 1599.82 1727.25 1599.9 1740.32 1599.91 1812.77 1599.95 1885.23 1599.98 1957.68 1600.01 1972.06 1600.01 1972.18 1599.88 1972.18 1585.7 1972.18 1481.34 1972.08 1376.98 1972.31 1272.62 1972.33 1263.62 1969.75 1260.33 1960.35 1260.37 1886.3 1260.69 1812.25 1260.65 1738.2 1260.44 1730.07 1260.42 1726.98 1262.77 1727.03 1271.35 1727.37 1324.32 1727.2 1377.31 1727.2 1430.29ZM1872.12 1645.64C1872.15 1633.13 1862.41 1622.84 1850.28 1622.57 1837.84 1622.29 1826.89 1632.83 1826.73 1645.22 1826.58 1657.35 1837.57 1668.32 1849.94 1668.37 1861.97 1668.43 1872.09 1658.07 1872.12 1645.64ZM1850.24 1228.2C1850.24 1228.18 1850.24 1228.16 1850.24 1228.14 1842.28 1228.14 1834.23 1227.41 1826.41 1228.48 1823.13 1228.93 1820.37 1233.18 1817.37 1235.7 1820.31 1237.98 1823.16 1242.09 1826.19 1242.22 1841.76 1242.89 1857.39 1242.96 1872.95 1242.21 1876.12 1242.06 1879.07 1237.49 1882.13 1234.95 1878.82 1232.7 1875.72 1229.01 1872.16 1228.5 1864.99 1227.49 1857.57 1228.2 1850.24 1228.2Z" fill="#FFFFFF"/></g><g><path d="M1096.69 2355.82C1079.75 2355.82 1062.82 2355.82 1045.88 2355.82 1040.9 2348.75 1036.06 2341.58 1030.93 2334.62 1018.72 2318.07 1006.16 2301.76 1006.6 2279.58 1007.27 2245.73 1007.35 2211.86 1008.46 2178.03 1013.27 2031.8 1020.32 1885.61 1022.82 1739.34 1025.44 1586.2 1023.64 1432.99 1024.1 1279.81 1024.24 1233.5 1025.66 1187.19 1025.92 1140.87 1025.94 1137.32 1021.41 1133.74 1018.99 1130.18 1016.34 1133.06 1011.63 1135.75 1011.35 1138.85 1008.81 1166.12 1006.63 1193.44 1005.24 1220.79 1004.38 1237.59 1002.06 1241.32 984.75 1241.79 963 1242.38 941.22 1241.97 919.45 1242.04 891.21 1242.13 890.57 1242.09 893.44 1213.89 901.11 1138.62 909.69 1063.44 917.3 988.17 920.92 952.4 930.27 919.27 950.56 888.81 967.68 863.12 990.23 844.72 1016.67 830.48 1048.9 813.11 1084.84 807.24 1120.33 805.32 1177.37 802.23 1234.69 802.25 1291.83 803.57 1330.71 804.46 1368.57 814.32 1402.67 833.62 1451.75 861.39 1478.43 906.24 1488.27 960.15 1498.17 1014.34 1504.84 1069.15 1511.72 1123.83 1517.19 1167.36 1521.04 1211.1 1525.26 1254.77 1529.29 1296.48 1532.67 1338.25 1536.93 1379.93 1537.39 1384.46 1536.46 1508.99 1533.55 1512.26 1527.43 1519.12 1522.89 1527.62 1516.07 1533.58 1503.03 1544.99 1488.06 1551.04 1470.45 1543.43 1447.64 1533.57 1438.04 1513.33 1433.89 1491.5 1428.5 1463.12 1426.41 1434.09 1423.35 1405.29 1416.54 1341.22 1410.03 1277.13 1403.36 1213.05 1402.65 1206.24 1402.29 1199.29 1400.55 1192.73 1399.45 1188.58 1396.08 1185.02 1393.73 1181.2 1391.35 1185.38 1387.5 1189.37 1386.9 1193.79 1385.78 1202.11 1386.36 1210.68 1386.54 1219.14 1392.39 1491.17 1398.23 1763.2 1404.21 2035.22 1405.83 2108.97 1406.58 2182.78 1410.4 2256.43 1412.26 2292.2 1402.89 2321.12 1376.96 2345.29 1374.41 2347.66 1373.93 2352.26 1372.49 2355.82 1355.55 2355.82 1338.62 2355.82 1321.68 2355.82 1318.09 2352.01 1314.81 2347.82 1310.83 2344.47 1305.4 2339.89 1296.85 2337.15 1294.21 2331.49 1287.63 2317.4 1281.35 2302.45 1279.06 2287.23 1274.03 2253.86 1271.52 2220.1 1268.03 2186.5 1260.11 2110.39 1252.33 2034.26 1244.28 1958.17 1239.36 1911.71 1233.89 1865.3 1228.93 1818.85 1225.65 1788.09 1222.87 1757.29 1219.77 1726.51 1219.05 1719.3 1218.43 1712.02 1216.82 1704.98 1216.13 1701.94 1213.05 1699.45 1211.05 1696.71 1208.58 1699.4 1204.62 1701.74 1203.88 1704.85 1200.62 1718.55 1197.42 1732.37 1195.8 1746.33 1190.88 1788.67 1186.69 1831.1 1182.24 1873.5 1174.97 1942.79 1167.97 2012.11 1160.4 2081.37 1152.61 2152.61 1143.84 2223.74 1136.43 2295.01 1134.04 2318.02 1126.31 2335.85 1104.11 2345.75 1100.81 2347.23 1099.13 2352.37 1096.69 2355.82Z" fill="#FFFFFF"/><path d="M1263.29 418.26C1297.6 429.73 1324.29 451.81 1343.98 480.71 1368.42 516.59 1380 557.38 1371.26 600.95 1367.71 618.62 1358.4 635.18 1351.29 652.07 1340.38 677.99 1319.98 695.68 1297.13 710.18 1284.06 718.47 1269.43 725.34 1254.57 729.55 1221.75 738.83 1187.97 739.26 1155.47 728.82 1115.88 716.11 1084.23 692.97 1061.4 656.4 1040.83 623.46 1033.22 588.99 1038.49 551.78 1040.91 534.64 1046.99 517.36 1054.73 501.8 1067.19 476.76 1084.78 454.86 1109.04 440.1 1124.71 430.57 1141.22 421.98 1158.4 415.36 1165.6 412.57 1256.35 415.94 1263.29 418.26Z" fill="#FFFFFF"/></g></g></svg>