<svg viewBox="0 0 2500 2500" xmlns="http://www.w3.org/2000/svg" xmlns:xlink="http://www.w3.org/1999/xlink" id="Layer_1" overflow="hidden"><g display="none"><rect x="-436.3" y="-55.7" width="3319.1" height="2854.3" fill="#FFFFFF"/></g><g display="none"><g><path d="M637.7 1015.6C661.1 1033.4 689 1037.3 716.9 1041.1 724.1 1042.1 731.3 1044.1 738.5 1044.5 742.7 1044.8 748 1044.2 751.1 1041.8 810.9 996.3 891.2 1010.3 931.9 1060 932 1060.2 932.4 1060.1 933.6 1060.3 933.6 1054.9 933.6 1049.6 933.6 1044.6 950.6 1041.4 967.1 1039.2 982.9 1035 998.7 1030.8 1013.9 1024.7 1029.5 1019.3 1036 1035.8 1029.4 1061.7 1011.9 1067.9 992.2 1074.9 972.3 1081 952.4 1087.6 950.3 1088.3 948.4 1089.4 946.4 1090.3 947 1093.9 947.6 1097 948.4 1101.7 954.1 1101.7 960 1101.6 965.9 1101.7 988.5 1102.3 1006.6 1120.7 1007.1 1143.3 1007.4 1160.4 1007.4 1177.6 1007.1 1194.7 1006.7 1221.6 992.6 1235.7 965.7 1237.5 962.6 1237.7 941.6 1239.8 938.1 1239.6 938.1 1239.6 938.1 1239.6 938.1 1239.6 936 1239.5 934.3 1238.1 933.7 1236.2 932 1230.6 929.9 1225 929.9 1219.4 929.5 1184.7 929.9 1149.9 929.8 1115.2 929.7 1075.8 896.9 1040.8 854.7 1037 874.1 1049 891.6 1059.8 910.2 1071.3 883 1087.7 857.6 1103 830.9 1119.1L830.9 1093.3C827.1 1093.3 823.6 1093.5 820.3 1093.3 795.7 1091.5 771.1 1089.3 746.5 1087.9 743.8 1087.7 739 1090.7 738.4 1093.1 736.6 1099.9 735.6 1107.1 735.6 1114.2 735.3 1149.3 735.5 1184.3 735.5 1219.4 735.5 1236.2 734.2 1237.5 717 1237.5 710.2 1237.5 703.4 1237.6 696.5 1237.3 674.5 1236.3 659.2 1221.9 658.3 1199.8 657.5 1179.7 657.4 1159.5 658.3 1139.5 659.3 1117.1 675 1102.8 697.5 1101.8 698.8 1101.7 700.1 1101.8 701.4 1101.8 718 1101.7 718 1101.7 719.7 1084.7 696.6 1079.4 672.1 1077.8 652.6 1062.4 646.7 1057.8 642.7 1050.8 637.8 1044.9L637.8 1015.6ZM716.5 1120.8C708.1 1120.8 700.5 1120.3 693 1121 684 1121.8 676.9 1129.2 676.8 1138.2 676.5 1159 676.4 1179.8 676.8 1200.6 677 1209.6 682.1 1216.2 691.1 1217.8 699.2 1219.2 707.6 1219 716.5 1219.5L716.5 1120.8 716.5 1120.8ZM949.6 1218.3C956.6 1218.3 962.7 1218.6 968.7 1218.2 979.7 1217.5 987.3 1210.8 987.6 1199.8 988.2 1179.4 988.1 1159 987.5 1138.6 987.3 1130.2 982.3 1123.6 973.5 1122.2 965.7 1120.9 957.7 1121.3 949.5 1120.9L949.6 1218.3 949.6 1218.3ZM781.9 1048 829.9 1048 829.9 1034.2C812.2 1034.6 796.2 1037.7 781.9 1048Z" fill="#FFFFFF"/><path d="M637.7 1448.2C639.6 1441.7 641.4 1435.2 643.3 1428.8 652.6 1397.4 670.3 1373.8 703.2 1364.1 715.6 1360.5 727.7 1355.8 740 1351.4 765 1342.5 774.9 1314.4 761.1 1291.9 756.9 1285 752.9 1277.9 749.3 1270.7 740.6 1253.2 740.7 1253.1 755 1237.7 756.2 1240.5 757.3 1243 758.5 1245.4 764.6 1257.5 769.6 1270.4 777.1 1281.6 796.2 1310.3 784.5 1352.9 752.7 1366 738.6 1371.8 724.4 1377.4 709.8 1381.8 685 1389.2 670.4 1405.8 663.5 1429.9 661.4 1437.4 660.7 1445.2 658.5 1452.7 655.4 1463.1 659.5 1470.7 668.5 1474 685.1 1480.2 702 1486.6 719.3 1489.7 799.3 1504 879.5 1503.6 959.2 1487 971.5 1484.4 983.4 1479.6 995.2 1475.2 1005.1 1471.5 1009 1463.6 1007 1453.3 1005 1443.2 1003.4 1432.8 999.8 1423.2 992.9 1404.8 980.1 1391.3 961.3 1384.4 945.5 1378.6 929.4 1373.4 913.8 1367.2 889.4 1357.5 874.4 1329.7 879.6 1303.9 880.2 1300.9 884.6 1297.7 888 1296.5 891.4 1295.2 895.6 1296.2 896.9 1296.2 898.7 1308.6 898.7 1320.8 902.7 1331.6 905.3 1338.5 912.8 1345.2 919.8 1348.6 932.2 1354.7 945.8 1358.7 959.1 1362.7 992.6 1372.8 1012.6 1395.5 1021.6 1428.7 1023.5 1435.9 1024.6 1443.3 1026.2 1450.6 1030.1 1467.6 1022.8 1479.6 1009.2 1488.6 991.8 1500.1 971.9 1505.2 951.7 1508.4 930.6 1511.7 909.3 1514 888.1 1516.8 885.2 1517.2 882.4 1517.9 879.6 1518.5 849.1 1518.5 818.6 1518.5 788 1518.5 782.6 1517.8 777.2 1516.9 771.8 1516.4 738.2 1513.3 704.8 1509.2 672.9 1497 657.3 1491 643.8 1482.8 638 1465.9 637.7 1459.9 637.7 1454 637.7 1448.2Z" fill="#FFFFFF"/><path d="M822.8 953.3C822.8 958.8 822.8 964.3 822.8 970.5 826.4 970.7 829.6 970.8 832.7 970.9 863 972.2 893.4 972.1 923.5 975.2 947.7 977.7 972.4 979.8 995.1 990.3 998 991.6 1000.8 993.1 1003.5 994.6 1009.1 997.9 1015.3 1001.5 1012.8 1009.2 1010.5 1016.2 997 1020.1 989.7 1017.1 967.7 1008.1 944.7 1003.7 921.1 1001.6 891.4 999 861.7 996.4 832.1 993.9 829.6 993.7 827 993.9 823.3 993.9 823 999.8 822.8 1005.4 822.5 1012.6 805.6 1002.4 790 992.9 773.3 982.9 789.2 972.6 804.1 962.8 819.1 953.1 820.2 953.3 821.5 953.3 822.8 953.3Z" fill="#FFFFFF"/><path d="M1599.1 1432.8C1600.5 1446.2 1607.4 1449.4 1618.1 1448.2 1625.5 1447.4 1633 1447.9 1640.5 1448.1 1650.2 1448.4 1656.6 1454.2 1657 1462.5 1657.4 1471.3 1651.3 1477.7 1641.1 1478.4 1634.3 1478.9 1627.5 1478.6 1620.7 1478.6 1576.5 1478.6 1532.4 1478.6 1488.2 1478.6 1485.3 1478.6 1482.3 1478.7 1479.4 1478.4 1469.8 1477.3 1463.6 1471.1 1463.8 1462.9 1464 1454.7 1470.5 1448.6 1480 1448.1 1485.8 1447.8 1491.8 1447.4 1497.5 1448.2 1508.3 1449.7 1513 1444.7 1514.1 1433.6 1414.6 1433.6 1315.2 1433.6 1215.1 1433.6 1215.1 1297.2 1215.1 1162 1215.1 1025.9 1444.9 1025.9 1674.9 1025.9 1905.5 1025.9 1905.5 1161.1 1905.5 1296.3 1905.5 1432.8 1803.6 1432.8 1701.6 1432.8 1599.1 1432.8ZM1560.2 1415C1664.1 1415 1768 1415 1872 1415 1886 1415 1886.5 1414.5 1886.5 1400.9 1886.5 1286.6 1886.5 1172.3 1886.5 1058 1886.5 1043.4 1886.3 1043.2 1871.8 1043.2 1664.3 1043.2 1456.8 1043.2 1249.3 1043.2 1235.2 1043.2 1234.7 1043.8 1234.7 1058.3 1234.7 1172.3 1234.7 1286.3 1234.7 1400.3 1234.7 1414.6 1235.3 1415.2 1249.5 1415.2 1353 1415 1456.6 1415 1560.2 1415Z" fill="#FFFFFF"/><path d="M746.3 973.5C746.3 983 746.3 990 746.3 994.6 721.5 1001.1 697.5 1006.6 674 1014 666.9 1016.2 662.6 1015.7 657.7 1011.2 650.9 1004.9 651.1 998 659.5 994.4 671.4 989.4 683.7 984.7 696.2 981.8 712.3 978.1 728.8 976.3 746.3 973.5Z" fill="#FFFFFF"/><path d="M1487.2 1262.4C1477.5 1263.6 1469.9 1264.6 1461.1 1265.7 1466.2 1277.3 1471 1288.1 1476.1 1299.6 1472.9 1301.2 1470.2 1302.6 1467 1304.2 1461.8 1292.6 1456.9 1281.5 1451.5 1269.5 1445.1 1275.4 1439.7 1280.4 1433.2 1286.4 1433.2 1261.2 1433.2 1237.3 1433.2 1211.9 1451.2 1228.8 1468.6 1245.1 1487.2 1262.4Z" fill="#FFFFFF"/><path d="M1450.2 1157.2C1454.7 1163.1 1458.5 1168.2 1462.9 1174.1 1460 1175 1457.6 1175.8 1454.9 1176.6 1454.7 1181.8 1454.4 1186.9 1454.2 1191.9 1445.9 1192.7 1445.9 1192.7 1444.9 1176.2 1442.8 1175.7 1440.5 1175.1 1437.4 1174.4 1441.8 1168.5 1445.8 1163.2 1450.2 1157.2Z" fill="#FFFFFF"/><path d="M1379.1 1240.4C1379.9 1243.8 1380.4 1246.1 1381 1248.6 1386.5 1248.9 1391.6 1249.1 1396.6 1249.3 1397.4 1257.6 1397.4 1257.6 1380.9 1258.6 1380.4 1260.7 1379.8 1263 1379.1 1266 1373.3 1261.8 1368.2 1258 1361.7 1253.3 1367.5 1249.1 1372.7 1245.2 1379.1 1240.4Z" fill="#FFFFFF"/><path d="M1517.1 1240.2C1523.5 1245 1528.7 1248.8 1534.6 1253.2 1528.8 1257.6 1523.5 1261.6 1517.4 1266.1 1516.7 1263 1516.1 1260.8 1515.8 1259.4 1510.5 1255 1498.7 1264.1 1498.9 1250.8 1504.7 1245.6 1516.5 1255.2 1517.1 1240.2Z" fill="#FFFFFF"/><path d="M1452.9 1315.8C1457.2 1322.6 1448.8 1333.5 1463.3 1333.8 1458.8 1339.9 1454.9 1345.2 1450.3 1351.4 1445.9 1345.5 1441.9 1340.2 1437.4 1334.1 1440.5 1333.4 1442.7 1332.9 1443.7 1332.6 1448.8 1327.4 1438.9 1315.1 1452.9 1315.8Z" fill="#FFFFFF"/></g><g><path d="M462.3 947.9C480.4 955.6 500.2 960.8 516.3 971.5 543.1 989.2 555 1016.9 555.3 1048.9 555.7 1099.4 555.5 1149.9 555.4 1200.3 555.2 1256.6 513.6 1300.1 459 1301.4 405.3 1302.6 360.4 1259.4 359.4 1203.6 358.4 1151.8 358.5 1100 359.4 1048.2 360.2 1000.1 391.4 963.3 438.1 952.7 442.8 951.6 447.2 949.6 451.7 948 455.2 947.9 458.7 947.9 462.3 947.9Z" fill="#FFFFFF"/><path d="M281.4 1160.7C286.6 1149 294.8 1141.3 308.3 1145.1 322 1148.9 323.6 1160.4 323.6 1172.7 323.5 1190 322.5 1207.5 324.9 1224.5 334.3 1289.9 394.3 1339.2 460.4 1337.2 528.9 1335.1 584.1 1284.3 590.3 1217.1 591.8 1200.8 591.3 1184.4 591.8 1168 592.2 1152.2 599.3 1144.2 612.5 1144.5 624.7 1144.8 632.3 1153.2 632.6 1167.6 633.4 1204.9 633.8 1242.2 616.6 1276.8 591.1 1328.1 551.3 1361.8 494.6 1374.3 489.5 1375.4 484.4 1376.6 478.7 1377.8 478.7 1389.6 478.7 1400.9 478.7 1414.3 498.6 1414.3 518.3 1414.3 538.1 1414.3 543.4 1414.3 548.8 1413.9 554 1414.5 564.7 1415.8 572.4 1421.2 573.9 1432.5 575.4 1443.8 569.6 1451.2 559.6 1455.2 556 1456.6 551.9 1457.1 548 1457.2 487.3 1457.3 426.6 1457.3 365.9 1457.2 362.8 1457.2 359.5 1457.1 356.8 1456 346.5 1451.9 338.9 1445.1 340.4 1433.1 342 1420.7 350.5 1414.6 362.5 1414.4 382 1414 401.5 1414.3 421 1414.3 425.7 1414.3 430.5 1414.3 436.5 1414.3 436.5 1403.1 437.4 1393.4 436 1383.9 435.5 1380.7 429.6 1376.7 425.6 1375.9 372.5 1365.3 331.6 1336.9 305.5 1289.9 295.2 1271.4 291 1249.5 283.9 1229.2 283.1 1226.8 282.2 1224.4 281.3 1222 281.4 1201.5 281.4 1181.1 281.4 1160.7Z" fill="#FFFFFF"/><path d="M1843.9 1234.1C1843.9 1205.9 1843.9 1180.4 1843.9 1153.5 1835.2 1153.5 1827 1153.5 1816.4 1153.5 1819 1141.6 1810.2 1129.6 1824.7 1121 1822.5 1115.8 1820.1 1110.2 1817.8 1104.5 1809.6 1083.8 1811.2 1064.3 1827 1047.7 1841.4 1032.5 1867 1027 1887.2 1038.3 1903.8 1047.6 1918.7 1060.9 1931.9 1074.8 1943.4 1086.8 1951.1 1102.4 1961.3 1115.7 1964.2 1119.5 1970.2 1122.8 1974.9 1123.1 1992.9 1123.9 2011 1123.4 2029.9 1123.4 2029.9 1133.3 2029.9 1142 2029.9 1152.7 2020.9 1152.7 2011.8 1152.7 2002.7 1152.7 1993.5 1152.7 1984.3 1152.7 1973.5 1152.7 1973.5 1226.5 1973.5 1299 1973.5 1372.4 1962.4 1372.4 1952.9 1372.4 1941.8 1372.4 1941.8 1300 1941.8 1227.5 1941.8 1153.9 1919.4 1153.9 1898.5 1153.9 1876.1 1153.9 1876.1 1226.8 1876.1 1299.2 1876.1 1372.5 1865.1 1372.5 1855.7 1372.5 1844.4 1372.5 1844.4 1339.1 1844.4 1306.2 1844.4 1269.4 1811.3 1295.9 1781.1 1320.1 1750.2 1344.9 1743.8 1335.3 1737.9 1326.6 1731.1 1316.4 1758 1295.8 1784.5 1275.5 1812.9 1253.7 1790.9 1244 1771.4 1234.9 1751.4 1227 1748.2 1225.7 1742.3 1228.9 1738.8 1231.6 1718.2 1247 1698 1262.8 1677.5 1278.4 1673.7 1281.3 1669.8 1284 1665.1 1287.3 1658.5 1277.6 1652.7 1268.9 1646.1 1259.1 1668.4 1243.2 1689.8 1228 1711.3 1212.7 1685.4 1179.2 1683.6 1157.3 1704.3 1137.1 1725.4 1116.6 1758.3 1114.7 1780.7 1132.8 1801.1 1149.3 1802.2 1174.3 1782.8 1206.4 1802.7 1215.5 1822.1 1224.3 1843.9 1234.1ZM1930.9 1123.4C1924.1 1113.5 1920 1106.1 1914.4 1100 1903.8 1088.3 1893.4 1076.2 1881.1 1066.5 1871.4 1058.8 1858.9 1060.3 1849.3 1068.6 1839.9 1076.7 1840.8 1087.4 1845.6 1097.8 1848.8 1104.6 1852.3 1111.3 1856.3 1117.5 1858 1120.1 1861.5 1123.2 1864.2 1123.2 1885.3 1123.6 1906.3 1123.4 1930.9 1123.4ZM1742.8 1150.1C1730.6 1150.3 1720.5 1160.2 1720.8 1171.8 1721 1183.5 1731.2 1192.9 1743.5 1192.8 1756.2 1192.7 1765.2 1183.6 1765.1 1171.2 1764.9 1159 1755.3 1149.9 1742.8 1150.1Z" fill="#FFFFFF"/><path d="M1486.6 1230C1495.8 1182 1458.3 1130.2 1418 1132.6 1435 1159.3 1435.5 1174.5 1420 1193.5 1404.6 1212.4 1376.6 1220.4 1355.2 1212.2 1332.7 1203.5 1316.3 1177.2 1318.4 1152.9 1320.3 1130.6 1339.1 1108.1 1362.6 1103.8 1436.9 1090 1500.9 1124.1 1516.1 1194.6 1518.5 1205.6 1517.6 1217.3 1518.2 1229.3 1527.3 1229.3 1535.9 1229.3 1546.2 1229.3 1546.2 1207.6 1546.2 1186.4 1546.2 1165.3 1546.2 1144.6 1546.2 1123.9 1546.2 1102.1 1555.8 1102.1 1564 1102.1 1573 1102.1 1573 1187.5 1573 1272.3 1573 1357 1571.9 1357.7 1571.2 1358.4 1570.4 1358.5 1546.2 1360.9 1546.2 1360.9 1546.2 1336.7 1546.2 1311.1 1546.2 1285.5 1546.2 1258.7 1534.8 1258.7 1525 1258 1515.5 1259.1 1512.4 1259.4 1508.6 1263.6 1507.1 1267 1484 1316.5 1447.6 1348.2 1392 1356.4 1354.4 1361.9 1317.3 1359.9 1282 1346.9 1264.3 1340.4 1247.8 1328.5 1233.1 1316.2 1216.6 1302.3 1215.4 1281.8 1220.3 1262.1 1225.5 1241.1 1243 1230 1268.1 1230 1335.9 1229.9 1403.7 1230 1471.5 1230 1476.4 1230 1481.3 1230 1486.6 1230ZM1478.8 1260C1474.9 1259.4 1472.9 1258.8 1470.8 1258.8 1402.2 1258.7 1333.6 1258.6 1265 1258.8 1251.7 1258.8 1246 1266.1 1247.7 1279.5 1250.8 1303.4 1266.5 1318.1 1288.2 1321.2 1321.7 1325.9 1355.8 1327.6 1389.6 1327.3 1403.8 1327.2 1419.2 1320.8 1431.8 1313.5 1452.7 1301.5 1468.8 1284 1478.8 1260ZM1347.1 1159.9C1347.3 1174.9 1360.2 1187.4 1375.4 1187.1 1390 1186.9 1403.3 1173.6 1403.4 1159 1403.6 1144.3 1389 1130.3 1374.1 1130.9 1359.7 1131.5 1346.9 1145.2 1347.1 1159.9Z" fill="#FFFFFF"/><path d="M2078.1 1371.9C2088.7 1342.3 2098.7 1314.6 2108.7 1286.9 2129.9 1228.4 2151.3 1170 2172.2 1111.3 2175.3 1102.5 2179.1 1098.4 2189 1099.2 2202.6 1100.3 2219.6 1095.2 2229.1 1101.6 2238.4 1108 2240.4 1125.4 2245 1138.1 2271.5 1211.1 2297.8 1284.2 2324.2 1357.3 2325.7 1361.4 2327.1 1365.5 2329.3 1371.8 2313.7 1371.8 2299.4 1372.2 2285.1 1371.4 2282.6 1371.3 2279.4 1366.7 2278.2 1363.5 2273.4 1351.2 2269.1 1338.6 2265 1326 2263 1319.8 2259.9 1317 2252.8 1317.1 2220 1317.5 2187.3 1317 2154.5 1317.6 2150.7 1317.7 2145.1 1321.8 2143.6 1325.5 2138.2 1338 2134.6 1351.3 2129.5 1364 2128.2 1367.3 2123.9 1371.4 2120.8 1371.6 2107.2 1372.3 2093.6 1371.9 2078.1 1371.9ZM2161.4 1274.1C2190.6 1274.1 2217.8 1274.1 2246.5 1274.1 2232.4 1234.2 2218.8 1195.5 2205.2 1156.8 2204.3 1156.9 2203.3 1157.1 2202.4 1157.2 2188.9 1195.8 2175.3 1234.4 2161.4 1274.1Z" fill="#FFFFFF"/><path d="M942.8 1225.7C942.8 1264.7 942.8 1303.8 942.7 1342.8 942.7 1346.2 942.7 1350.6 940.7 1352.9 938.3 1355.8 933.9 1358.4 930.2 1358.4 926.9 1358.5 923 1355.6 920.4 1352.9 918.8 1351.2 918.5 1347.7 918.5 1345 918.4 1265.7 918.4 1186.3 918.5 1107 918.5 1098.2 922.2 1093.2 928.7 1092.5 937.3 1091.5 942.6 1096.5 942.6 1106.3 942.7 1122 942.6 1137.7 942.6 1153.5 942.8 1177.6 942.8 1201.6 942.8 1225.7Z" fill="#FFFFFF"/><path d="M988.6 1225.7C988.6 1249.5 988.6 1273.4 988.6 1297.2 988.6 1299.7 988.8 1302.4 988.2 1304.8 986.9 1310.6 983 1314.2 977 1314.4 971.4 1314.6 967.2 1311.7 965.6 1306.1 964.7 1303 964.4 1299.6 964.3 1296.4 964.2 1249.2 964.3 1202.1 964.3 1154.9 964.3 1153.9 964.3 1152.9 964.3 1151.9 964.8 1142.5 969.7 1136.6 977 1136.9 984.2 1137.2 988.5 1142.5 988.5 1151.9 988.7 1176.5 988.6 1201.1 988.6 1225.7Z" fill="#FFFFFF"/><path d="M872.8 1225.8C872.8 1202.7 872.8 1179.7 872.8 1156.6 872.8 1153.9 872.5 1150.3 874.1 1148.6 876.8 1145.5 880.9 1141.5 884.3 1141.6 888.1 1141.7 892.5 1145.4 895.4 1148.5 897.1 1150.3 896.8 1154.3 896.8 1157.3 896.9 1202.9 896.8 1248.5 896.8 1294.1 896.8 1294.9 896.8 1295.6 896.8 1296.4 896.4 1305.6 892.1 1310.5 884.3 1310.4 877.2 1310.4 872.8 1305.4 872.8 1296.4 872.7 1272.9 872.8 1249.3 872.8 1225.8Z" fill="#FFFFFF"/><path d="M1056.9 1225.7C1056.9 1206.4 1056.9 1187.1 1056.9 1167.8 1056.9 1162.1 1058.3 1157.3 1064.1 1154.8 1070.3 1152.1 1077.4 1154.9 1079.7 1161.2 1080.5 1163.3 1080.9 1165.7 1080.9 1167.9 1081 1206.2 1081 1244.5 1081 1282.9 1081 1284.2 1080.8 1285.4 1080.6 1286.7 1079.3 1293.9 1074.7 1298.2 1068.4 1297.9 1061.7 1297.6 1057.1 1292.8 1057.1 1285.2 1056.9 1265.3 1057 1245.5 1056.9 1225.7 1057 1225.7 1056.9 1225.7 1056.9 1225.7Z" fill="#FFFFFF"/><path d="M804.3 1225.6C804.3 1243.1 804.4 1260.6 804.3 1278.1 804.3 1287.4 800 1292.7 792.6 1292.9 785.8 1293.1 780.8 1288 780.7 1279 780.4 1243.2 780.3 1207.4 780.5 1171.7 780.5 1163.4 786.2 1158.1 793.2 1158.5 799.9 1158.9 804.3 1164.1 804.3 1172.3 804.4 1190.1 804.3 1207.9 804.3 1225.6Z" fill="#FFFFFF"/><path d="M826.8 1225C826.8 1216.7 826.5 1208.3 826.9 1199.9 827.2 1192 831.6 1187.6 838.4 1187.4 845.4 1187.2 850.2 1192 850.4 1200.2 850.7 1217.2 850.7 1234.1 850.4 1251.1 850.3 1259.2 845.4 1264.2 838.5 1264 831.6 1263.9 827.1 1259.1 826.9 1250.8 826.5 1242.3 826.7 1233.7 826.8 1225 826.7 1225 826.7 1225 826.8 1225Z" fill="#FFFFFF"/><path d="M1011 1225.5C1011 1219.4 1010.7 1213.4 1011.1 1207.3 1011.5 1200.1 1016 1196 1022.8 1196 1029.4 1196 1034.2 1200.2 1034.4 1207.4 1034.8 1219.8 1034.8 1232.2 1034.3 1244.5 1034.1 1251.2 1029.9 1255.1 1023 1255.3 1016.2 1255.6 1011.5 1251.5 1011.1 1244.4 1010.7 1238.2 1011 1231.8 1011 1225.5 1011 1225.5 1011 1225.5 1011 1225.5Z" fill="#FFFFFF"/><path d="M1126.7 1225.9C1126.7 1230.2 1127 1234.6 1126.6 1238.8 1125.9 1245.8 1121 1250.1 1114.4 1249.7 1107.5 1249.3 1103.5 1245.4 1103.1 1238.7 1102.7 1229.9 1102.6 1220.9 1103.2 1212.1 1103.6 1205.3 1108 1201.6 1114.8 1201.6 1121.7 1201.6 1125.7 1205.6 1126.5 1212.2 1127.1 1216.7 1126.7 1221.4 1126.7 1225.9 1126.7 1225.9 1126.7 1225.9 1126.7 1225.9Z" fill="#FFFFFF"/><path d="M734.4 1226C734.4 1222.7 734.1 1219.4 734.5 1216.1 735.2 1209.9 738.7 1205.8 745 1205 751.8 1204.2 756.9 1207.5 757.8 1214.1 758.8 1221.6 758.8 1229.3 757.9 1236.8 757.1 1243.4 752.3 1246.7 745.4 1246.4 739.2 1246.1 734.8 1241.6 734.4 1235.1 734.3 1232.1 734.4 1229 734.4 1226Z" fill="#FFFFFF"/></g><g><path d="M1714.4 1545.9C1700.6 1543.6 1686.6 1542.5 1673.1 1539 1571.8 1512.4 1506.3 1448.4 1483.1 1346.5 1451.6 1208.3 1538.3 1075.3 1676.5 1044.2 1688.1 1041.6 1700.1 1040.8 1711.9 1039.1 1714.1 1038.8 1716.3 1038.3 1718.6 1037.9 1726 1037.9 1733.3 1037.9 1740.7 1037.9 1742.9 1038.3 1745.2 1038.7 1747.4 1039 1763.7 1041.7 1780.3 1043 1796.2 1047.2 1920.9 1080.2 2003.9 1204.6 1979.8 1338 1962.2 1435.9 1885.1 1517.4 1788.1 1539 1774.3 1542.1 1760.1 1543.7 1746.2 1545.9 1735.6 1545.9 1725 1545.9 1714.4 1545.9ZM1959 1292.1C1959.1 1165.7 1856.8 1063.1 1730.6 1063 1604.3 1062.9 1501.7 1165.3 1501.6 1291.6 1501.5 1418.3 1603.6 1520.9 1729.7 1521 1856.7 1521.1 1958.9 1419 1959 1292.1Z" fill="#FFFFFF"/><path d="M489.9 1203.5C515.4 1189.9 540.9 1176.5 566.4 1162.8 606 1141.5 645.6 1120.2 685.2 1098.9 687 1097.9 688.9 1097.1 691.1 1096 695.1 1102.8 699.2 1109.4 703.1 1116.1 717.5 1141.2 731.8 1166.3 746.3 1191.3 749 1196.1 749.6 1199.3 744.1 1203.1 734.7 1209.5 730.9 1220 728.9 1230.8 726.6 1243.4 720.7 1253.7 711.1 1261.8 690.3 1279.2 669.2 1296.5 644.7 1308.4 629.9 1315.6 614.4 1321.5 598.9 1326.8 592.2 1329.1 584.4 1329.1 577.3 1328.6 574.5 1328.4 571.5 1324.5 569.5 1321.6 544.3 1284.6 519.2 1247.5 494.1 1210.4 492.8 1208.5 491.4 1206.8 490 1205 489.9 1204.4 489.9 1204 489.9 1203.5Z" fill="#FFFFFF"/><path d="M646.6 1476.9C632.9 1462.3 619.3 1448.6 606.6 1434.2 586.5 1411.4 575.1 1384.4 570.1 1354.5 568.4 1344.2 570.6 1340.8 580 1341 597.1 1341.4 613 1336.3 627.3 1328 655.2 1311.7 682.5 1294.2 709.3 1276.2 718.3 1270.2 726.7 1262 732.8 1253.1 738.3 1245.1 741.2 1234.9 743.7 1225.3 748.8 1205.7 761.3 1196.9 781.2 1200.5 834.2 1209.9 887.6 1212.1 941.2 1211 959.4 1210.6 977.5 1210.1 995.7 1209.5 1030.9 1208.4 1064.7 1199.9 1097.9 1188.9 1116.6 1182.7 1135.2 1176.2 1153.6 1169.3 1182.5 1158.6 1211.4 1165.8 1231.9 1188.9 1234.4 1191.7 1238 1193.4 1241.1 1195.7 1243.5 1197.4 1246.3 1198.8 1248.2 1201 1254.3 1208.2 1253 1214.4 1244.7 1218.9 1216.2 1234.2 1187.8 1249.7 1159.2 1264.8 1095.5 1298.5 1032.1 1332.6 967.9 1365.3 923.6 1387.8 876 1400.5 826.9 1407.8 825.8 1408 824.6 1408.2 823.5 1408.5 822.9 1408.7 822.3 1409.1 821.3 1409.7 824.6 1415.5 828.1 1421.1 831.1 1426.9 835.2 1434.7 833.7 1440 826.1 1444.1 776.5 1471 726.7 1497.7 677.1 1524.6 671.5 1527.6 667.8 1526.6 664.6 1521.1 658.4 1510.6 652.3 1500 645.5 1490 641.3 1484.3 640 1479.9 646.6 1476.9Z" fill="#FFFFFF"/><path d="M1225.9 1298.7C1225.9 1307.3 1220.2 1311.8 1213.5 1315.4 1182.2 1332.3 1150.9 1349.1 1119.6 1365.9 1104.3 1374.2 1088.9 1382.5 1073.5 1390.7 1069.1 1393 1064.5 1395.3 1059.8 1396.9 1050.2 1400.3 1040.8 1396.5 1036.5 1387.8 1031.9 1378.6 1034.5 1369.1 1043.7 1363.4 1050.1 1359.4 1056.9 1356.1 1063.6 1352.5 1102.4 1331.6 1141.1 1310.7 1179.9 1289.9 1186.4 1286.4 1192.9 1283 1199.7 1280.3 1213.2 1274.8 1226.1 1284 1225.9 1298.7Z" fill="#FFFFFF"/><path d="M1130.8 1366.5C1139.5 1361.9 1147.7 1357.5 1156.3 1352.9 1160 1357.7 1163.3 1362 1166.6 1366.4 1185.8 1392.3 1210.8 1410.2 1241.2 1420.7 1251.8 1424.4 1252 1424.7 1251.8 1435.9 1251.7 1438.7 1251.8 1441.4 1251.8 1444.2 1251.8 1446.7 1251.8 1449.2 1251.8 1451.7 1215.8 1454.1 1155 1411.4 1130.8 1366.5Z" fill="#FFFFFF"/><path d="M1567.7 1292.4C1580.9 1292.4 1592.6 1292.4 1605 1292.4 1606.9 1335.7 1624.7 1370.7 1660.5 1395.5 1683.3 1411.2 1708.9 1418 1736.7 1416.8 1795.6 1414.3 1853.1 1366.7 1855.7 1292.2 1861.7 1292.2 1867.8 1292.2 1873.9 1292.2 1879.8 1292.2 1885.8 1292.2 1892.8 1292.2 1890.8 1348.9 1868.5 1394.5 1821.8 1425.7 1764.3 1464.1 1703.8 1465.5 1644.7 1429.6 1594.4 1398.9 1570.2 1351.8 1567.7 1292.4Z" fill="#FFFFFF"/><path d="M1806.4 1253.4C1792.4 1253.4 1781.6 1242.6 1781.6 1228.5 1781.6 1214.6 1792.5 1203.5 1806.3 1203.4 1820.4 1203.3 1831.9 1214.8 1831.6 1228.7 1831.5 1242.6 1820.3 1253.4 1806.4 1253.4Z" fill="#FFFFFF"/><path d="M1654.2 1253.4C1640.3 1253.4 1629.1 1242.6 1628.9 1228.8 1628.7 1215.1 1640.4 1203.4 1654.3 1203.5 1668.1 1203.6 1679.1 1214.7 1679.1 1228.6 1679 1242.5 1668.2 1253.3 1654.2 1253.4Z" fill="#FFFFFF"/></g><g><path d="M1252.3 2001.2C1236.7 1998.9 1221 1997.2 1205.6 1994.2 1091.5 1972 1003.3 1883.5 982.9 1769.4 978.3 1743.6 976.7 1717 976.1 1690.7 973.5 1579.5 971.8 1468.3 969.9 1357.1 969.4 1326 969.2 1294.9 968.7 1263.8 967.7 1190.4 995.7 1129.2 1047.9 1078.7 1099.7 1028.5 1161.9 999 1233.5 990.8 1301.8 983 1366.2 995.8 1426.2 1030.5 1473.9 1058.1 1513.7 1093.5 1540.9 1141.8 1562.8 1180.6 1573.5 1222.4 1571.6 1267.2 1567.7 1360.4 1564.2 1453.7 1560.1 1546.9 1557.6 1604.6 1555 1662.4 1551.4 1720.1 1546.4 1799 1518.9 1868.5 1460.8 1923.8 1416.8 1965.7 1364.1 1990 1303.8 1997.8 1294.8 1999 1285.8 2000 1276.9 2001.1 1268.7 2001.2 1260.5 2001.2 1252.3 2001.2ZM1519.5 1318.6C1520 1318.6 1520.6 1318.6 1521.1 1318.6 1521.1 1298.7 1521.1 1278.7 1521.1 1258.8 1521.1 1209.8 1506.5 1166.1 1474.6 1128.5 1446.6 1095.4 1410.7 1073 1371.2 1057.6 1284 1023.6 1199.1 1034.3 1119.8 1081 1055.9 1118.7 1021.2 1177 1019.4 1252 1018.2 1303.3 1020.2 1354.7 1021.1 1406 1022.9 1501.1 1024.9 1596.1 1027 1691.2 1027.8 1729 1028.4 1766.7 1042.7 1802.8 1069.2 1869.8 1115.4 1916.3 1184.1 1938.5 1218.4 1949.6 1254.1 1951.8 1290.2 1948.8 1369.3 1942.1 1431.2 1909.3 1468.3 1836.1 1483.6 1806 1496.2 1775 1498.6 1741.4 1503.2 1677.9 1506.2 1614.3 1509.3 1550.8 1512.9 1473.3 1516.1 1395.9 1519.5 1318.6Z" fill="#FFFFFF"/><path d="M967 498.8C982.2 504.2 986.7 515.5 985.5 530.6 982.8 565.7 981 600.8 977.9 635.9 973.6 684.4 1002.1 729.3 1050.5 749 1074.8 758.8 1100.2 761.8 1126.1 763.2 1150.7 764.5 1175.5 764.5 1199.7 768.5 1247.1 776.3 1279.8 803.4 1292.9 850.4 1298.1 869.1 1299.9 888.9 1301.5 908.3 1302.7 922.1 1292 932.8 1279.1 933.9 1265.8 935 1255.3 926.7 1252.7 912.2 1250.5 899.5 1249.6 886.6 1247 874 1242 850.1 1231.7 829 1207.1 820.2 1195.8 816.2 1183.1 815.3 1170.9 814.3 1138.5 811.5 1105.6 812 1073.7 806.6 1023.5 798.1 980.9 774.3 951.7 730.9 936.3 708.1 927.2 682.6 928.5 654.8 930.6 611.2 933.7 567.6 936.8 524.1 937.6 512.4 944.3 504.1 954.8 499 958.7 498.8 962.8 498.8 967 498.8Z" fill="#FFFFFF"/><path d="M1247.1 1251.8C1247.1 1223.1 1246.8 1194.4 1247.2 1165.6 1247.4 1151 1255.9 1141.8 1268.9 1140.1 1280 1138.7 1291.9 1146.5 1295.2 1157.7 1296.1 1160.7 1296.2 1164 1296.2 1167.2 1295.7 1221.7 1295.1 1276.2 1294.4 1330.8 1294.3 1334.6 1293.6 1338.4 1292.9 1342.1 1290.1 1357.3 1280.1 1364.7 1264 1363.7 1253.8 1363 1245.7 1353.5 1245.4 1339.8 1244.9 1314.6 1245.2 1289.4 1245.1 1264.2 1245.1 1260.1 1245.1 1256 1245.1 1251.9 1245.8 1251.8 1246.5 1251.8 1247.1 1251.8Z" fill="#FFFFFF"/></g><g><path d="M759.5 1310.3C759.5 1059.3 760.7 808.3 758.7 557.3 758.1 485.1 810.9 423.6 892.4 424.2 1118 425.8 1343.6 424.7 1569.1 424.8 1649.6 424.8 1700.8 475.8 1700.8 556 1700.8 1059.5 1700.8 1562.9 1700.8 2066.4 1700.8 2146.5 1649.5 2197.4 1569 2197.4 1342.5 2197.4 1115.9 2197.4 889.4 2197.4 810.9 2197.4 759.4 2146.1 759.4 2067.8 759.5 1815.3 759.5 1562.8 759.5 1310.3ZM1616.9 1941.1C1616.9 1520.1 1616.9 1100.9 1616.9 681.2 1358.6 681.2 1101.2 681.2 843.7 681.2 843.7 1101.7 843.7 1521 843.7 1941.1 1101.7 1941.1 1358.7 1941.1 1616.9 1941.1ZM1229.8 1995.4C1187.6 1995.5 1154.1 2029.1 1154.3 2071.3 1154.4 2113.3 1188.6 2147.2 1230.4 2147 1272.1 2146.8 1306.5 2112.2 1306.3 2070.7 1306.1 2028.9 1272 1995.3 1229.8 1995.4ZM1230.2 563.3C1252.7 563.3 1275.2 563.2 1297.7 563.3 1306 563.3 1313 562.7 1313.1 551.4 1313.2 540.5 1307.1 538.9 1298.3 538.9 1252.8 539 1207.3 539.1 1161.8 538.9 1152.8 538.9 1147 540.9 1147.1 551.5 1147.2 562.6 1154.2 563.3 1162.6 563.3 1185.2 563.2 1207.7 563.3 1230.2 563.3Z" fill="#FFFFFF"/></g><g><path d="M2081 498.2C2092.6 498.8 2104.2 499.5 2115.8 500.1 2119.9 500.3 2124 500.2 2128.1 500.3 2147.2 501 2152.5 505.9 2152.9 525 2154 569.9 2155.3 614.8 2155.4 659.6 2155.8 922.8 2155.6 1186 2156.2 1449.3 2156.3 1472.6 2145.9 1481.4 2124.3 1481.5 2070.2 1481.9 2016 1483.4 1961.9 1483.4 1781.6 1483.6 1601.3 1483.4 1421.1 1483.1 1402 1483.1 1382.8 1481.3 1363.8 1479.5 1353.7 1478.5 1346.6 1469.1 1346.3 1458.9 1346.3 1458.2 1346.3 1457.5 1346.3 1456.8 1346.6 1151.8 1346.8 846.7 1347.1 541.7 1347.1 507.6 1354.7 500.6 1389.1 500.2 1414.8 499.9 1440.5 499.6 1466.2 499.2 1468.9 499.2 1471.6 498.5 1474.2 498.1 1676.5 498.2 1878.8 498.2 2081 498.2ZM2099.6 988.8C2099.7 988.8 2099.8 988.8 2099.9 988.8 2099.9 900.7 2100 812.6 2099.9 724.5 2099.8 678.9 2099.6 633.3 2099 587.7 2098.7 566.9 2087.8 556.2 2067.3 555.2 2055.7 554.7 2044 554 2032.4 554 1857.6 553.8 1682.8 553.6 1508 553.5 1480.6 553.5 1453.2 554.1 1425.8 555.1 1411.6 555.6 1405.5 562.1 1404.5 576.3 1403.4 592 1402.4 607.8 1402.4 623.5 1402.1 848.3 1402 1073.2 1402.1 1298 1402.1 1333.3 1403 1368.6 1404.2 1403.8 1404.6 1416.8 1413.9 1424.9 1426.9 1425.5 1442.6 1426.3 1458.4 1427.3 1474.1 1427.3 1592.4 1427.5 1710.6 1427.8 1828.9 1427.5 1911.8 1427.3 1994.8 1426.3 2077.7 1425.4 2093.3 1425.2 2096.7 1421.3 2097.6 1405.7 2098.4 1391 2099.6 1376.3 2099.6 1361.6 2099.7 1237.7 2099.6 1113.3 2099.6 988.8Z" fill="#FFFFFF"/><path d="M347 1499.9C351.3 1483.8 358.8 1471.3 377.3 1468.4 401.2 1464.7 416.3 1474 420.8 1497.5 425.4 1521 427.3 1545.1 433.6 1568.1 457.6 1655 513.9 1713.8 599.4 1739.4 673.7 1761.6 741 1740.9 797.4 1687.9 845.9 1642.3 874.2 1586.4 880 1519.5 880.7 1511.7 882.1 1503.9 883.6 1496.2 887.4 1476.7 901.3 1465.9 920.7 1467.1 939.8 1468.3 955.2 1483.2 955.8 1502.1 957.5 1555 945.5 1605 919.1 1650.6 874.4 1727.8 810.1 1780.4 722.5 1802.5 688.6 1811 686.7 1813.6 686.3 1848.4 686.1 1866.9 685.9 1885.4 686.2 1903.9 686.5 1920.6 694.5 1929.8 711.3 1930.2 734.9 1930.7 758.6 1928.9 782.2 1929.1 802 1929.3 821.9 1930.4 841.7 1932.1 856 1933.3 864.2 1942.8 865.5 1957.2 865.6 1957.9 865.6 1958.6 865.7 1959.3 868.1 1992.1 859.4 2002.8 826.5 2003.5 779.2 2004.4 731.9 2004.2 684.6 2004.2 626.3 2004.3 568.1 2004.2 509.8 2004 497.1 2003.9 484.4 2003.4 471.8 2002.4 445.1 2000.3 432.7 1983.4 438.2 1957.2 441.3 1942.3 449.6 1932.9 464.9 1931.9 490.5 1930.2 516.2 1930.4 541.9 1929.8 561.8 1929.3 581.6 1928.6 601.5 1928.2 610.9 1928 616.8 1923.9 616.9 1914.2 617.3 1886.8 618.1 1859.4 617.1 1832.1 616.5 1815.5 607 1805.8 590.6 1802.7 498.2 1784.8 433.3 1729.5 385.6 1651.5 363.7 1615.6 354.3 1575.2 349.1 1533.8 348.6 1530.2 347.7 1526.6 347 1523 347 1515 347 1507.5 347 1499.9Z" fill="#FFFFFF"/><path d="M487 1374.1C487 1334.3 486.3 1294.6 487.1 1254.9 488.8 1171.8 563.1 1097.3 646.4 1095.2 735.3 1093 803.4 1159.2 815.3 1238.5 817.1 1250.7 817.5 1263.1 817.5 1275.4 817.7 1346.7 817.4 1418 817.7 1489.2 817.9 1526.2 808.5 1560 787.7 1590.8 725.1 1683.1 596 1688.4 524.4 1601.6 499.1 1570.9 488 1535.2 487 1496.3 486.2 1455.6 487 1414.8 487 1374.1Z" fill="#FFFFFF"/><path d="M958.2 792.4C958.2 784.3 958.4 776.1 958.2 768 957.6 745.4 956.7 722.8 956.2 700.2 956 690.3 950.2 685.6 941.3 685.4 895.3 684.5 849.4 686.2 805.2 700.5 758 715.8 732.5 751.7 717.3 796.6 704 835.8 699.1 876.5 696.6 917.6 695.4 936.7 694 955.9 692.6 975 691.9 984.5 686.9 990.7 677.1 990.7 658.6 990.6 640.1 989.8 621.7 989 615.9 988.7 612.6 985.5 612.5 979 611.5 908.6 614.5 838.8 633.8 770.4 655 694.8 705 649.2 780.2 632.5 817.1 624.3 855.3 622 892.9 617.7 907.2 616 921.7 616.3 936 615.4 951 614.4 955.6 609.9 956.1 595.1 956.9 568.7 957.2 542.3 957.9 515.9 958.2 505.3 960.8 503.7 970.4 507.9 974.4 509.7 978.3 512 981.9 514.6 1034.4 553 1086.8 591.6 1139.3 630.1 1141.5 631.7 1143.6 633.5 1145.7 635.2 1154 642.1 1154.3 644.9 1145.4 651.8 1089.6 694.9 1033.6 737.9 977.7 780.9 972.3 785.1 966.8 789.1 961.4 793.2 960.3 792.9 959.2 792.7 958.2 792.4Z" fill="#FFFFFF"/><path d="M1435.2 1714.4C1435.2 1741.7 1435.1 1767 1435.2 1792.3 1435.4 1821.3 1438.1 1824.6 1467.1 1823 1500.5 1821.2 1534.2 1819.9 1567.2 1814.4 1621.1 1805.4 1657.5 1772.9 1677.8 1722.4 1693 1684.6 1699.6 1644.9 1702.5 1604.4 1704.1 1582.2 1704.9 1559.9 1706.7 1537.8 1707.9 1523.2 1712.3 1519.1 1726.8 1518.7 1741.5 1518.3 1756.3 1518.2 1771 1518.9 1786.1 1519.6 1789 1522.7 1788.8 1537.7 1788.5 1559.3 1788.1 1580.9 1786.7 1602.4 1783.6 1647.8 1778.2 1692.9 1765 1736.8 1740.2 1819.1 1684.2 1866.1 1600.9 1880 1558.8 1887 1515.9 1889.8 1473.3 1892.5 1438.5 1894.7 1437.4 1894.3 1435.8 1928.9 1435.3 1940.9 1435.2 1952.9 1435.1 1964.9 1435 1976.8 1435.1 1988.8 1435.1 2002.3 1431.5 2000.6 1429.4 2000 1427.7 1998.8 1372.7 1957.4 1317.7 1916 1262.8 1874.5 1252.4 1866.7 1252.3 1863.5 1261.9 1855.6 1318 1809.5 1374.2 1763.5 1430.5 1717.5 1431.4 1716.6 1432.6 1716.1 1435.2 1714.4Z" fill="#FFFFFF"/><path d="M1736.4 1117.3C1802.6 1117.3 1868.7 1117.1 1934.8 1117.4 1953.6 1117.5 1955.5 1119.9 1955.5 1138.3 1955.5 1146.2 1955.2 1154.1 1955.1 1161.9 1955 1172.5 1949.5 1176.9 1939.1 1176.8 1919.6 1176.7 1900 1177.4 1880.5 1177.4 1769.8 1177.7 1659.1 1178 1548.3 1178 1520.4 1178 1519.5 1176.7 1519.2 1149 1518.9 1109.6 1523 1116.8 1551.2 1116.5 1612.9 1115.8 1674.6 1116.3 1736.3 1116.3 1736.4 1116.7 1736.4 1117 1736.4 1117.3Z" fill="#FFFFFF"/><path d="M1747.3 983.5C1688 983.5 1628.8 983.7 1569.5 983.3 1556.2 983.2 1542.9 981.3 1529.7 979.8 1520.5 978.7 1517.2 972.9 1518.1 963.8 1518.9 955.3 1518.9 946.7 1519.4 938.2 1520.1 926.3 1524.2 921.9 1535.8 922 1667.6 922.1 1799.5 922.3 1931.4 922.7 1952.2 922.8 1955.1 926.3 1955.4 947.7 1955.5 953.9 1955.7 960.1 1955.2 966.2 1954.2 978.2 1948 983.6 1936.3 983.6 1873.3 983.6 1810.3 983.6 1747.2 983.6 1747.3 983.6 1747.3 983.6 1747.3 983.5Z" fill="#FFFFFF"/><path d="M1738.6 707.9C1805.4 707.9 1872.2 707.8 1938.9 708 1952.5 708 1955.3 711.5 1955.5 725.5 1955.6 733 1955.6 740.6 1955.5 748.1 1955.3 764.4 1953 767 1936.3 767.3 1910.6 767.8 1884.9 768 1859.2 768 1758.5 767.9 1657.8 767.8 1557.1 767.4 1548.6 767.4 1540 766.4 1531.6 765.1 1520.3 763.3 1517.4 758.7 1518.4 747.3 1519 740.5 1519.2 733.6 1519.3 726.8 1519.7 710.2 1522.8 706.7 1539.1 706.6 1605.5 706.4 1672 706.5 1738.4 706.5 1738.6 707 1738.6 707.5 1738.6 707.9Z" fill="#FFFFFF"/></g><g><path d="M1692 2242.5C1591.6 2242.5 1491.1 2242.5 1390.7 2242.5 1388.1 2237.5 1386.3 2232 1382.9 2227.7 1293.2 2112.6 1203.4 1997.7 1113.6 1882.8 994 1729.4 874.4 1576.1 754.4 1423 745.4 1411.6 741.2 1400.2 741.5 1385.5 742.4 1345.3 741.8 1305.2 741.8 1265 741.8 1242.9 741.8 1242.9 763.2 1242.9 819.2 1242.8 875.3 1243.3 931.3 1242.3 1018.9 1240.7 1104 1226.2 1181.7 1183.2 1278.7 1129.5 1337.6 1049.2 1348.5 936.9 1350.7 914.2 1350.1 914.1 1327.1 914.1 1120.4 914.1 913.7 914.1 707.1 914.1 700.7 914.1 694.3 913.3 685.7 912.7 689.3 906.5 691.2 902.9 693.4 899.4 723 853 753.1 807 781.8 760.2 789.8 747.2 798.9 743.1 813.8 743.1 977.1 743.6 1140.5 743.4 1303.8 743.4 1310.3 743.4 1316.8 742.5 1325.2 741.8 1322.7 735.1 1321.5 730.6 1319.5 726.6 1295.6 678.3 1260.4 640.6 1213.5 614.1 1152.8 579.8 1086.1 565.2 1017.7 562 927.5 557.8 837.1 557.8 746.7 556.1 725.6 555.7 704.5 555.4 683.3 555.1 683.3 554 683.3 553 683.3 551.9 687.3 547.2 692 542.9 695.3 537.8 728.4 486.5 761.3 435.2 794.3 383.8 1167.5 383.8 1540.7 383.8 1913.9 383.8 1912.5 389 1912.3 395 1909.6 399.3 1879.5 447.1 1848.6 494.5 1818.7 542.4 1812.3 552.6 1805.3 556.4 1793.2 556.3 1705.5 555.8 1617.8 556 1530 556.1 1524.7 556.1 1519.4 556.8 1513.9 557.2 1514.5 560.8 1514.3 562 1514.9 562.8 1517.3 566.3 1519.8 569.6 1522.3 573 1555.5 618 1577.8 667.9 1586.5 723 1589.1 739.4 1594.6 743.8 1610.4 743.7 1705.5 743.1 1800.7 743.4 1895.8 743.4 1901.8 743.4 1907.9 743.4 1915.6 743.4 1913.9 748.9 1913.6 751.6 1912.3 753.6 1879.9 804.4 1847.7 855.3 1814.5 905.5 1811.2 910.5 1801.4 913.7 1794.6 913.7 1734.9 914.3 1675.2 914.6 1615.5 913.7 1601 913.5 1595.9 918.8 1594.1 932.1 1588.1 975.8 1574.8 1017.5 1555.8 1057.3 1499.5 1175.2 1406.9 1255.3 1290.4 1309.7 1209.7 1347.4 1124.4 1368.3 1035.6 1375.1 1029.3 1375.6 1023 1377.2 1014.2 1378.6 1019.3 1385.5 1022.2 1389.7 1025.4 1393.8 1229.1 1652.4 1432.8 1910.9 1636.5 2169.5 1655.4 2193.5 1673.6 2218.1 1692 2242.5Z" fill="#FFFFFF"/><path d="M794.4 383.8C761.4 435.2 728.5 486.6 695.4 537.8 692.1 542.9 687.4 547.2 683.4 551.9 683.4 495.9 683.4 439.8 683.4 383.8 720.4 383.8 757.4 383.8 794.4 383.8Z" fill="#FFFFFF"/></g><g><path d="M968.9 843.7C1141 843.7 1313.1 843.7 1485.2 843.8 1491.1 843.8 1497.5 844.4 1502.9 846.6 1510.2 849.6 1513.7 856.2 1513.7 864.3 1513.7 902.6 1513.7 940.9 1513.9 979.2 1513.9 985 1511.6 987.2 1506 987.1 1497.4 986.9 1488.7 986.7 1480.1 987.1 1473 987.4 1470.6 984.6 1470.7 977.6 1471 952.1 1470.9 926.5 1470.9 901 1470.9 887.1 1470.8 887 1457.1 887 1301.9 887 1146.8 887 991.6 887 821.4 887 651.2 887 481.1 887.1 467.2 887.1 467.2 887.1 467.2 901.4 467.2 1046 467.1 1190.7 467.1 1335.3 467.1 1348.8 467.1 1348.8 480.9 1348.8 716.5 1348.8 952.2 1348.8 1187.8 1348.8 1201 1348.8 1201 1348.9 1201 1361.6 1201 1415.9 1200.7 1470.2 1201.3 1524.4 1201.4 1534.5 1198.1 1536.6 1188.8 1536.5 1139 1536.1 1089.2 1536.3 1039.4 1536.3 1026.3 1536.3 1026 1536.6 1026 1549.7 1026 1577.2 1026.3 1604.6 1025.8 1632.1 1025.7 1640.8 1028.5 1643.6 1037.3 1644 1080.6 1646.1 1124 1648.6 1166.2 1660.1 1172.9 1661.9 1179.6 1664.5 1185.5 1668 1195.3 1673.8 1195.6 1682.1 1185.3 1686.6 1172.3 1692.3 1158.5 1697.4 1144.6 1699.7 1051.2 1715.3 957.1 1715.3 862.9 1708.5 829.1 1706.1 795.5 1702.9 763.2 1691.8 755.7 1689.2 746.4 1686.8 746.2 1677.3 746 1668.8 754.6 1665.4 761.7 1663.9 788.4 1658.2 815.2 1652.2 842.2 1648.3 862.7 1645.3 883.5 1645 904.2 1643.9 910 1643.6 912 1641.1 912 1635.6 911.9 1605.3 911.8 1574.9 912 1544.6 912 1536.5 907.2 1536.4 901.3 1536.4 823.1 1536.5 744.8 1536.4 666.6 1536.4 594.1 1536.4 521.6 1536.4 449.2 1536.3 431.9 1536.3 423.7 1527.9 423.7 1510.5 423.7 1297.2 423.7 1083.9 423.6 870.7 423.6 851.8 431.8 843.6 451 843.6 623.5 843.6 796.2 843.6 968.9 843.7 968.9 843.6 968.9 843.7 968.9 843.7Z" fill="#FFFFFF"/><path d="M1678.7 1705.4C1673 1705.4 1669 1705.4 1664.9 1705.4 1547.1 1705.4 1429.3 1705.1 1311.5 1705.7 1277.7 1705.9 1250.6 1686.4 1241.2 1656 1239.3 1649.7 1239 1642.8 1239 1636.2 1238.9 1455.8 1239.2 1275.4 1238.7 1095 1238.6 1057.3 1268.8 1024.9 1309.3 1024.9 1467.3 1025 1625.4 1025 1783.4 1024.9 1827 1024.8 1856.2 1061.1 1854.4 1095.6 1853.4 1115 1854.1 1134.5 1854.5 1154 1854.6 1160.9 1852.5 1163.8 1845.3 1163.6 1814.7 1162.6 1820.7 1167.5 1820.1 1139.3 1819.9 1132.3 1820 1125.2 1820 1118.2 1819.9 1105.2 1819.9 1105.2 1806.4 1105.2 1735.8 1105.2 1665.3 1105.2 1594.7 1105.2 1491.9 1105.2 1389.1 1105.2 1286.3 1105.2 1272.7 1105.2 1272.8 1105.2 1272.8 1119.1 1272.8 1262.8 1272.8 1406.4 1272.8 1550.1 1272.8 1562 1272.9 1562.2 1285.2 1562.2 1407.5 1562.2 1529.8 1562.3 1652 1562.3 1664.8 1562.3 1664.8 1562.3 1664.8 1575.5 1664.8 1600.7 1665.1 1625.9 1664.7 1651.2 1664.4 1668.2 1668 1684.1 1676.5 1698.8 1677.2 1700.1 1677.4 1701.7 1678.7 1705.4ZM1576.6 1624.5C1576.8 1607.7 1563.4 1593.8 1546.8 1593.7 1530.3 1593.6 1516.6 1606.6 1516.2 1622.8 1515.8 1640 1529.5 1654.7 1546.1 1654.9 1562.6 1655.1 1576.4 1641.3 1576.6 1624.5ZM1546.3 1056.3C1532.9 1056.3 1519.5 1056.2 1506.1 1056.3 1497 1056.4 1491 1061.6 1491.1 1068.9 1491.2 1075.8 1496.9 1081.1 1505.5 1081.2 1532.6 1081.4 1559.7 1081.4 1586.8 1081.2 1596.2 1081.1 1601.7 1076.1 1601.6 1068.5 1601.5 1061 1595.9 1056.4 1586.5 1056.3 1573.1 1056.2 1559.7 1056.3 1546.3 1056.3Z" fill="#FFFFFF"/><path d="M1702.7 1452.6C1702.7 1387.5 1703.6 1322.3 1702.3 1257.2 1701.6 1222.6 1727.8 1200.8 1758.6 1201.2 1819.6 1202.1 1880.6 1201.4 1941.5 1201.5 1975.7 1201.5 1997.3 1222.9 1997.4 1256.9 1997.5 1388.4 1997.4 1520 1997.3 1651.5 1997.3 1683.9 1976.4 1705.2 1944.2 1705.3 1881 1705.5 1817.8 1705.5 1754.5 1705.3 1723.4 1705.2 1702.8 1684.7 1702.7 1653.7 1702.5 1586.7 1702.7 1519.6 1702.7 1452.6ZM1727.2 1430.3C1727.2 1482.3 1727.2 1534.4 1727.2 1586.4 1727.2 1599.8 1727.3 1599.9 1740.3 1599.9 1812.7 1599.9 1885.2 1600 1957.7 1600 1972.1 1600 1972.2 1599.9 1972.2 1585.7 1972.2 1481.3 1972.1 1377 1972.3 1272.6 1972.3 1263.6 1969.7 1260.3 1960.3 1260.3 1886.2 1260.6 1812.2 1260.6 1738.1 1260.4 1730 1260.4 1726.9 1262.7 1726.9 1271.3 1727.4 1324.3 1727.2 1377.3 1727.2 1430.3ZM1872.1 1645.6C1872.1 1633.1 1862.4 1622.8 1850.3 1622.5 1837.9 1622.2 1826.9 1632.8 1826.7 1645.2 1826.5 1657.3 1837.5 1668.3 1849.9 1668.4 1862 1668.4 1872.1 1658.1 1872.1 1645.6ZM1850.2 1228.2C1850.2 1228.2 1850.2 1228.2 1850.2 1228.2 1842.2 1228.1 1834.2 1227.4 1826.4 1228.5 1823.1 1228.9 1820.4 1233.2 1817.4 1235.7 1820.3 1238 1823.2 1242.1 1826.2 1242.2 1841.8 1242.9 1857.4 1242.9 1873 1242.2 1876.2 1242 1879.1 1237.5 1882.2 1234.9 1878.9 1232.6 1875.8 1229 1872.2 1228.5 1865 1227.5 1857.6 1228.2 1850.2 1228.2Z" fill="#FFFFFF"/></g><g><path d="M1096.7 2355.8C1079.8 2355.8 1062.8 2355.8 1045.9 2355.8 1040.9 2348.7 1036.1 2341.6 1031 2334.6 1018.8 2318 1006.2 2301.7 1006.7 2279.6 1007.4 2245.7 1007.5 2211.9 1008.6 2178 1013.4 2031.8 1020.5 1885.6 1023 1739.3 1025.6 1586.2 1023.8 1433 1024.3 1279.8 1024.4 1233.5 1025.9 1187.2 1026.1 1140.9 1026.1 1137.3 1021.6 1133.8 1019.2 1130.2 1016.5 1133.1 1011.8 1135.8 1011.6 1138.9 1009.1 1166.2 1006.9 1193.5 1005.5 1220.8 1004.6 1237.6 1002.3 1241.3 985 1241.8 963.2 1242.4 941.5 1242 919.7 1242.1 891.5 1242.2 890.8 1242.2 893.7 1213.9 901.4 1138.6 910 1063.5 917.6 988.2 921.2 952.4 930.6 919.3 950.9 888.8 968 863.1 990.6 844.7 1017 830.5 1049.2 813.1 1085.2 807.3 1120.7 805.3 1177.7 802.2 1235.1 802.2 1292.2 803.5 1331.1 804.4 1368.9 814.3 1403 833.5 1452.1 861.3 1478.8 906.1 1488.6 960 1498.5 1014.2 1505.2 1069 1512 1123.7 1517.5 1167.2 1521.3 1211 1525.5 1254.6 1529.5 1296.3 1532.9 1338.1 1537.2 1379.8 1537.7 1384.3 1536.7 1508.9 1533.8 1512.1 1527.7 1519 1523.1 1527.5 1516.3 1533.4 1503.3 1544.8 1488.3 1550.9 1470.7 1543.2 1447.9 1533.3 1438.3 1513.1 1434.1 1491.3 1428.7 1462.9 1426.6 1433.9 1423.6 1405.1 1416.8 1341 1410.3 1276.9 1403.6 1212.9 1402.9 1206.1 1402.5 1199.1 1400.8 1192.6 1399.7 1188.4 1396.3 1184.9 1394 1181.1 1391.6 1185.3 1387.8 1189.3 1387.2 1193.7 1386.1 1202 1386.7 1210.6 1386.8 1219 1392.6 1491 1398.5 1763.1 1404.5 2035.1 1406.1 2108.9 1406.9 2182.7 1410.7 2256.3 1412.6 2292.1 1403.2 2321 1377.3 2345.2 1374.7 2347.6 1374.3 2352.2 1372.8 2355.7 1355.9 2355.7 1338.9 2355.7 1322 2355.7 1318.4 2351.9 1315.1 2347.7 1311.2 2344.3 1305.8 2339.7 1297.2 2337 1294.6 2331.3 1288 2317.2 1281.7 2302.3 1279.4 2287 1274.4 2253.6 1271.9 2219.9 1268.4 2186.3 1260.5 2110.2 1252.7 2034.1 1244.6 1958 1239.7 1911.5 1234.2 1865.1 1229.3 1818.7 1226 1787.9 1223.2 1757.1 1220.1 1726.4 1219.4 1719.2 1218.8 1711.9 1217.2 1704.9 1216.5 1701.9 1213.4 1699.4 1211.4 1696.6 1208.9 1699.3 1205 1701.6 1204.2 1704.7 1200.9 1718.4 1197.7 1732.2 1196.1 1746.2 1191.2 1788.5 1187 1831 1182.5 1873.4 1175.2 1942.7 1168.2 2012 1160.7 2081.3 1152.9 2152.5 1144.1 2223.7 1136.7 2294.9 1134.3 2317.9 1126.6 2335.7 1104.4 2345.6 1100.8 2347.2 1099.1 2352.4 1096.7 2355.8Z" fill="#FFFFFF"/><path d="M1263.3 418.3C1297.6 429.8 1324.3 451.8 1344 480.8 1368.4 516.7 1380 557.5 1371.3 601 1367.7 618.7 1358.4 635.2 1351.3 652.1 1340.4 678 1320 695.7 1297.1 710.2 1284 718.5 1269.4 725.4 1254.5 729.6 1221.7 738.9 1187.9 739.3 1155.4 728.9 1115.8 716.2 1084.2 693.1 1061.3 656.5 1040.7 623.6 1033.1 589.1 1038.4 551.9 1040.8 534.8 1046.9 517.5 1054.6 501.9 1067.1 476.9 1084.7 455 1108.9 440.2 1124.6 430.7 1141.1 422.1 1158.3 415.5 1165.6 412.6 1256.3 415.9 1263.3 418.3Z" fill="#FFFFFF"/></g><g><path d="M1198.4 2274.6C1190 2272.9 1181.3 2272.1 1172.8 2271.7 1131.9 2269.9 1090.7 2270.6 1050.2 2265.8 1022.7 2262.5 996 2251.9 969.2 2243.8 949.9 2237.9 934.1 2226.2 919.2 2212.7 896.5 2192.3 884.4 2166.6 883.4 2137 882.2 2103.5 883.8 2069.9 885.3 2036.4 887 1999.7 889.4 1963 892.5 1926.3 894.9 1897 898.5 1867.8 901.9 1838.6 902.9 1829.7 908.5 1825.5 917.2 1826.8 927.3 1828.3 937.4 1830.3 947.3 1832.6 956.1 1834.7 961 1841.8 959.1 1850.7 947.9 1901.5 947.3 1953.4 943.4 2005 940.4 2044.8 936.6 2084.7 935.1 2124.6 934.1 2152.1 948.3 2171.6 972.4 2185.6 1008.8 2206.7 1048.6 2212.8 1089.3 2214.5 1144.3 2216.7 1199.3 2217.4 1254.3 2218.1 1288.5 2218.6 1322.8 2219.1 1357 2217.6 1394.7 2215.9 1432.5 2213.7 1469.8 2208.4 1494.9 2204.9 1519.5 2196.3 1540.6 2181.3 1550.9 2174 1558.9 2164.5 1563.2 2151.4 1570.3 2129.7 1569.4 2107.8 1568.3 2085.8 1566.4 2046.2 1563.8 2006.6 1560.9 1967 1560.5 1961.2 1557.1 1955.7 1555.4 1949.9 1553.2 1942.4 1549.6 1934.7 1549.5 1927.1 1548.7 1866.3 1544 1805.7 1537.4 1745.3 1533.1 1705.6 1531 1665.6 1527.7 1625.7 1524.4 1586.2 1521 1546.7 1517.6 1507.2 1517.2 1502.4 1516.2 1497.7 1515.7 1492.9 1514.6 1481.8 1521.9 1472.6 1532.8 1471.3 1540.7 1470.4 1548.7 1469.3 1556.6 1469.2 1569.5 1469 1573.4 1472.8 1574 1485.5 1575.4 1512 1576.1 1538.6 1577.8 1565 1579.2 1587.3 1581.7 1609.6 1583.8 1631.9 1587.4 1670.1 1591.5 1708.3 1594.5 1746.5 1598.4 1795.9 1601.6 1845.4 1605 1894.8 1605.2 1897.8 1605.3 1900.9 1605.2 1903.9 1604.7 1924.9 1606.2 1928.2 1626.4 1928.7 1649 1929.3 1671.7 1927.8 1694.4 1926.5 1703.7 1926 1707.8 1919.8 1707.8 1908.8 1707.7 1874.9 1707.2 1841 1707.3 1807.1 1707.5 1731.9 1709 1656.7 1708 1581.5 1707 1509.2 1704.2 1436.9 1700.7 1364.7 1699.3 1337 1694.4 1309.4 1689.9 1282 1685.1 1253 1681.1 1223.6 1672.7 1195.6 1663.9 1166.3 1649.7 1139 1623.6 1119.9 1607.4 1108.1 1590.2 1099.1 1571.2 1092.7 1553.1 1086.6 1536.2 1076.7 1517.9 1071.8 1485.2 1063.1 1451.9 1056.8 1418.7 1049.8 1408.6 1047.7 1398.3 1042.6 1387.8 1048 1382.2 1050.9 1375.9 1053.5 1371.7 1057.9 1348.7 1082.3 1326.3 1107.3 1303.6 1132.1 1282.9 1154.7 1262.4 1177.6 1241.1 1199.7 1224.7 1216.7 1200.3 1216.7 1184 1199.5 1157.4 1171.4 1131.8 1142.4 1105.9 1113.7 1090.5 1096.6 1074.8 1079.7 1059.9 1062.2 1050.3 1050.9 1038.2 1047.5 1024.6 1049.5 988.5 1054.8 953.2 1063.2 918.6 1075.3 893 1084.2 868.9 1095.6 846.6 1110.5 828.9 1122.4 813.4 1136.9 801.9 1155.7 785.8 1181.9 778.6 1210.7 773.5 1240.3 767.7 1273.7 760.4 1307 757.3 1340.6 752.6 1392.5 751 1444.6 748.2 1496.7 747.9 1501.4 749.1 1506.2 749.5 1511 750.3 1520.6 743.8 1528.3 734.5 1528.3 724.3 1528.3 714 1527.9 703.8 1527.3 694.1 1526.7 689.1 1521.2 689.5 1511.8 691.1 1473.8 691.8 1435.7 694.6 1397.8 697.5 1358 700.8 1318 707 1278.6 711.8 1247.8 722.8 1218 728.2 1187.2 731.7 1167.1 739.7 1148.9 749.2 1132.3 760 1113.5 775.7 1097 791.5 1082 818.2 1056.7 850.6 1039.4 884.6 1026.4 915.2 1014.7 947.2 1006.2 979.1 998.3 996.6 994 1015.2 992.8 1033.3 991.9 1069.4 990.1 1094.3 1010 1116.3 1035.9 1137.6 1061 1160.1 1085 1182.1 1109.5 1189.1 1117.3 1196.6 1124.8 1203.1 1133.1 1210.3 1142.1 1221.4 1142.5 1229 1133.7 1257.4 1100.8 1285.7 1067.9 1314.4 1035.3 1324.1 1024.3 1334.1 1013.4 1345.3 1004.1 1365.1 987.4 1388.4 980.5 1414.1 986.3 1450.3 994.3 1486.5 1002.3 1522.2 1011.9 1540 1016.6 1557 1024.3 1574 1031.3 1588.8 1037.4 1603.2 1044.2 1617.6 1051.1 1647.3 1065.2 1672.4 1085 1690.6 1112.7 1698.9 1125.4 1706.3 1138.8 1714 1151.9 1715 1153.5 1715.9 1155.3 1716.4 1157.1 1722.1 1180 1727.9 1202.9 1733.2 1225.9 1737.5 1244.9 1742.2 1263.9 1744.8 1283.2 1758.1 1381 1761.3 1479.4 1760.8 1578.1 1760.4 1648.2 1762.3 1718.2 1763 1788.3 1763.5 1835.3 1763.9 1882.3 1763.6 1929.4 1763.5 1946.6 1761 1963.7 1743.7 1973.3 1738 1976.4 1731.8 1980 1725.6 1980.6 1696.6 1983 1667.5 1984.7 1638.4 1986 1622.3 1986.7 1616.9 1992.7 1618.6 2008.9 1623.4 2053.1 1626.9 2097.4 1623.9 2141.9 1621.5 2177.7 1603.9 2205 1576.6 2227 1542.1 2254.8 1501.3 2265.5 1458.3 2268.4 1404.7 2271.9 1351 2273.8 1297.4 2276.9 1293.6 2277.1 1287.3 2277 1275.7 2277.6 1273.9 2277.7 1272.1 2277.6 1270.3 2277.5 1266.3 2277.1 1263 2277.3 1260.8 2277.1 1250.7 2276.1 1240.6 2275.5 1230.5 2276 1228.3 2275.5 1201.2 2275.2 1198.4 2274.6Z" fill="#FFFFFF"/><path d="M1266.2 373C1271.8 375.2 1278 376 1283.9 377 1313 382.2 1340 393.2 1364 409.7 1386.6 425.2 1405.6 444.6 1419.8 469 1449.1 519.2 1449.2 572.8 1441.7 627.7 1439 647 1435.7 666.3 1431.3 685.2 1427 703.8 1420.9 722 1415.3 740.3 1414.5 742.9 1412 745 1410.5 747.3 1408.6 750.2 1405.2 753.2 1405.2 756.2 1405.3 772.8 1394.9 785.4 1389.3 799.7 1381.6 819.4 1369.1 836.7 1354.9 852 1338.6 869.5 1322.4 887.9 1303.2 901.6 1257.2 934.4 1206.8 944.8 1151 926.9 1102.6 911.4 1071.4 877 1043.5 837.9 1035.8 827.1 1028.4 815.9 1022 804.2 1018.4 797.7 1017.5 789.7 1014.9 782.5 1009.5 767.6 1002.7 753 998.6 737.8 992.3 714.1 987.6 690 982.4 665.9 974.1 627.4 973.6 588.1 976.4 549.3 978.8 515.3 992.2 484.1 1013.8 456.8 1031.4 434.6 1052.7 417.8 1077.6 404.4 1103.8 390.3 1131 380.4 1160.5 376.5 1165.9 375.8 1171.4 375 1176.3 373 1178.9 372 1263.4 371.9 1266.2 373ZM1032.4 583.7C1031.9 635.9 1040.1 686.7 1057.3 736.1 1058.7 740 1059 744.3 1060.5 748.1 1066.7 764.1 1071.8 780.7 1079.9 795.7 1090.6 815.4 1105.9 831.8 1122.8 846.7 1138.2 860.2 1155.2 871.5 1174.8 876 1216.7 885.6 1254.2 873.7 1285.3 845 1301.1 830.4 1314.4 813 1328.1 796.2 1334.9 787.9 1341.2 778.7 1345.5 768.9 1352.8 752.4 1359 735.3 1364.6 718.1 1372.8 693 1382.6 668 1386.9 642.1 1391.8 612.6 1393 582.3 1393 552.3 1393 509.4 1372.4 476.2 1336.8 453.6 1313.3 438.7 1286.4 429.4 1259 424.8 1219 418.1 1179.1 418.7 1139.8 433.3 1113.2 443.2 1089 455.6 1069.5 476.1 1058.5 487.6 1050.6 501 1043.3 515.5 1033.7 534.6 1032.7 554 1032.3 574.1 1032.3 577.3 1032.4 580.5 1032.4 583.7Z" fill="#FFFFFF"/><path d="M1231.2 2275.4C1241.3 2274.9 1251.5 2275.5 1261.5 2276.5 1264.1 2276.7 1228.3 2275.5 1231.2 2275.4Z" fill="#FFFFFF"/><path d="M966.1 1800.2C898 1798.7 829.9 1798 761.9 1795.4 734.5 1794.4 716.1 1776.9 700.3 1755.2 687.6 1737.7 686.8 1718.6 686.6 1698.8 686.3 1661.1 685.8 1623.3 685.5 1585.6 685.5 1581.2 686.2 1576.6 687.4 1572.4 690.9 1559.9 694.7 1557.1 707.8 1556.8 778.5 1554.7 849.1 1553.2 919.8 1550.3 956.8 1548.8 993.7 1544.7 1030.6 1542 1053.3 1540.3 1075.9 1537.6 1098.6 1537.9 1119.6 1538.2 1132.3 1527.3 1143.6 1512.2 1155.7 1496.1 1168.3 1480.4 1180.6 1464.5 1193.3 1448.1 1205.9 1431.7 1218.6 1415.3 1236.2 1392.6 1253.9 1370.1 1271.4 1347.3 1282.3 1333.1 1292.7 1318.6 1303.3 1304.3 1321 1280.5 1338.8 1256.8 1356.3 1232.9 1367.4 1217.8 1378.1 1202.3 1389.2 1187.1 1402.4 1169.1 1415.9 1151.4 1429 1133.3 1435 1125.1 1440.1 1116.2 1446 1107.9 1451 1101 1456 1093.8 1462.4 1088.2 1465.5 1085.5 1472 1084.5 1476.3 1085.5 1490.2 1088.7 1503.9 1092.8 1517.4 1097.3 1522.5 1099.1 1528.5 1102.1 1531.1 1106.4 1533.3 1110 1533.3 1117.4 1530.9 1121.1 1524.8 1130.6 1516.5 1138.8 1509.7 1147.9 1493 1170.1 1476.9 1192.7 1460.1 1214.7 1449.5 1228.6 1437.8 1241.8 1426.8 1255.5 1414.1 1271.5 1401.8 1287.8 1389.2 1303.8 1371.6 1326.1 1353.8 1348.2 1336.3 1370.6 1325.3 1384.7 1315.2 1399.4 1304.1 1413.4 1282.4 1441 1260.4 1468.3 1238.3 1495.5 1228.9 1507.1 1218.6 1518.2 1209 1529.7 1202.3 1537.7 1203.7 1548 1212.5 1551.5 1232.4 1559.3 1246.1 1574.8 1258.9 1590.3 1277.9 1613.4 1294.8 1638.1 1306.9 1665.8 1317.7 1690.5 1329.7 1714.7 1339.9 1739.6 1342.2 1745.2 1341.5 1754.1 1338.5 1759.5 1331.4 1772.6 1320.5 1780.8 1304.1 1781.6 1214 1786.1 1124 1791.5 1033.9 1796 1011.3 1797.1 988.5 1796.2 965.8 1796.2 966.1 1797.6 966.1 1798.9 966.1 1800.2Z" fill="#FFFFFF"/><path d="M1299.3 1538C1326.4 1534.7 1351.9 1540.8 1375 1554.3 1386.2 1560.8 1396.2 1570.7 1404 1581.1 1412.7 1592.6 1419.3 1606 1424.8 1619.4 1435 1644.5 1436 1669.6 1423.7 1695.3 1414.7 1714.1 1404.2 1731 1388.2 1744.3 1382.7 1748.8 1376.6 1753.7 1370.4 1749.7 1366.4 1747.1 1364.8 1740.1 1363.1 1734.7 1360.1 1725.4 1357.6 1716 1355.5 1706.5 1354.7 1702.7 1354.3 1698.2 1355.7 1694.8 1357.8 1689.5 1361 1684.4 1364.8 1680.2 1376.1 1667.9 1377.7 1653.2 1375.6 1638 1374.7 1631.8 1370.8 1625.5 1366.8 1620.5 1353.5 1603.8 1337.6 1591.9 1314.4 1594.5 1302.5 1595.9 1294.4 1591.2 1287.4 1580.6 1280.8 1570.7 1270.3 1563.5 1262 1554.7 1259 1551.5 1257.4 1547.1 1255.1 1543.2 1259.3 1541.4 1263.4 1538.4 1267.7 1538.1 1278.1 1537.5 1288.7 1538 1299.3 1538Z" fill="#FFFFFF"/></g></g><g><path d="M1387 2186.4C1383.5 2185.3 1380 2183.4 1376.4 2183.1 1258.8 2173.8 1151.5 2133.9 1050.8 2074.1 972.2 2027.4 901.5 1970.5 837.4 1905.8 729.5 1796.7 622.9 1686.2 515.9 1576.3 484.9 1544.5 454.9 1511.8 423.2 1480.7 389.9 1448 389.3 1406.2 413 1368.9 431.5 1339.8 459.6 1321.3 488.8 1305.1 576.7 1256.3 662.1 1267.8 744.9 1318.5 803.8 1354.5 850.9 1403.5 893.5 1457.2 895.2 1459.4 896.9 1461.6 898.6 1463.6 899 1464 899.8 1464.1 902.1 1464.9 902.4 1461.1 903 1457.7 903 1454.3 903 1185.5 903.1 916.8 902.9 648 902.9 600.6 917.4 559.3 952.2 526.5 1005 476.6 1085.6 469.7 1146.8 509.2 1149.8 511.2 1153 513 1157.9 515.9 1158.4 509.9 1158.9 505.9 1158.9 502 1159.3 471.4 1158 440.7 1160.2 410.2 1165.1 340.4 1218 282.9 1286.9 269.9 1290.1 269.3 1293.1 267.3 1296.1 266 1309.9 266 1323.6 266 1337.4 266 1340.7 267.4 1344 269.4 1347.5 270.2 1409.1 284.6 1450.8 321.7 1467.1 382.7 1473.8 407.7 1471.8 435.1 1473.7 461.4 1474 465.7 1474.2 469.9 1474.6 476.2 1533.8 437.7 1593.8 431.4 1653.8 467.1 1714.2 503.1 1733.8 560.8 1729.3 631.1 1735 627.4 1737.7 625.6 1740.4 623.9 1783.8 596.7 1830.4 589.7 1878.7 606.5 1946.4 630 1985.3 687.1 1985.3 759.8 1985.3 1068.4 1985.3 1377.1 1985.3 1685.7 1985.3 1736.6 1978.5 1786.5 1963.5 1835.2 1932.2 1936.5 1874.3 2019 1788.3 2081.1 1701.4 2143.9 1602.6 2173.5 1496.9 2182.6 1489.8 2183.2 1482.9 2185.2 1475.9 2186.5 1446.2 2186.4 1416.6 2186.4 1387 2186.4ZM1926 1235.4C1926 1075.4 1926 915.3 1926 755.3 1926 713.7 1901.6 678.3 1863.2 663.2 1800.1 638.4 1730.3 685 1729.8 753 1729.2 837.3 1729.7 921.6 1729.7 1005.9 1729.7 1060.3 1729.8 1114.7 1729.7 1169 1729.7 1188 1719.5 1199 1702.3 1199.8 1682.9 1200.7 1670.8 1189.6 1670.7 1170.2 1670.5 1100 1670.6 1029.8 1670.6 959.6 1670.6 840.2 1671 720.8 1670.4 601.3 1670.2 559 1648.7 528.4 1610.6 511.3 1575.2 495.4 1541.2 501 1510.9 525.2 1486 545.1 1473.9 571.4 1473.9 603.4 1474 748.3 1473.9 893.2 1473.9 1038.1 1473.9 1073.9 1473.9 1109.7 1473.9 1145.5 1473.9 1157.7 1470.5 1167.9 1458.6 1173.5 1436.3 1183.9 1415.1 1170.1 1415.1 1144.7 1414.9 1054.5 1415 964.4 1415 874.2 1415 724.5 1415 574.8 1415 425.1 1415 381.3 1384.7 340.7 1344.5 329.8 1279.5 312.2 1218.2 358.8 1218.1 426.3 1217.9 540.6 1218.1 654.8 1218.1 769.1 1218.1 908.8 1218.1 1048.5 1218 1188.3 1218 1195 1217.5 1202.3 1214.9 1208.4 1209.9 1220.7 1195.6 1227.3 1183.4 1224.5 1167.6 1221 1159.2 1209.6 1159.2 1190.9 1159.1 1044 1159.2 897 1159.1 750.1 1159.1 709.2 1160 668.1 1157.6 627.3 1155.5 591.1 1124.3 556.7 1089.5 546.9 1023.8 528.4 962.4 575.5 962.4 644.4 962.4 936.6 962.4 1228.8 962.4 1520.9 962.4 1535.4 962.4 1535.1 976.6 1534.9 1051.5 1534.2 1124.8 1543.9 1195.1 1571.1 1370.1 1639 1450.1 1795.2 1443.5 1964.1 1441.5 2014.2 1435.1 2064.2 1430 2114.1 1428.9 2124.4 1432.2 2126.2 1441.5 2126.1 1501.7 2124.9 1560.8 2117.4 1618.5 2099.9 1701.1 2074.8 1772.6 2032.1 1828.4 1965.6 1894.4 1887.1 1925.6 1795.5 1926.1 1693.6 1926.5 1541 1926 1388.2 1926 1235.4Z" fill="#FFFFFF" display="none"/></g><g display="none"><path d="M528.1 1914.1C515.1 1910.9 501.1 1910.3 488.9 1905.2 464.7 1895.1 442.2 1881.8 429.7 1857 418.7 1835.1 405.2 1813.9 397.6 1790.9 389.3 1765.6 385.3 1738.7 381.4 1712.2 378.1 1689.4 377.6 1666.2 376 1643.1 375.7 1638.5 376.7 1633.7 375.7 1629.3 374.9 1625.9 375.4 1457 375.6 1454.7 377.7 1433.8 379.3 1412.9 381.1 1391.9 382.8 1372.2 384.6 1352.6 386.4 1332.9 386.5 1331.7 387.1 1330.5 387.4 1329.3 390.5 1316.8 393.9 1304.3 396.6 1291.7 399 1280.5 400 1269 402.8 1258 407.1 1240.7 412.3 1223.6 417.4 1206.5 421.9 1191.4 426.4 1176.2 431.5 1161.3 436.7 1146.3 442.5 1131.5 448.2 1116.7 457.6 1092.4 465.3 1067.2 477.3 1044.3 498.7 1003.2 522.2 963.1 546 923.4 557.1 904.8 569.6 886.5 584.2 870.7 612.6 839.9 643.3 811.7 679.7 789.6 714.9 768.2 751.4 752.2 792 745.5 795.2 745 919.1 744.8 923.1 745.5 935.6 747.9 948.7 747.9 960.7 751.6 985.6 759.3 1011 766.7 1034.4 778.1 1067.3 794 1099.1 812.4 1130.3 831.5 1155.7 847.1 1181.7 858.9 1211.9 859 1232.5 859.1 1253.1 859.8 1273.6 858.8 1299.2 857.6 1325.4 864 1350.4 853.8 1365.5 847.6 1381 842.1 1395.3 834.3 1412.5 824.8 1428 812.1 1445.3 802.9 1464.9 792.6 1485.7 784.7 1506 775.6 1539.3 760.6 1573.2 747.5 1610.3 745.4 1612.9 745.3 1732.9 745.3 1735 745.2 1755 745.1 1772.1 754.8 1790.4 760.5 1828.4 772.3 1861.6 793.1 1891.6 817.8 1915.1 837.3 1935.2 861.3 1954.7 885.1 1973.7 908.2 1991.9 932.4 2006.8 958.2 2025.2 990 2040.6 1023.7 2056 1057.1 2069.2 1086 2081.1 1115.5 2092.4 1145.2 2100 1165.2 2106.1 1185.9 2112.1 1206.5 2116.4 1221.3 2119.2 1236.6 2123 1251.5 2127.8 1270.3 2133.8 1288.9 2137.9 1307.9 2142.3 1328.1 2145.8 1348.6 2148.2 1369.2 2150.9 1392.5 2151.9 1416.1 2153.6 1439.5 2153.9 1444.5 2153.1 1449.7 2154 1454.6 2154.4 1457 2154.2 1626.7 2153.9 1630.4 2151.7 1657.2 2150.3 1684 2148.5 1710.8 2148.4 1712.4 2148 1714.1 2147.6 1715.7 2144.4 1730.3 2141.1 1744.9 2138.1 1759.6 2135.8 1770.8 2135.3 1782.5 2131.6 1793.2 2126.2 1808.6 2119 1823.4 2111.8 1838.1 2098.5 1865.1 2079.6 1886.4 2052 1900.1 2034.6 1908.7 2017.4 1915.2 1997.7 1914.1 1994.7 1913.9 1962.3 1914.8 1958.9 1914 1951 1912 1942.2 1912.5 1935.1 1909.2 1919.2 1901.7 1903.1 1893.8 1888.8 1883.6 1859.3 1862.6 1829.6 1841.5 1802.6 1817.5 1770.1 1788.5 1740.4 1756.3 1709.4 1725.5 1698.1 1714.2 1686 1703.6 1675.7 1691.5 1655.2 1667.4 1637.7 1641 1611.3 1622.1 1591.1 1607.6 1569 1599.8 1544.7 1599.7 1359 1599.4 1173.3 1599.7 987.6 1599.3 967.8 1599.3 950.3 1606 933.2 1613.5 915.2 1621.4 900.2 1633.3 888.6 1651 876 1670.2 859 1686.9 842.4 1703.1 791.3 1753.1 739.5 1802.5 688 1852.1 686.5 1853.5 685 1855 683.3 1856.2 667.4 1867.2 652.2 1879.3 635.4 1888.6 615.5 1899.6 597.1 1915 572.1 1914.1 568.5 1914.1 532.7 1915.2 528.1 1914.1ZM809.2 1259.3C809.2 1262.7 809.2 1266.8 809.2 1270.9 809.2 1302.8 809.1 1334.7 809.3 1366.7 809.3 1370.6 810 1377 812.2 1377.9 827.7 1384.2 843.2 1391.2 859.5 1394.4 879.3 1398.3 897.4 1390.2 915.1 1381.2 922.6 1377.4 924.2 1373.4 924.2 1366 923.9 1333.7 924.5 1301.3 923.8 1269 923.6 1258.1 927.4 1255.4 937.5 1255.6 966.5 1256.1 995.5 1255.7 1024.4 1255.9 1028.1 1255.9 1032 1258 1035.4 1257.2 1041.4 1255.9 1049.5 1254.8 1052.5 1250.6 1057.8 1243.2 1060.6 1233.7 1063.2 1224.8 1065.8 1216.3 1069.1 1207 1068.1 1198.6 1066.6 1185.9 1061.8 1173.5 1058 1161.1 1054.8 1150.6 1041.7 1141.5 1030.7 1141.5 1000.9 1141.5 971.1 1141.2 941.2 1141.7 931.9 1141.8 928.8 1138.9 929 1129.5 929.5 1098 929 1066.5 929.3 1035 929.4 1026.3 926.5 1020.2 918 1018 909.3 1015.8 899.6 1016 891.8 1012.2 870.1 1001.4 849.4 1010.3 828.7 1013.8 819.4 1015.4 813.3 1021.4 813.8 1034.1 815.2 1064.3 814.3 1094.6 814.3 1124.8 814.3 1141.6 814.3 1141.6 796.9 1141.6 765.4 1141.6 733.9 1141.3 702.4 1141.9 697.2 1142 689.6 1144.4 687.5 1148.2 682 1158.1 675.8 1169.2 675.5 1180 674.9 1198.8 677.1 1218 680.8 1236.4 684.3 1253.7 696.4 1261.1 714.3 1261.1 737.4 1261.1 760.5 1261.2 783.6 1261 791.7 1260.7 799.9 1259.9 809.2 1259.3ZM1608.3 1208.3C1563.7 1199.2 1519.6 1258.4 1516.9 1290.3 1512.2 1346 1565.8 1388.6 1603.8 1390.6 1665.9 1393.8 1705.7 1341.4 1704.5 1296.7 1703.4 1255.5 1666 1203.4 1608.3 1208.3ZM1942.6 1175.3C1951.6 1132.3 1893.9 1083.3 1856.4 1083.9 1822.9 1084.4 1799 1098 1777.5 1121.6 1762.6 1138 1756.4 1159.5 1757.1 1178 1758 1201.4 1767.3 1225.7 1786.9 1243.1 1805.3 1259.5 1827.2 1272.2 1851.1 1270.3 1895.6 1266.7 1943.8 1238.6 1942.6 1175.3ZM1608 1126.8C1663.3 1128.3 1703.7 1082.8 1704.1 1040.3 1704.6 978.8 1658.1 942.4 1610.8 941.5 1568.8 940.8 1513.9 981.2 1517.4 1037.8 1520.3 1083.1 1555.9 1126 1608 1126.8Z" fill="#FFFFFF"/></g><g><path d="M813 1858.2C813 1787.6 813 1719.3 813 1651 813 1557 813 1463 813 1368.9 813 1338.5 813.5 1338 844.7 1338 1115.1 1338 1385.5 1338 1655.9 1338 1685.4 1338 1686.4 1339 1686.4 1367.7 1686.4 1523.1 1686.4 1678.5 1686.4 1833.9 1686.4 1841.5 1686.4 1849.1 1686.4 1858.2 1394.7 1858.2 1105.4 1858.2 813 1858.2ZM1184.8 1622.5C1184.9 1653.9 1203.6 1679.7 1233.3 1689.1 1261.5 1698.1 1294.5 1686.4 1311.1 1661.4 1327.5 1636.8 1326.9 1602.7 1308.5 1581 1304.2 1576 1296.2 1573.5 1289.4 1571.8 1287.5 1571.3 1281 1578.6 1281.7 1581 1283.7 1588.2 1288 1594.8 1291.6 1601.5 1305.8 1627.5 1291.2 1659.6 1262.8 1664.9 1238.8 1669.3 1216.5 1655.4 1211.1 1632.7 1205.5 1609.1 1220.4 1587.5 1245 1579.7 1252.7 1577.3 1258.7 1569.2 1265.4 1563.7 1256.3 1560.9 1246.5 1554.2 1238.2 1555.8 1205.6 1562.2 1184.7 1589.7 1184.8 1622.5Z" fill="#FFFFFF"/><path d="M1452.2 776.1C1449.7 853 1431 920 1382.7 975.9 1313.6 1055.8 1195.5 1054.4 1125.1 973.7 1094.1 938.2 1076.7 896 1069.8 849.9 1062.5 801.2 1099 756.9 1149.4 750.3 1192.9 744.5 1234.2 755.5 1275.4 767 1288.8 770.8 1302.1 775.2 1315.4 779.6 1359.9 794.4 1404.3 801.3 1452.2 776.1Z" fill="#FFFFFF"/><path d="M1813.8 781.3C1734 701.2 1657.6 624.6 1581.4 548.1 1626.2 504.7 1672.8 459.5 1720.3 413.5 1731.1 426 1745.5 442.6 1758.6 457.7 1755.8 466.7 1751.7 479.4 1747.7 492.1 1760.2 488.5 1772.6 484.8 1786.8 480.7 1796.4 490.3 1809.7 503.6 1820.1 513.9 1816.2 527.2 1812.4 539.8 1808.7 552.3 1821.3 548.5 1833.9 544.6 1850 539.7 1858.5 548.9 1871 562.4 1881 573.2 1877.1 587 1873.3 600.2 1869.6 613.4 1882.2 609.1 1894.8 604.8 1910.8 599.3 1907.5 597.5 1909.1 598 1910.2 599 1953.5 638.3 1953.4 638.2 1912.9 679.4 1879.2 713.7 1846 748.2 1813.8 781.3Z" fill="#FFFFFF"/><path d="M1296.4 593.2C1296.5 596.3 1296.7 597.7 1296.7 599.2 1296.5 606.7 1296.2 614.2 1296 621.6 1303.7 618.9 1313.4 618.1 1318.9 613 1343.7 589.8 1371.3 577.9 1405.7 585.6 1454.3 596.4 1486 640.4 1479.3 688.5 1472.6 737.2 1430.3 773 1380.3 765.6 1337 759.1 1295.1 743.3 1252 734.5 1221.1 728.2 1189.2 723.2 1157.8 723.9 1109.3 724.9 1072.8 749.3 1049.9 798.9 1030.5 740.1 1046.2 693.6 1080.4 652.8 1138.2 583.8 1214.7 578.6 1296.4 593.2ZM1450.9 675.1C1450.4 642.2 1419 610.9 1391.4 612.3 1386 612.6 1380.9 618.9 1375.6 622.4 1379.9 627.6 1383.6 636.4 1388.7 637.4 1409.6 641.3 1421.5 651.7 1425 673.3 1425.9 678.8 1434.4 683.1 1439.5 687.9 1444.2 682.8 1448.8 677.6 1450.9 675.1Z" fill="#FFFFFF"/><path d="M793.4 1886.4C1100.5 1886.4 1405.3 1886.4 1710.1 1886.4 1706.4 1919 1681.6 1937.9 1642.7 1937.9 1558 1937.9 1473.4 1937.8 1388.7 1937.8 1214.7 1937.8 1040.8 1937.8 866.8 1937.8 825.6 1937.8 805.6 1924.4 793.4 1886.4Z" fill="#FFFFFF"/><path d="M1992 1238.3C1983.9 1233.2 1975.9 1229.9 1970.2 1224.3 1918.3 1173 1866.9 1121.4 1815.3 1069.8 1800.3 1054.8 1801.2 1039.7 1815.6 1025.1 1836.8 1003.5 1858 981.9 1879.8 960.9 1896.5 944.8 1908.7 944.9 1925.9 961.8 1977.2 1012.5 2028.3 1063.4 2079 1114.7 2095.8 1131.7 2095.6 1143.3 2078.8 1160.7 2057.8 1182.4 2036.3 1203.8 2014.4 1224.6 2008.6 1230.1 2000.5 1233.2 1992 1238.3ZM1921.1 1038.4C1921.1 1022.9 1922.4 1007.3 1920.5 992.1 1919.7 985.7 1912 980.1 1907.4 974.2 1903.3 979.8 1895.9 985.4 1895.6 991.2 1894.4 1022.8 1894.4 1054.6 1895.6 1086.2 1895.8 1091.9 1903.4 1097.4 1907.6 1103 1912.1 1097 1919.6 1091.3 1920.4 1084.8 1922.3 1069.4 1921 1053.8 1921.1 1038.4ZM1947.1 1111.4C1947.1 1125.3 1945.7 1139.4 1947.8 1153.1 1948.6 1158.7 1956.7 1163.2 1961.5 1168.3 1965.4 1163.3 1972.5 1158.4 1972.7 1153.2 1973.8 1124.6 1973.9 1096 1972.8 1067.4 1972.6 1062.4 1965.5 1057.7 1961.6 1052.8 1956.8 1057.6 1948.6 1062 1947.8 1067.4 1945.8 1081.8 1947.1 1096.7 1947.1 1111.4Z" fill="#FFFFFF"/><path d="M1176.2 1044.5C1226.8 1062.8 1272.6 1065.1 1320.5 1050.7 1320.5 1079.5 1322.8 1106.6 1319.9 1133.2 1316.2 1167.6 1285.2 1190.6 1246.9 1191.9 1218.7 1192.8 1186.3 1169.1 1181.5 1138.8 1177 1109.2 1177.9 1078.7 1176.2 1044.5Z" fill="#FFFFFF"/><path d="M465.8 1215.4C458.9 1202.3 453.3 1191.6 446.8 1179 466.8 1168.6 485.7 1160 503.2 1149.1 510.4 1144.6 514.4 1135.1 519.8 1127.9 511.8 1124.7 503.9 1121.6 494.5 1117.9 495.5 1067.4 543.8 1041.5 594.8 1070.7 584.4 1076.5 574.4 1080.5 566.4 1087 559.6 1092.5 549 1103.2 550.7 1107.5 556.4 1122.1 568 1114.7 577.7 1109.6 607.1 1094.2 636.6 1078.7 668 1062.2 674.3 1074.3 680.3 1085.7 687.2 1098.9 613.6 1137.6 541.2 1175.7 465.8 1215.4Z" fill="#FFFFFF"/><path d="M689.9 1048C704.3 1043.7 716.9 1037 729 1037.7 734.2 1038 744.6 1057.1 742 1061.8 736.1 1072.4 723.6 1079.3 711.6 1089.6 703.8 1074.4 697.9 1063.2 689.9 1048Z" fill="#FFFFFF"/><g><path d="M1502.1 1132.2 1502.5 1132.4C1507.4 1134.3 1512.2 1136.3 1516.8 1138.6 1517 1138.7 1517.1 1138.8 1517.3 1138.9L1567.1 1160.8C1571 1161.6 1575.2 1164.2 1579.3 1166.1L1579.3 1166.1 1579.3 1166.1C1581.3 1167.1 1583.3 1167.9 1585.3 1168.3 1586.7 1168.6 1588.2 1168 1591.5 1167.6 1619.3 1119.5 1644.7 1068.6 1676.7 1022.1 1716.5 964.2 1725.9 902.4 1728.5 833.5 1731.2 762.8 1714.4 709.2 1657.3 667.5 1638.5 653.8 1623.6 634.7 1601.7 612.9 1599 633.1 1596 645.7 1595.9 658.4 1595.4 727.5 1596.2 796.7 1595.2 865.8 1595 879 1591.3 893.6 1584.9 905.1 1545 976.1 1503.8 1046.4 1462.2 1118.3 1476.5 1123.3 1489.7 1127.4 1502.1 1132.2 1502.1 1132.2 1502.1 1132.2 1502.1 1132.2Z" fill="#FFFFFF"/><path d="M788.9 960.4C825.4 1027.1 864.2 1092.5 902.6 1158.1 916.5 1171.5 984.7 1139.9 984.7 1139.9 1001.2 1132 1018.8 1126.4 1037.5 1119.3 1034.1 1112.9 1031.1 1106.8 1027.8 1100.9 990.5 1036.4 952.8 972.1 916.3 907.1 909.8 895.6 905.8 881.1 905.6 867.9 904.6 796.4 905.3 724.9 905 653.5 904.8 610.8 877.4 582.3 838.4 582.7 799.8 583.1 774.7 610.5 774.6 653.2 774.4 737.1 773.7 821 775.1 904.9 775.5 923.7 780 944.2 788.9 960.4Z" fill="#FFFFFF"/><path d="M1855.9 1152.2C1834.8 1189.8 1813 1227.3 1792.8 1265.6 1785 1280.3 1777.6 1283.9 1761.9 1276.6 1700.1 1248 1637.7 1220.8 1575.9 1192.4 1574.3 1191.7 1572.5 1191 1570.6 1190.3L1570.6 1190.3C1570.6 1190.3 1570.6 1190.3 1570.6 1190.3 1566.4 1188.8 1561.8 1187.2 1558.4 1184.8 1540.4 1176.8 1507 1162.4 1490.8 1158.2 1490.7 1158.2 1490.7 1158.2 1490.7 1158.2 1467.1 1153.6 1443.7 1148.2 1420.1 1143.3 1402.3 1139.6 1395.8 1148.7 1392.5 1165.2 1384 1207 1359.7 1238.1 1323.1 1259.6 1259.3 1297 1172.5 1280.4 1132.4 1217.3 1145.4 1217.9 1158.3 1214.7 1162.4 1219.3 1181.9 1241.6 1207.9 1248.1 1234.7 1253.2 1297.6 1265.3 1369.7 1206.8 1369.4 1143.4 1361.9 1143.4 1354.3 1143.4 1346.5 1143.4 1343.4 1150.2 1340.9 1156.7 1337.7 1162.8 1318.9 1198.1 1288.8 1216.6 1249.3 1216.9 1209.1 1217.2 1178.9 1197.4 1162.8 1161.1 1154.4 1142.2 1144.3 1139.1 1124.5 1145.7 1128.9 1159 1134.2 1171.7 1137.1 1185.1 1138.5 1191.4 1135.1 1198.6 1134 1205.4 1127.4 1201.9 1117.2 1200.1 1114.7 1194.7 1107.2 1178.7 1102.7 1161.4 1097.1 1144.5 1067.1 1140.4 1055.3 1142.2 1007.8 1158.1L924.6 1191.9C923.8 1192.4 923.1 1192.8 922.3 1193.2 864.2 1220.7 804.9 1246 747.3 1274.5 727.5 1284.3 718.8 1281.1 709 1262.6 689.2 1225.1 667.3 1188.6 645.5 1150.3 608.1 1170.1 572.3 1189.1 535.3 1208.7 568.5 1264.9 600.3 1318.2 631.4 1371.8 653.4 1409.7 686.8 1427.2 729.6 1427.3 777.7 1427.4 787.2 1417.6 787.3 1370.6 787.4 1322.7 797.9 1312.3 846.8 1312.3 1106.3 1312.3 1365.8 1312.3 1625.3 1312.3 1641.6 1312.3 1658 1311.8 1674.2 1313 1699.5 1315 1711.8 1328.4 1712.7 1353.6 1713.2 1368.3 1711.8 1383.2 1713.3 1397.8 1714 1404.1 1718.6 1412.4 1724 1415.4 1766 1439.1 1831.8 1428.8 1859.5 1389.1 1892.6 1341.7 1919.9 1290.3 1946.9 1245.4 1914.5 1212.6 1885.7 1182.9 1855.9 1152.2Z" fill="#FFFFFF"/></g></g><g><path d="M1347.4 1017.1C1350 1017.1 1351.7 1017.1 1353.4 1017.1 1377.9 1017.4 1402.3 1017.9 1426.8 1017.9 1477.5 1017.8 1521 983.8 1525.7 939.8 1527.6 922 1526.9 904.1 1527.1 886.2 1527.1 882.9 1528.1 881 1531.6 879.5 1537.2 877 1542.7 874.2 1548.1 871.3 1558.2 866 1563.6 858.5 1563.4 847.8 1563 831.2 1563.1 814.7 1563.4 798.1 1563.6 788.1 1558.5 781 1549.2 775.8 1546.6 774.4 1544 772.9 1541.3 771.8 1536.7 770.1 1535.1 767.5 1535.2 763 1535.6 747.6 1536.2 732.1 1535.1 716.8 1534 700.2 1532.8 683.3 1528.7 667 1496.4 538.6 1353.4 457.6 1205.4 483.8 1080.6 505.9 987 602.1 986.3 716.9 986.2 730.4 985.6 744 986.5 757.4 987.1 766 984.2 770.9 975.1 774.6 963.1 779.4 957.6 788.1 958.1 800 958.6 815.6 958.6 831.2 958.1 846.8 957.7 858.7 963.7 866.7 975.2 872.3 989.7 879.4 1004 886.6 1018.5 893.8 1019.9 894.5 1021.5 895 1023.4 895.8 1023.4 892.3 1023.4 889.5 1023.4 886.6 1023.4 830.6 1023.3 774.7 1023.4 718.7 1023.8 607.9 1121.5 518.2 1248.5 511.8 1380.6 505.2 1495.6 597.5 1497.7 712.8 1498.8 771.4 1498 830 1498 888.7 1498 890.9 1498 893.1 1498 896.2 1503.7 893.5 1508.5 891.2 1513.5 888.9 1513.5 904.3 1514.1 918.7 1513.4 933.2 1511.5 970.8 1480.4 1001.4 1437.6 1005.6 1415.4 1007.8 1392.7 1006.1 1370.2 1006.1 1362.7 1006.1 1355.1 1006.1 1347.6 1006.1 1347.3 1001.9 1347.1 998.9 1346.9 995.3 1315.6 995.3 1285 995.3 1253.8 995.3 1253.8 1005.6 1253.8 1015.7 1253.8 1026.6 1285 1026.6 1315.9 1026.6 1346.9 1026.6 1347.1 1023.3 1347.2 1020.5 1347.4 1017.1Z" fill="#FFFFFF"/><path d="M1347.4 1017.1C1347.2 1020.5 1347.1 1023.3 1346.9 1026.5 1315.9 1026.5 1285.1 1026.5 1253.8 1026.5 1253.8 1015.6 1253.8 1005.5 1253.8 995.2 1285 995.2 1315.7 995.2 1346.9 995.2 1347.1 998.8 1347.3 1001.7 1347.6 1006 1355.1 1006 1362.6 1006 1370.2 1006 1392.7 1006 1415.4 1007.7 1437.6 1005.5 1480.4 1001.3 1511.5 970.7 1513.4 933.1 1514.1 918.7 1513.5 904.2 1513.5 888.8 1508.5 891.2 1503.7 893.4 1498 896.1 1498 893 1498 890.8 1498 888.6 1498 830 1498.8 771.3 1497.7 712.7 1495.6 597.4 1380.6 505.1 1248.5 511.7 1121.5 518 1023.8 607.8 1023.4 718.6 1023.2 774.6 1023.4 830.5 1023.4 886.5 1023.4 889.3 1023.4 892.2 1023.4 895.7 1021.4 894.9 1019.9 894.4 1018.5 893.7 1004.1 886.6 989.7 879.3 975.2 872.2 963.7 866.6 957.7 858.6 958.1 846.7 958.6 831.1 958.6 815.5 958.1 799.9 957.7 788 963.2 779.3 975.1 774.5 984.2 770.9 987.1 765.9 986.5 757.3 985.5 743.8 986.2 730.3 986.3 716.8 987 602 1080.5 505.9 1205.4 483.7 1353.3 457.5 1496.3 538.5 1528.7 666.9 1532.8 683.1 1533.9 700 1535.1 716.7 1536.1 732.1 1535.6 747.5 1535.2 762.9 1535.1 767.4 1536.7 770 1541.3 771.7 1544.1 772.7 1546.7 774.2 1549.2 775.7 1558.5 780.9 1563.5 788 1563.4 798 1563.1 814.6 1563 831.1 1563.4 847.7 1563.7 858.4 1558.2 865.9 1548.1 871.2 1542.7 874.1 1537.2 876.9 1531.6 879.4 1528.2 880.9 1527.2 882.9 1527.1 886.1 1526.9 904 1527.6 922 1525.7 939.7 1521.1 983.6 1477.5 1017.7 1426.8 1017.8 1402.3 1017.9 1377.9 1017.3 1353.4 1017 1351.7 1017.1 1350 1017.1 1347.4 1017.1Z" fill="#FFFFFF"/></g></svg>